M48
;Layer_Color=9474304
;FILE_FORMAT=2:5
INCH,LZ
;TYPE=PLATED
T01F00S00C0.02756
T02F00S00C0.03150
T03F00S00C0.03543
T04F00S00C0.03937
T05F00S00C0.04331
T06F00S00C0.05512
T07F00S00C0.09449
T08F00S00C0.11811
%
T01
X0073228Y0147638
X0083071
X0090945
X0100787
T02
X0172835Y-0009843
X-0169685Y-001378
X-0168898Y-0035039
X-0180709Y0050236
Y0060236
Y0070236
X-0156929Y0053937
X-0116929
X-0118157Y0070433
X-0106158Y0069933
Y0109933
X-0118157Y0110433
X0131496Y0131496
X014685Y013189
X0129528Y0150787
X0166142
X0179528Y0138976
X0179921Y0065354
X0171653Y0018504
X0150394Y0017323
X0150787Y0038583
T03
X-0135819Y-0152539
X-0115819
X0102126Y-0160331
Y-0170331
Y-0150331
Y-0140331
Y-0130331
Y-0120331
Y-0110331
Y-0100331
Y-0084331
Y-0074331
Y-0064331
Y-0054331
Y-0044331
Y-0034331
Y-0024331
X-0087874
Y-0014331
Y-0004331
Y-0034331
Y-0044331
Y-0054331
Y-0064331
Y-0084331
Y-0094331
Y-0104331
Y-0114331
Y-0124331
Y-0134331
X-0121658Y0127433
Y0137433
X-0160315Y0128347
X-0180315
X-0105157Y0126933
Y0136933
X-0087874Y0095669
Y0085669
Y0075669
Y0065669
Y0055669
Y0045669
Y0035669
Y0025669
Y0005669
X-0067874Y0105669
X-0057874
X-0047874
X-0037874
X-0027874
X-0017874
X-0007874
X0002126
X0012126
X0022126
X0032126
Y0115669
X0022126
X0012126
X0002126
X-0007874
X-0017874
X-0027874
X-0037874
X-0047874
X-0057874
X-0067874
X0042126
X0052126
X0062126
X0072126
X0082126
X0092126
X0102126
Y0105669
X0092126
X0082126
X0072126
X0062126
X0052126
X0042126
X0102126Y0075669
Y0065669
Y0055669
Y0045669
Y0035669
Y0025669
Y0015669
Y0005669
T04
X-0153319Y-0174539
X0134256Y-0177445
Y-0167445
Y-0157445
Y-0147445
Y-0137445
Y-0072445
Y-0062445
Y-0052445
Y-0042445
Y-0032445
X-0114319Y-0116051
X-0153319Y-0134539
X-0181248Y-0116051
Y0039461
X-0114319
X0134543Y0036555
Y0046555
Y0056555
X0120945Y0071969
Y0081968
Y0091969
Y0101969
Y0111969
Y0121968
Y0131968
Y0141969
X0190945
Y0131968
Y0121968
Y0111969
Y0101969
Y0091969
Y0081968
Y0071969
X0043272Y016739
X0033272
X0023272
X0013272
X0003272
X-0059728
X-0069728
X-0079728
X-0089728
X-0099728
T05
X-0151575Y0070472
Y0101969
T06
X-0177319Y-0159724
X0130606Y-011363
Y-0093945
Y-0007945
X-0177319Y-0140039
X0130606Y001174
X-0020043Y016374
X-0039728
X-0122543
X-0142228
T07
X0061417Y0158268
X0113189
T08
X-0088583Y-0173228
X0187008
Y0173228
X-0187008
M30
