%TF.GenerationSoftware,Altium Limited,DefaultClient, ()*%
G04 Layer_Color=65535*
G04 Board_Origin=43131890|30803937*
%FSLAX26Y26*%
%MOIN*%
%TF.SameCoordinates,2895FA92-BEAC-45F1-90CC-3B462E10EB07*%
%TF.FilePolarity,Positive*%
%TF.FileFunction,Legend,Top*%
%TF.Part,Single*%
G01*
G75*
%TA.AperFunction,NonConductor*%
%ADD37C,0.007874*%
%ADD38C,0.010000*%
%ADD39C,0.015748*%
%ADD40C,0.012000*%
%ADD41C,0.005000*%
%ADD42R,0.047244X0.500002*%
%ADD43R,0.500002X0.047244*%
%ADD44R,0.047244X0.303150*%
G36*
X1011717Y1625547D02*
X1012606Y1625313D01*
X1013402Y1625079D01*
X1014197Y1624798D01*
X1014899Y1624470D01*
X1015554Y1624143D01*
X1016163Y1623815D01*
X1016678Y1623487D01*
X1017192Y1623113D01*
X1017614Y1622832D01*
X1017988Y1622505D01*
X1018316Y1622224D01*
X1018549Y1621990D01*
X1018737Y1621803D01*
X1018877Y1621662D01*
X1018971Y1621569D01*
X1019018Y1621522D01*
X1019439Y1620960D01*
X1019813Y1620352D01*
X1020141Y1619744D01*
X1020422Y1619135D01*
X1020843Y1617918D01*
X1021124Y1616795D01*
X1021264Y1616280D01*
X1021311Y1615765D01*
X1021357Y1615344D01*
X1021404Y1614970D01*
X1021451Y1614689D01*
Y1614268D01*
X1021357Y1613004D01*
X1021170Y1611787D01*
X1020889Y1610664D01*
X1020562Y1609681D01*
X1020375Y1609260D01*
X1020234Y1608886D01*
X1020094Y1608558D01*
X1019953Y1608277D01*
X1019813Y1608043D01*
X1019766Y1607903D01*
X1019673Y1607810D01*
Y1607763D01*
X1018924Y1606733D01*
X1018035Y1605797D01*
X1017145Y1605048D01*
X1016256Y1604440D01*
X1015461Y1603925D01*
X1015086Y1603738D01*
X1014806Y1603598D01*
X1014525Y1603457D01*
X1014337Y1603363D01*
X1014244Y1603317D01*
X1014197D01*
X1012793Y1602849D01*
X1011295Y1602521D01*
X1009891Y1602240D01*
X1008534Y1602100D01*
X1007926Y1602053D01*
X1007364Y1602006D01*
X1006896Y1601959D01*
X1006475D01*
X1006101Y1601913D01*
X1005867D01*
X1005679D01*
X1005633D01*
X1004229Y1601959D01*
X1002871Y1602100D01*
X1001655Y1602287D01*
X1000532Y1602521D01*
X1000063Y1602615D01*
X999596Y1602708D01*
X999221Y1602802D01*
X998894Y1602896D01*
X998659Y1602989D01*
X998426Y1603036D01*
X998332Y1603083D01*
X998285D01*
X997021Y1603598D01*
X995851Y1604253D01*
X994915Y1604955D01*
X994073Y1605610D01*
X993418Y1606265D01*
X992950Y1606780D01*
X992809Y1606967D01*
X992669Y1607108D01*
X992576Y1607201D01*
Y1607248D01*
X992201Y1607810D01*
X991874Y1608418D01*
X991312Y1609681D01*
X990938Y1610898D01*
X990703Y1612115D01*
X990610Y1612630D01*
X990516Y1613145D01*
X990470Y1613566D01*
Y1613940D01*
X990423Y1614268D01*
Y1614689D01*
X990516Y1616046D01*
X990703Y1617310D01*
X991031Y1618386D01*
X991359Y1619322D01*
X991546Y1619697D01*
X991733Y1620071D01*
X991874Y1620352D01*
X992061Y1620586D01*
X992154Y1620820D01*
X992248Y1620960D01*
X992341Y1621007D01*
Y1621054D01*
X992716Y1621522D01*
X993137Y1621943D01*
X994120Y1622739D01*
X995103Y1623441D01*
X996132Y1624002D01*
X997021Y1624424D01*
X997443Y1624611D01*
X997770Y1624751D01*
X998051Y1624845D01*
X998285Y1624938D01*
X998426Y1624985D01*
X998472D01*
X997302Y1629993D01*
X996319Y1629665D01*
X995430Y1629291D01*
X994541Y1628916D01*
X993745Y1628448D01*
X992997Y1628027D01*
X992341Y1627559D01*
X991733Y1627091D01*
X991172Y1626623D01*
X990657Y1626202D01*
X990236Y1625781D01*
X989861Y1625453D01*
X989580Y1625126D01*
X989346Y1624845D01*
X989159Y1624658D01*
X989066Y1624517D01*
X989019Y1624470D01*
X988504Y1623722D01*
X988036Y1622926D01*
X987662Y1622130D01*
X987334Y1621288D01*
X987006Y1620492D01*
X986772Y1619697D01*
X986445Y1618152D01*
X986304Y1617450D01*
X986211Y1616795D01*
X986164Y1616234D01*
X986117Y1615765D01*
X986070Y1615344D01*
Y1630648D01*
X1012980D01*
X1011717Y1625547D01*
D02*
G37*
G36*
X1025803Y1630648D02*
X1025804D01*
Y1519685D01*
X986070D01*
Y1557921D01*
X986070D01*
Y1576032D01*
X986117Y1575096D01*
X986164Y1574160D01*
X986445Y1572429D01*
X986632Y1571633D01*
X986819Y1570838D01*
X987006Y1570136D01*
X987240Y1569480D01*
X987474Y1568872D01*
X987662Y1568310D01*
X987849Y1567842D01*
X988036Y1567468D01*
X988176Y1567140D01*
X988317Y1566906D01*
X988364Y1566766D01*
X988410Y1566719D01*
X988878Y1565970D01*
X989393Y1565222D01*
X989908Y1564566D01*
X990470Y1563911D01*
X991031Y1563350D01*
X991593Y1562835D01*
X992154Y1562320D01*
X992716Y1561899D01*
X993231Y1561477D01*
X993699Y1561150D01*
X994120Y1560869D01*
X994494Y1560635D01*
X994822Y1560448D01*
X995056Y1560307D01*
X995196Y1560261D01*
X995243Y1560214D01*
X996086Y1559793D01*
X996975Y1559465D01*
X997864Y1559138D01*
X998753Y1558903D01*
X1000485Y1558482D01*
X1001327Y1558342D01*
X1002123Y1558201D01*
X1002871Y1558108D01*
X1003527Y1558061D01*
X1004135Y1558014D01*
X1004650Y1557967D01*
X1005118Y1557921D01*
X1005679D01*
X1006709Y1557967D01*
X1007692Y1558014D01*
X1009611Y1558248D01*
X1010500Y1558389D01*
X1011342Y1558576D01*
X1012138Y1558763D01*
X1012887Y1558950D01*
X1013542Y1559138D01*
X1014150Y1559278D01*
X1014712Y1559465D01*
X1015133Y1559605D01*
X1015508Y1559746D01*
X1015741Y1559840D01*
X1015929Y1559933D01*
X1015976D01*
X1016865Y1560354D01*
X1017660Y1560775D01*
X1018409Y1561244D01*
X1019111Y1561711D01*
X1019766Y1562179D01*
X1020375Y1562694D01*
X1020936Y1563162D01*
X1021404Y1563630D01*
X1021826Y1564098D01*
X1022247Y1564520D01*
X1022528Y1564847D01*
X1022808Y1565175D01*
X1022995Y1565456D01*
X1023136Y1565643D01*
X1023230Y1565783D01*
X1023276Y1565830D01*
X1023697Y1566579D01*
X1024119Y1567374D01*
X1024446Y1568217D01*
X1024727Y1569059D01*
X1025195Y1570744D01*
X1025476Y1572382D01*
X1025570Y1573084D01*
X1025663Y1573786D01*
X1025710Y1574394D01*
X1025757Y1574909D01*
X1025803Y1575330D01*
Y1559465D01*
Y1591898D01*
Y1575939D01*
X1025757Y1577062D01*
X1025663Y1578091D01*
X1025523Y1579121D01*
X1025289Y1580057D01*
X1025055Y1580993D01*
X1024774Y1581789D01*
X1024446Y1582584D01*
X1024166Y1583286D01*
X1023838Y1583895D01*
X1023557Y1584456D01*
X1023276Y1584971D01*
X1023042Y1585345D01*
X1022808Y1585673D01*
X1022668Y1585907D01*
X1022574Y1586047D01*
X1022528Y1586094D01*
X1021872Y1586843D01*
X1021170Y1587545D01*
X1020422Y1588200D01*
X1019673Y1588762D01*
X1018877Y1589277D01*
X1018082Y1589745D01*
X1017286Y1590166D01*
X1016537Y1590540D01*
X1015788Y1590868D01*
X1015133Y1591149D01*
X1014525Y1591383D01*
X1014010Y1591570D01*
X1013589Y1591710D01*
X1013261Y1591804D01*
X1013027Y1591898D01*
X1025803D01*
X1012980D01*
X1011717Y1586796D01*
X1012606Y1586562D01*
X1013402Y1586328D01*
X1014197Y1586047D01*
X1014899Y1585720D01*
X1015554Y1585392D01*
X1016163Y1585065D01*
X1016678Y1584737D01*
X1017192Y1584363D01*
X1017614Y1584082D01*
X1017988Y1583754D01*
X1018316Y1583474D01*
X1018549Y1583239D01*
X1018737Y1583052D01*
X1018877Y1582912D01*
X1018971Y1582818D01*
X1019018Y1582772D01*
X1019439Y1582210D01*
X1019813Y1581601D01*
X1020141Y1580993D01*
X1020422Y1580385D01*
X1020843Y1579168D01*
X1021124Y1578045D01*
X1021264Y1577530D01*
X1021311Y1577015D01*
X1021357Y1576594D01*
X1021404Y1576219D01*
X1021451Y1575939D01*
Y1575517D01*
X1021357Y1574254D01*
X1021170Y1573037D01*
X1020889Y1571914D01*
X1020562Y1570931D01*
X1020375Y1570510D01*
X1020234Y1570136D01*
X1020094Y1569808D01*
X1019953Y1569527D01*
X1019813Y1569293D01*
X1019766Y1569153D01*
X1019673Y1569059D01*
Y1569012D01*
X1018924Y1567983D01*
X1018035Y1567047D01*
X1017145Y1566298D01*
X1016256Y1565689D01*
X1015461Y1565175D01*
X1015086Y1564987D01*
X1014806Y1564847D01*
X1014525Y1564707D01*
X1014337Y1564613D01*
X1014244Y1564566D01*
X1014197D01*
X1012793Y1564098D01*
X1011295Y1563771D01*
X1009891Y1563490D01*
X1008534Y1563350D01*
X1007926Y1563303D01*
X1007364Y1563256D01*
X1006896Y1563209D01*
X1006475D01*
X1006101Y1563162D01*
X1005867D01*
X1005679D01*
X1005633D01*
X1004229Y1563209D01*
X1002871Y1563350D01*
X1001655Y1563537D01*
X1000532Y1563771D01*
X1000063Y1563864D01*
X999596Y1563958D01*
X999221Y1564052D01*
X998894Y1564145D01*
X998659Y1564239D01*
X998426Y1564285D01*
X998332Y1564332D01*
X998285D01*
X997021Y1564847D01*
X995851Y1565502D01*
X994915Y1566204D01*
X994073Y1566860D01*
X993418Y1567515D01*
X992950Y1568030D01*
X992809Y1568217D01*
X992669Y1568357D01*
X992576Y1568451D01*
Y1568497D01*
X992201Y1569059D01*
X991874Y1569668D01*
X991312Y1570931D01*
X990938Y1572148D01*
X990703Y1573365D01*
X990610Y1573880D01*
X990516Y1574394D01*
X990470Y1574815D01*
Y1575190D01*
X990423Y1575517D01*
Y1575939D01*
X990516Y1577296D01*
X990703Y1578560D01*
X991031Y1579636D01*
X991359Y1580572D01*
X991546Y1580946D01*
X991733Y1581321D01*
X991874Y1581601D01*
X992061Y1581835D01*
X992154Y1582070D01*
X992248Y1582210D01*
X992341Y1582257D01*
Y1582303D01*
X992716Y1582772D01*
X993137Y1583193D01*
X994120Y1583988D01*
X995103Y1584690D01*
X996132Y1585252D01*
X997021Y1585673D01*
X997443Y1585860D01*
X997770Y1586001D01*
X998051Y1586094D01*
X998285Y1586188D01*
X998426Y1586235D01*
X998472D01*
X997302Y1591242D01*
X996319Y1590915D01*
X995430Y1590540D01*
X994541Y1590166D01*
X993745Y1589698D01*
X992997Y1589277D01*
X992341Y1588809D01*
X991733Y1588341D01*
X991172Y1587873D01*
X990657Y1587451D01*
X990236Y1587030D01*
X989861Y1586703D01*
X989580Y1586375D01*
X989346Y1586094D01*
X989159Y1585907D01*
X989066Y1585767D01*
X989019Y1585720D01*
X988504Y1584971D01*
X988036Y1584176D01*
X987662Y1583380D01*
X987334Y1582537D01*
X987006Y1581742D01*
X986772Y1580946D01*
X986445Y1579402D01*
X986304Y1578700D01*
X986211Y1578045D01*
X986164Y1577483D01*
X986117Y1577015D01*
X986070Y1576594D01*
Y1591898D01*
X986070D01*
Y1596671D01*
X1002270D01*
X986070D01*
Y1614783D01*
X986117Y1613847D01*
X986164Y1612911D01*
X986445Y1611179D01*
X986632Y1610383D01*
X986819Y1609588D01*
X987006Y1608886D01*
X987240Y1608231D01*
X987474Y1607622D01*
X987662Y1607061D01*
X987849Y1606593D01*
X988036Y1606218D01*
X988176Y1605891D01*
X988317Y1605657D01*
X988364Y1605516D01*
X988410Y1605469D01*
X988878Y1604721D01*
X989393Y1603972D01*
X989908Y1603317D01*
X990470Y1602661D01*
X991031Y1602100D01*
X991593Y1601585D01*
X992154Y1601070D01*
X992716Y1600649D01*
X993231Y1600228D01*
X993699Y1599900D01*
X994120Y1599620D01*
X994494Y1599386D01*
X994822Y1599198D01*
X995056Y1599058D01*
X995196Y1599011D01*
X995243Y1598964D01*
X996086Y1598543D01*
X996975Y1598216D01*
X997864Y1597888D01*
X998753Y1597654D01*
X1000485Y1597233D01*
X1001327Y1597092D01*
X1002123Y1596952D01*
X1002871Y1596858D01*
X1003527Y1596812D01*
X1004135Y1596765D01*
X1004650Y1596718D01*
X1005118Y1596671D01*
X1005679D01*
X1006709Y1596718D01*
X1007692Y1596765D01*
X1009611Y1596999D01*
X1010500Y1597139D01*
X1011342Y1597326D01*
X1012138Y1597514D01*
X1012887Y1597701D01*
X1013542Y1597888D01*
X1014150Y1598028D01*
X1014712Y1598216D01*
X1015133Y1598356D01*
X1015508Y1598496D01*
X1015741Y1598590D01*
X1015929Y1598684D01*
X1015976D01*
X1016865Y1599105D01*
X1017660Y1599526D01*
X1018409Y1599994D01*
X1019111Y1600462D01*
X1019766Y1600930D01*
X1020375Y1601445D01*
X1020936Y1601913D01*
X1021404Y1602381D01*
X1021826Y1602849D01*
X1022247Y1603270D01*
X1022528Y1603598D01*
X1022808Y1603925D01*
X1022995Y1604206D01*
X1023136Y1604393D01*
X1023230Y1604534D01*
X1023276Y1604580D01*
X1023697Y1605329D01*
X1024119Y1606125D01*
X1024446Y1606967D01*
X1024727Y1607810D01*
X1025195Y1609494D01*
X1025476Y1611132D01*
X1025570Y1611834D01*
X1025663Y1612536D01*
X1025710Y1613145D01*
X1025757Y1613659D01*
X1025803Y1614081D01*
Y1614689D01*
X1025757Y1615812D01*
X1025663Y1616842D01*
X1025523Y1617871D01*
X1025289Y1618807D01*
X1025055Y1619744D01*
X1024774Y1620539D01*
X1024446Y1621335D01*
X1024166Y1622037D01*
X1023838Y1622645D01*
X1023557Y1623207D01*
X1023276Y1623722D01*
X1023042Y1624096D01*
X1022808Y1624424D01*
X1022668Y1624658D01*
X1022574Y1624798D01*
X1022528Y1624845D01*
X1021872Y1625593D01*
X1021170Y1626295D01*
X1020422Y1626951D01*
X1019673Y1627512D01*
X1018877Y1628027D01*
X1018082Y1628495D01*
X1017286Y1628916D01*
X1016537Y1629291D01*
X1015788Y1629618D01*
X1015133Y1629899D01*
X1014525Y1630133D01*
X1014010Y1630320D01*
X1013589Y1630461D01*
X1013261Y1630554D01*
X1013027Y1630648D01*
X1025803D01*
Y1630648D01*
D02*
G37*
G36*
X755905Y1615251D02*
X755859Y1616514D01*
X755812Y1617684D01*
X755718Y1618714D01*
X755578Y1619603D01*
X755437Y1620352D01*
X755391Y1620679D01*
X755344Y1620914D01*
X755297Y1621101D01*
Y1621241D01*
X755250Y1621335D01*
Y1621381D01*
X754969Y1622364D01*
X754689Y1623254D01*
X754361Y1624049D01*
X754033Y1624704D01*
X753753Y1625219D01*
X753519Y1625640D01*
X753378Y1625874D01*
X753331Y1625968D01*
X752817Y1626670D01*
X752255Y1627325D01*
X751693Y1627934D01*
X751132Y1628448D01*
X750617Y1628870D01*
X750243Y1629197D01*
X749962Y1629384D01*
X749915Y1629478D01*
X749868D01*
X748979Y1630086D01*
X748090Y1630601D01*
X747154Y1631022D01*
X746265Y1631444D01*
X745469Y1631724D01*
X745141Y1631865D01*
X744861Y1631958D01*
X744627Y1632052D01*
X744439Y1632099D01*
X744346Y1632146D01*
X744299D01*
X742989Y1632473D01*
X741631Y1632754D01*
X740321Y1632941D01*
X739151Y1633035D01*
X738589Y1633082D01*
X738075Y1633128D01*
X737653D01*
X737279Y1633175D01*
X755905D01*
Y1615251D01*
D02*
G37*
G36*
X737981Y1627887D02*
X739432Y1627793D01*
X740695Y1627606D01*
X741257Y1627512D01*
X741772Y1627419D01*
X742240Y1627325D01*
X742614Y1627232D01*
X742989Y1627138D01*
X743269Y1627044D01*
X743503Y1626997D01*
X743691Y1626951D01*
X743784Y1626904D01*
X743831D01*
X744907Y1626483D01*
X745890Y1626015D01*
X746686Y1625547D01*
X747388Y1625126D01*
X747949Y1624704D01*
X748371Y1624377D01*
X748605Y1624189D01*
X748698Y1624096D01*
X749166Y1623581D01*
X749541Y1623020D01*
X749868Y1622411D01*
X750149Y1621896D01*
X750383Y1621381D01*
X750523Y1621007D01*
X750617Y1620726D01*
X750664Y1620679D01*
Y1620633D01*
X750898Y1619744D01*
X751085Y1618807D01*
X751179Y1617825D01*
X751272Y1616842D01*
X751319Y1615999D01*
X751366Y1615625D01*
Y1606499D01*
X722022D01*
Y1615391D01*
X722069Y1616140D01*
X722116Y1616842D01*
X722163Y1617497D01*
X722209Y1618059D01*
X722256Y1618620D01*
X722350Y1619088D01*
X722397Y1619509D01*
X722490Y1619884D01*
X722584Y1620211D01*
X722631Y1620492D01*
X722677Y1620726D01*
X722724Y1620867D01*
X722771Y1621007D01*
X722818Y1621101D01*
X723052Y1621616D01*
X723333Y1622130D01*
X723988Y1623066D01*
X724690Y1623862D01*
X725392Y1624564D01*
X726094Y1625172D01*
X726655Y1625593D01*
X726843Y1625734D01*
X727030Y1625828D01*
X727123Y1625921D01*
X727170D01*
X727825Y1626295D01*
X728481Y1626576D01*
X729978Y1627091D01*
X731523Y1627466D01*
X733020Y1627699D01*
X733722Y1627746D01*
X734377Y1627840D01*
X734939Y1627887D01*
X735454D01*
X735875Y1627934D01*
X736156D01*
X736390D01*
X736437D01*
X737981Y1627887D01*
D02*
G37*
G36*
X756561Y1519685D02*
X755905D01*
X736905D01*
X737934Y1519732D01*
X738964Y1519779D01*
X740883Y1520060D01*
X741772Y1520247D01*
X742614Y1520434D01*
X743410Y1520621D01*
X744159Y1520855D01*
X744814Y1521089D01*
X745422Y1521276D01*
X745937Y1521464D01*
X746358Y1521651D01*
X746686Y1521791D01*
X746967Y1521931D01*
X747107Y1521978D01*
X747154Y1522025D01*
X747996Y1522493D01*
X748792Y1523008D01*
X749494Y1523523D01*
X750196Y1524084D01*
X750804Y1524693D01*
X751366Y1525254D01*
X751927Y1525816D01*
X752395Y1526378D01*
X752817Y1526892D01*
X753144Y1527360D01*
X753472Y1527828D01*
X753706Y1528203D01*
X753940Y1528530D01*
X754080Y1528764D01*
X754127Y1528905D01*
X754174Y1528951D01*
X754595Y1529841D01*
X754969Y1530730D01*
X755297Y1531619D01*
X755531Y1532508D01*
X755999Y1534240D01*
X756139Y1535082D01*
X756280Y1535831D01*
X756373Y1536580D01*
X756420Y1537235D01*
X756467Y1537797D01*
X756514Y1538312D01*
X756561Y1538686D01*
Y1519685D01*
D01*
D01*
Y1555159D01*
D01*
Y1539247D01*
X756514Y1540792D01*
X756327Y1542290D01*
X756093Y1543694D01*
X755952Y1544349D01*
X755812Y1544910D01*
X755671Y1545472D01*
X755531Y1545940D01*
X755391Y1546408D01*
X755297Y1546736D01*
X755203Y1547063D01*
X755110Y1547250D01*
X755063Y1547391D01*
Y1547438D01*
X754455Y1548935D01*
X753753Y1550339D01*
X753004Y1551649D01*
X752255Y1552773D01*
X751927Y1553287D01*
X751647Y1553755D01*
X751366Y1554177D01*
X751085Y1554504D01*
X750898Y1554785D01*
X750757Y1554972D01*
X750664Y1555113D01*
X750617Y1555159D01*
X756561D01*
X736343D01*
Y1538920D01*
X740883D01*
Y1550199D01*
X748043D01*
X748558Y1549543D01*
X749073Y1548748D01*
X749541Y1547952D01*
X749962Y1547204D01*
X750289Y1546502D01*
X750523Y1545940D01*
X750617Y1545706D01*
X750711Y1545565D01*
X750757Y1545472D01*
Y1545425D01*
X751179Y1544255D01*
X751506Y1543085D01*
X751693Y1542009D01*
X751881Y1541026D01*
X751927Y1540605D01*
X751974Y1540184D01*
Y1539856D01*
X752021Y1539528D01*
Y1538967D01*
X751927Y1537563D01*
X751740Y1536252D01*
X751506Y1535035D01*
X751179Y1533959D01*
X751038Y1533491D01*
X750898Y1533070D01*
X750757Y1532696D01*
X750617Y1532415D01*
X750523Y1532134D01*
X750430Y1531947D01*
X750383Y1531853D01*
Y1531806D01*
X749681Y1530636D01*
X748885Y1529560D01*
X747996Y1528717D01*
X747154Y1527969D01*
X746405Y1527407D01*
X746077Y1527173D01*
X745797Y1526986D01*
X745563Y1526845D01*
X745375Y1526752D01*
X745282Y1526658D01*
X745235D01*
X743878Y1526097D01*
X742427Y1525676D01*
X740976Y1525348D01*
X739619Y1525161D01*
X739011Y1525067D01*
X738449Y1525020D01*
X737934Y1524974D01*
X737466D01*
X737139Y1524927D01*
X736858D01*
X736671D01*
X736624D01*
X735079Y1524974D01*
X733629Y1525161D01*
X732318Y1525395D01*
X731710Y1525535D01*
X731195Y1525676D01*
X730680Y1525769D01*
X730212Y1525909D01*
X729838Y1526050D01*
X729463Y1526143D01*
X729229Y1526237D01*
X728995Y1526331D01*
X728902Y1526378D01*
X728855D01*
X728106Y1526705D01*
X727404Y1527126D01*
X726749Y1527501D01*
X726187Y1527875D01*
X725719Y1528249D01*
X725345Y1528530D01*
X725158Y1528717D01*
X725064Y1528764D01*
X724456Y1529419D01*
X723894Y1530075D01*
X723426Y1530777D01*
X723005Y1531432D01*
X722677Y1531994D01*
X722443Y1532461D01*
X722350Y1532649D01*
X722303Y1532789D01*
X722256Y1532836D01*
Y1532883D01*
X721882Y1533866D01*
X721648Y1534895D01*
X721461Y1535925D01*
X721320Y1536861D01*
X721227Y1537656D01*
Y1538031D01*
X721180Y1538312D01*
Y1538920D01*
X721227Y1539996D01*
X721320Y1540979D01*
X721507Y1541868D01*
X721695Y1542617D01*
X721882Y1543272D01*
X722069Y1543740D01*
X722116Y1543928D01*
X722163Y1544068D01*
X722209Y1544115D01*
Y1544161D01*
X722631Y1545004D01*
X723052Y1545753D01*
X723520Y1546361D01*
X723941Y1546876D01*
X724315Y1547297D01*
X724643Y1547578D01*
X724830Y1547765D01*
X724924Y1547812D01*
X725626Y1548280D01*
X726328Y1548701D01*
X727123Y1549075D01*
X727825Y1549403D01*
X728481Y1549684D01*
X729042Y1549871D01*
X729229Y1549918D01*
X729370Y1549965D01*
X729463Y1550012D01*
X729510D01*
X728293Y1554551D01*
X726889Y1554130D01*
X725673Y1553662D01*
X724596Y1553194D01*
X723660Y1552726D01*
X723286Y1552492D01*
X722958Y1552305D01*
X722677Y1552118D01*
X722397Y1551977D01*
X722209Y1551837D01*
X722069Y1551743D01*
X722022Y1551649D01*
X721975D01*
X721133Y1550854D01*
X720337Y1550012D01*
X719682Y1549122D01*
X719167Y1548280D01*
X718746Y1547531D01*
X718559Y1547204D01*
X718419Y1546923D01*
X718325Y1546689D01*
X718231Y1546502D01*
X718185Y1546408D01*
Y1546361D01*
X717717Y1545098D01*
X717389Y1543787D01*
X717155Y1542524D01*
X717015Y1541353D01*
X716921Y1540839D01*
X716874Y1540371D01*
Y1539949D01*
X716827Y1539575D01*
Y1555159D01*
D01*
Y1633175D01*
X755905D01*
X717483D01*
X736530D01*
X734658Y1633128D01*
X732927Y1632941D01*
X732131Y1632801D01*
X731382Y1632707D01*
X730680Y1632567D01*
X730025Y1632426D01*
X729463Y1632239D01*
X728949Y1632099D01*
X728481Y1632005D01*
X728106Y1631865D01*
X727825Y1631771D01*
X727591Y1631678D01*
X727451Y1631631D01*
X727404D01*
X725953Y1631022D01*
X724690Y1630274D01*
X723567Y1629525D01*
X723052Y1629150D01*
X722584Y1628823D01*
X722209Y1628448D01*
X721835Y1628121D01*
X721507Y1627840D01*
X721273Y1627606D01*
X721086Y1627372D01*
X720899Y1627232D01*
X720852Y1627138D01*
X720805Y1627091D01*
X720103Y1626202D01*
X719542Y1625219D01*
X719027Y1624283D01*
X718653Y1623394D01*
X718372Y1622645D01*
X718278Y1622318D01*
X718185Y1622037D01*
X718138Y1621803D01*
X718091Y1621616D01*
X718044Y1621522D01*
Y1621475D01*
X717951Y1621007D01*
X717857Y1620492D01*
X717717Y1619416D01*
X717623Y1618246D01*
X717529Y1617123D01*
Y1616140D01*
X717483Y1615719D01*
Y1601398D01*
X755905D01*
Y1633175D01*
X756561D01*
Y1519685D01*
D02*
G37*
G36*
X716874Y1537797D02*
X716921Y1536767D01*
X717061Y1535784D01*
X717202Y1534848D01*
X717389Y1533959D01*
X717576Y1533117D01*
X717810Y1532368D01*
X717997Y1531619D01*
X718231Y1531011D01*
X718465Y1530402D01*
X718653Y1529934D01*
X718840Y1529513D01*
X718980Y1529186D01*
X719121Y1528905D01*
X719167Y1528764D01*
X719214Y1528717D01*
X719682Y1527922D01*
X720197Y1527173D01*
X720759Y1526471D01*
X721320Y1525816D01*
X721929Y1525254D01*
X722537Y1524693D01*
X723099Y1524178D01*
X723707Y1523757D01*
X724222Y1523335D01*
X724737Y1523008D01*
X725205Y1522680D01*
X725626Y1522446D01*
X725953Y1522259D01*
X726187Y1522119D01*
X726375Y1522072D01*
X726421Y1522025D01*
X727357Y1521604D01*
X728247Y1521276D01*
X729183Y1520949D01*
X730119Y1520668D01*
X731897Y1520247D01*
X732693Y1520106D01*
X733488Y1519966D01*
X734190Y1519872D01*
X734892Y1519825D01*
X735454Y1519779D01*
X735969Y1519732D01*
X736343Y1519685D01*
X716827D01*
Y1538873D01*
X716874Y1537797D01*
D02*
G37*
G36*
X832469Y1546174D02*
X833920Y1546080D01*
X835184Y1545893D01*
X835745Y1545800D01*
X836260Y1545706D01*
X836728Y1545612D01*
X837102Y1545519D01*
X837477Y1545425D01*
X837758Y1545332D01*
X837992Y1545285D01*
X838179Y1545238D01*
X838272Y1545191D01*
X838319D01*
X839396Y1544770D01*
X840378Y1544302D01*
X841174Y1543834D01*
X841876Y1543413D01*
X842438Y1542992D01*
X842859Y1542664D01*
X843093Y1542477D01*
X843186Y1542383D01*
X843654Y1541868D01*
X844029Y1541307D01*
X844356Y1540698D01*
X844637Y1540184D01*
X844871Y1539669D01*
X845012Y1539294D01*
X845105Y1539014D01*
X845152Y1538967D01*
Y1538920D01*
X845386Y1538031D01*
X845573Y1537095D01*
X845667Y1536112D01*
X845760Y1535129D01*
X845807Y1534287D01*
X845854Y1533912D01*
Y1524786D01*
X816510D01*
Y1533678D01*
X816557Y1534427D01*
X816604Y1535129D01*
X816651Y1535784D01*
X816698Y1536346D01*
X816744Y1536908D01*
X816838Y1537376D01*
X816885Y1537797D01*
X816978Y1538171D01*
X817072Y1538499D01*
X817119Y1538780D01*
X817166Y1539014D01*
X817212Y1539154D01*
X817259Y1539294D01*
X817306Y1539388D01*
X817540Y1539903D01*
X817821Y1540418D01*
X818476Y1541353D01*
X819178Y1542149D01*
X819880Y1542851D01*
X820582Y1543459D01*
X821144Y1543881D01*
X821331Y1544021D01*
X821518Y1544115D01*
X821612Y1544208D01*
X821658D01*
X822314Y1544583D01*
X822969Y1544863D01*
X824466Y1545378D01*
X826011Y1545753D01*
X827508Y1545987D01*
X828210Y1546034D01*
X828866Y1546127D01*
X829427Y1546174D01*
X829942D01*
X830363Y1546221D01*
X830644D01*
X830878D01*
X830925D01*
X832469Y1546174D01*
D02*
G37*
G36*
X850394Y1582631D02*
Y1519685D01*
Y1533678D01*
Y1533538D01*
X850347Y1534802D01*
X850300Y1535972D01*
X850206Y1537001D01*
X850066Y1537890D01*
X849926Y1538639D01*
X849879Y1538967D01*
X849832Y1539201D01*
X849785Y1539388D01*
Y1539528D01*
X849738Y1539622D01*
Y1539669D01*
X849458Y1540651D01*
X849177Y1541541D01*
X848849Y1542336D01*
X848522Y1542992D01*
X848241Y1543506D01*
X848007Y1543928D01*
X847866Y1544161D01*
X847820Y1544255D01*
X847305Y1544957D01*
X846743Y1545612D01*
X846182Y1546221D01*
X845620Y1546736D01*
X845105Y1547157D01*
X844731Y1547484D01*
X844450Y1547671D01*
X844403Y1547765D01*
X844356D01*
X843467Y1548373D01*
X842578Y1548888D01*
X841642Y1549310D01*
X840753Y1549731D01*
X839957Y1550012D01*
X839630Y1550152D01*
X839349Y1550245D01*
X839115Y1550339D01*
X838928Y1550386D01*
X838834Y1550433D01*
X838787D01*
X837477Y1550760D01*
X836120Y1551041D01*
X834809Y1551228D01*
X833639Y1551322D01*
X833078Y1551369D01*
X832563Y1551416D01*
X832142D01*
X831767Y1551462D01*
X850394D01*
X814348D01*
X831018D01*
X829146Y1551416D01*
X827415Y1551228D01*
X826619Y1551088D01*
X825870Y1550994D01*
X825168Y1550854D01*
X824513Y1550714D01*
X823952Y1550526D01*
X823437Y1550386D01*
X822969Y1550292D01*
X822594Y1550152D01*
X822314Y1550058D01*
X822080Y1549965D01*
X821939Y1549918D01*
X821892D01*
X820442Y1549310D01*
X819178Y1548561D01*
X818055Y1547812D01*
X817540Y1547438D01*
X817072Y1547110D01*
X816698Y1546736D01*
X816323Y1546408D01*
X815996Y1546127D01*
X815762Y1545893D01*
X815574Y1545659D01*
X815387Y1545519D01*
X815340Y1545425D01*
X815294Y1545378D01*
X814592Y1544489D01*
X814030Y1543506D01*
X813515Y1542570D01*
X813141Y1541681D01*
X812860Y1540932D01*
X812766Y1540605D01*
X812673Y1540324D01*
X812626Y1540090D01*
X812579Y1539903D01*
X812532Y1539809D01*
Y1539762D01*
X812439Y1539294D01*
X812345Y1538780D01*
X812205Y1537703D01*
X812111Y1536533D01*
X812018Y1535410D01*
Y1534427D01*
X811971Y1534006D01*
Y1551462D01*
D01*
Y1582631D01*
X850394D01*
D02*
G37*
G36*
X919804Y1546174D02*
X921255Y1546080D01*
X922518Y1545893D01*
X923080Y1545800D01*
X923595Y1545706D01*
X924063Y1545612D01*
X924437Y1545519D01*
X924811Y1545425D01*
X925092Y1545332D01*
X925326Y1545285D01*
X925513Y1545238D01*
X925607Y1545191D01*
X925654D01*
X926730Y1544770D01*
X927713Y1544302D01*
X928509Y1543834D01*
X929211Y1543413D01*
X929772Y1542992D01*
X930193Y1542664D01*
X930427Y1542477D01*
X930521Y1542383D01*
X930989Y1541868D01*
X931363Y1541307D01*
X931691Y1540698D01*
X931972Y1540184D01*
X932206Y1539669D01*
X932346Y1539294D01*
X932440Y1539014D01*
X932487Y1538967D01*
Y1538920D01*
X932721Y1538031D01*
X932908Y1537095D01*
X933001Y1536112D01*
X933095Y1535129D01*
X933142Y1534287D01*
X933189Y1533912D01*
Y1524786D01*
X903845D01*
Y1533678D01*
X903892Y1534427D01*
X903939Y1535129D01*
X903985Y1535784D01*
X904032Y1536346D01*
X904079Y1536908D01*
X904173Y1537376D01*
X904219Y1537797D01*
X904313Y1538171D01*
X904407Y1538499D01*
X904453Y1538780D01*
X904500Y1539014D01*
X904547Y1539154D01*
X904594Y1539294D01*
X904641Y1539388D01*
X904875Y1539903D01*
X905155Y1540418D01*
X905811Y1541353D01*
X906513Y1542149D01*
X907215Y1542851D01*
X907917Y1543459D01*
X908478Y1543881D01*
X908665Y1544021D01*
X908853Y1544115D01*
X908946Y1544208D01*
X908993D01*
X909648Y1544583D01*
X910303Y1544863D01*
X911801Y1545378D01*
X913345Y1545753D01*
X914843Y1545987D01*
X915545Y1546034D01*
X916200Y1546127D01*
X916762Y1546174D01*
X917277D01*
X917698Y1546221D01*
X917979D01*
X918213D01*
X918259D01*
X919804Y1546174D01*
D02*
G37*
G36*
X937728Y1570510D02*
Y1519685D01*
Y1533678D01*
Y1533538D01*
X937681Y1534802D01*
X937635Y1535972D01*
X937541Y1537001D01*
X937401Y1537890D01*
X937260Y1538639D01*
X937213Y1538967D01*
X937167Y1539201D01*
X937120Y1539388D01*
Y1539528D01*
X937073Y1539622D01*
Y1539669D01*
X936792Y1540651D01*
X936511Y1541541D01*
X936184Y1542336D01*
X935856Y1542992D01*
X935575Y1543506D01*
X935341Y1543928D01*
X935201Y1544161D01*
X935154Y1544255D01*
X934639Y1544957D01*
X934078Y1545612D01*
X933516Y1546221D01*
X932955Y1546736D01*
X932440Y1547157D01*
X932065Y1547484D01*
X931785Y1547671D01*
X931738Y1547765D01*
X931691D01*
X930802Y1548373D01*
X929913Y1548888D01*
X928977Y1549310D01*
X928087Y1549731D01*
X927292Y1550012D01*
X926964Y1550152D01*
X926683Y1550245D01*
X926449Y1550339D01*
X926262Y1550386D01*
X926169Y1550433D01*
X926122D01*
X924811Y1550760D01*
X923454Y1551041D01*
X922144Y1551228D01*
X920974Y1551322D01*
X920412Y1551369D01*
X919897Y1551416D01*
X919476D01*
X919102Y1551462D01*
X937728D01*
X901682D01*
X918353D01*
X916481Y1551416D01*
X914749Y1551228D01*
X913954Y1551088D01*
X913205Y1550994D01*
X912503Y1550854D01*
X911848Y1550714D01*
X911286Y1550526D01*
X910771Y1550386D01*
X910303Y1550292D01*
X909929Y1550152D01*
X909648Y1550058D01*
X909414Y1549965D01*
X909274Y1549918D01*
X909227D01*
X907776Y1549310D01*
X906513Y1548561D01*
X905389Y1547812D01*
X904875Y1547438D01*
X904407Y1547110D01*
X904032Y1546736D01*
X903658Y1546408D01*
X903330Y1546127D01*
X903096Y1545893D01*
X902909Y1545659D01*
X902722Y1545519D01*
X902675Y1545425D01*
X902628Y1545378D01*
X901926Y1544489D01*
X901365Y1543506D01*
X900850Y1542570D01*
X900475Y1541681D01*
X900195Y1540932D01*
X900101Y1540605D01*
X900007Y1540324D01*
X899961Y1540090D01*
X899914Y1539903D01*
X899867Y1539809D01*
Y1539762D01*
X899773Y1539294D01*
X899680Y1538780D01*
X899539Y1537703D01*
X899446Y1536533D01*
X899352Y1535410D01*
Y1534427D01*
X899305Y1534006D01*
Y1551462D01*
D01*
Y1570510D01*
X937728D01*
D02*
G37*
%LPC*%
G36*
X1025148Y1554832D02*
X986726D01*
Y1519685D01*
X1025148Y1534521D01*
Y1539809D01*
X986726Y1554832D01*
X1025148D01*
D02*
G37*
%LPD*%
G36*
X1014665Y1539247D02*
X1015835Y1538826D01*
X1016958Y1538452D01*
X1018035Y1538078D01*
X1018971Y1537797D01*
X1019766Y1537516D01*
X1020094Y1537422D01*
X1020375Y1537329D01*
X1020609Y1537282D01*
X1020796Y1537235D01*
X1020889Y1537188D01*
X1020936D01*
X1019813Y1536861D01*
X1018690Y1536533D01*
X1017660Y1536206D01*
X1016678Y1535878D01*
X1015882Y1535597D01*
X1015508Y1535504D01*
X1015227Y1535363D01*
X1014993Y1535316D01*
X1014806Y1535223D01*
X1014712Y1535176D01*
X1014665D01*
X986726Y1525207D01*
Y1549637D01*
X1014665Y1539247D01*
D02*
G37*
%LPC*%
G36*
X755905Y1592880D02*
X717483D01*
Y1562601D01*
X755905D01*
Y1592880D01*
D02*
G37*
%LPD*%
G36*
X717483Y1567795D02*
Y1588013D01*
X747669D01*
X717483Y1567795D01*
D02*
G37*
G36*
X755905Y1567468D02*
X725766D01*
X755905Y1587639D01*
Y1567468D01*
D02*
G37*
%LPC*%
G36*
X844169Y1582631D02*
Y1572195D01*
X833639D01*
Y1582631D01*
X829240D01*
D01*
X818804D01*
X829240D01*
Y1572195D01*
X818804D01*
Y1582631D01*
D01*
D01*
Y1557312D01*
Y1567749D01*
X829240D01*
Y1557312D01*
X844169D01*
Y1582631D01*
D02*
G37*
%LPD*%
G36*
Y1557312D02*
X833639D01*
Y1567749D01*
X844169D01*
Y1557312D01*
D02*
G37*
%LPC*%
G36*
X926215Y1570510D02*
X921489D01*
Y1556002D01*
X926215D01*
Y1570510D01*
D02*
G37*
%LPD*%
D37*
X1577559Y672441D02*
G03*
X1527559Y672441I-25000J0D01*
G01*
X-1061339Y-1525394D02*
G03*
X-1061339Y-1525394I-196850J0D01*
G01*
X-1506299Y1283465D02*
G03*
X-1506299Y1283465I-196850J0D01*
G01*
X-1279528Y862205D02*
G03*
X-1279528Y862205I-236220J0D01*
G01*
X-1856938Y705125D02*
G03*
X-1856938Y499600I41519J-102763D01*
G01*
X1263780Y1471653D02*
X1846457D01*
X1845079Y669685D02*
Y1471653D01*
X1263780Y669685D02*
Y1471653D01*
Y669685D02*
X1527559D01*
X1578740D02*
X1845079D01*
X-1378189Y-1450591D02*
X-1338189D01*
X-1358189Y-1470591D02*
Y-1430591D01*
X-1823150Y1358268D02*
X-1783150D01*
X-1803150Y1338268D02*
Y1378268D01*
X-1515748Y929764D02*
Y969764D01*
X-1535748Y949764D02*
X-1495748D01*
X-1757376Y691443D02*
X-1748754Y685695D01*
X-1757376Y513281D02*
X-1748754Y519029D01*
Y685695D01*
D38*
X-1246102Y1375474D02*
G03*
X-1187047Y1375474I29527J-51143D01*
G01*
X-1081102Y1370474D02*
G03*
X-1022047Y1370474I29527J-51143D01*
G01*
X644691Y1965405D02*
G03*
X652565Y1973279I0J7874D01*
G01*
X1089573D02*
G03*
X1097447Y1965405I7874J0D01*
G01*
X1041186Y1685054D02*
G03*
X1056886Y1686152I7831J823D01*
G01*
X1048500Y1926309D02*
G03*
X1040631Y1933909I-7869J-275D01*
G01*
X937728D02*
G03*
X929859Y1926309I0J-7874D01*
G01*
X921472Y1686152D02*
G03*
X937173Y1685054I7869J-275D01*
G01*
X804966D02*
G03*
X820666Y1686152I7831J823D01*
G01*
X812279Y1926309D02*
G03*
X804410Y1933909I-7869J-275D01*
G01*
X701508D02*
G03*
X693639Y1926309I0J-7874D01*
G01*
X685252Y1686152D02*
G03*
X700952Y1685054I7869J-275D01*
G01*
X785593Y1872688D02*
G03*
X720325Y1872688I-32634J-7411D01*
G01*
X785593Y1867129D02*
G03*
X720325Y1867129I-32634J-7411D01*
G01*
X1021813D02*
G03*
X956546Y1867129I-32634J-7411D01*
G01*
X1021813Y1872688D02*
G03*
X956546Y1872688I-32634J-7411D01*
G01*
X625006Y1973279D02*
G03*
X605321Y1992964I-19685J0D01*
G01*
X613195Y1973279D02*
G03*
X605321Y1981153I-7874J0D01*
G01*
X1136817D02*
G03*
X1128943Y1973279I0J-7874D01*
G01*
X1136817Y1992964D02*
G03*
X1117132Y1973279I0J-19685D01*
G01*
X1034434Y-1835705D02*
G03*
X1045455Y-1818106I-8540J17599D01*
G01*
X1025894Y-1822043D02*
G03*
X1029831Y-1818106I0J3937D01*
G01*
X1018020Y-1790547D02*
G03*
X1014083Y-1794484I0J-3937D01*
G01*
Y-1818106D02*
G03*
X1018020Y-1822043I3937J0D01*
G01*
X1029831Y-1794484D02*
G03*
X1025894Y-1790547I-3937J0D01*
G01*
X1045455Y-1894484D02*
G03*
X1034434Y-1876886I-19561J0D01*
G01*
X1025894Y-1922043D02*
G03*
X1029831Y-1918106I0J3937D01*
G01*
X1018020Y-1890547D02*
G03*
X1014083Y-1894484I0J-3937D01*
G01*
Y-1918106D02*
G03*
X1018020Y-1922043I3937J0D01*
G01*
X1029831Y-1894484D02*
G03*
X1025894Y-1890547I-3937J0D01*
G01*
X-734933Y-2160903D02*
G03*
X-748581Y-2135398I-57974J-14618D01*
G01*
Y-2212704D02*
G03*
X-734933Y-2187200I-44326J40122D01*
G01*
X-725091Y-2404997D02*
G03*
X-742794Y-2373706I-101360J-36692D01*
G01*
Y-2462585D02*
G03*
X-725091Y-2431294I-83656J67983D01*
G01*
X-890521Y-1416886D02*
G03*
X-901542Y-1434484I8540J-17599D01*
G01*
X-854545D02*
G03*
X-865566Y-1416886I-19561J0D01*
G01*
X-881980Y-1430547D02*
G03*
X-885917Y-1434484I0J-3937D01*
G01*
X-870169D02*
G03*
X-874106Y-1430547I-3937J0D01*
G01*
X-865566Y-1475705D02*
G03*
X-854545Y-1458106I-8540J17599D01*
G01*
X-901542D02*
G03*
X-890521Y-1475705I19561J0D01*
G01*
X-874106Y-1462043D02*
G03*
X-870169Y-1458106I0J3937D01*
G01*
X-885917D02*
G03*
X-881980Y-1462043I3937J0D01*
G01*
X-865566Y-1575705D02*
G03*
X-854545Y-1558106I-8540J17599D01*
G01*
X-901542D02*
G03*
X-890521Y-1575705I19561J0D01*
G01*
X-874106Y-1562043D02*
G03*
X-870169Y-1558106I0J3937D01*
G01*
X-885917D02*
G03*
X-881980Y-1562043I3937J0D01*
G01*
X-874066Y-2347280D02*
G03*
X-906511Y-2365798I38208J-104624D01*
G01*
X1045455Y-1794484D02*
G03*
X1034434Y-1776886I-19561J0D01*
G01*
Y-1935705D02*
G03*
X1045455Y-1918106I-8540J17599D01*
G01*
X1034434Y-1935705D02*
G03*
X1034434Y-1876886I-2635J29410D01*
G01*
X-890521Y-1416886D02*
G03*
X-890521Y-1475705I2635J-29410D01*
G01*
Y-1516886D02*
G03*
X-901542Y-1534484I8540J-17599D01*
G01*
X-854545D02*
G03*
X-865566Y-1516886I-19561J0D01*
G01*
X-890521D02*
G03*
X-890521Y-1575705I2635J-29410D01*
G01*
X-881980Y-1530547D02*
G03*
X-885917Y-1534484I0J-3937D01*
G01*
X-870169D02*
G03*
X-874106Y-1530547I-3937J0D01*
G01*
X-906511Y-2234273D02*
G03*
X-874066Y-2252791I70652J86106D01*
G01*
X1034434Y-1835705D02*
G03*
X1034434Y-1776886I-2635J29410D01*
G01*
X998458Y-1818106D02*
G03*
X1009479Y-1835705I19561J0D01*
G01*
Y-1876886D02*
G03*
X998458Y-1894484I8540J-17599D01*
G01*
X707705Y-1826295D02*
G03*
X707705Y-1826295I-15748J0D01*
G01*
X607705D02*
G03*
X607705Y-1826295I-15748J0D01*
G01*
X66642Y-1821295D02*
G03*
X66642Y-1821295I-19685J0D01*
G01*
X62705D02*
G03*
X62705Y-1821295I-15748J0D01*
G01*
X-603176Y-2135398D02*
G03*
X-616823Y-2160903I51474J-43947D01*
G01*
Y-2187200D02*
G03*
X-603176Y-2212704I65121J18443D01*
G01*
X-815324Y-2365798D02*
G03*
X-847769Y-2347280I-70652J-86106D01*
G01*
X-608962Y-2373706D02*
G03*
X-626665Y-2404997I83656J-67983D01*
G01*
Y-2431294D02*
G03*
X-608962Y-2462585I68668J18196D01*
G01*
X1009479Y-1776886D02*
G03*
X998458Y-1794484I8540J-17599D01*
G01*
Y-1918106D02*
G03*
X1009479Y-1935705I19561J0D01*
G01*
Y-1876886D02*
G03*
X1009479Y-1935705I2635J-29410D01*
G01*
X707705Y-1926295D02*
G03*
X707705Y-1926295I-15748J0D01*
G01*
X607705D02*
G03*
X607705Y-1926295I-15748J0D01*
G01*
X66642Y-2021295D02*
G03*
X66642Y-2021295I-19685J0D01*
G01*
X62705D02*
G03*
X62705Y-2021295I-15748J0D01*
G01*
X-615543Y-46295D02*
G03*
X-615543Y-46295I-62500J0D01*
G01*
X-865566Y-1475705D02*
G03*
X-865566Y-1416886I-2635J29410D01*
G01*
Y-1575705D02*
G03*
X-865566Y-1516886I-2635J29410D01*
G01*
X-847769Y-2252791D02*
G03*
X-815324Y-2234273I-20390J73407D01*
G01*
X1009479Y-1776886D02*
G03*
X1009479Y-1835705I2635J-29410D01*
G01*
X1084457Y903705D02*
G03*
X1084457Y903705I-62500J0D01*
G01*
Y-2046295D02*
G03*
X1084457Y-2046295I-62500J0D01*
G01*
X484457Y-46295D02*
G03*
X484457Y-46295I-62500J0D01*
G01*
X-815543Y1153705D02*
G03*
X-815543Y1153705I-62500J0D01*
G01*
Y-2096295D02*
G03*
X-815543Y-2096295I-62500J0D01*
G01*
X-1265787Y1374136D02*
X-1167362D01*
X-1100787Y1369136D02*
X-1002362D01*
X-1773189Y-1715354D02*
X-1615709D01*
Y-1282284D01*
X-1930669D02*
X-1615709D01*
X-1930669Y-1715354D02*
Y-1282284D01*
Y-1715354D02*
X-1777126D01*
X-1773189Y-1711417D01*
X-1891299Y-1715354D02*
Y-1282284D01*
X-1540394Y1479921D02*
Y1637402D01*
Y1479921D02*
X-1107323D01*
Y1794882D01*
X-1540394D02*
X-1107323D01*
X-1540394Y1641339D02*
Y1794882D01*
Y1641339D02*
X-1536457Y1637402D01*
X-1540394Y1755512D02*
X-1107323D01*
X-82323Y1637402D02*
Y1794882D01*
X-515394D02*
X-82323D01*
X-515394Y1479921D02*
Y1794882D01*
Y1479921D02*
X-82323D01*
Y1633465D01*
X-86260Y1637402D02*
X-82323Y1633465D01*
X-515394Y1519292D02*
X-82323D01*
X1148583Y-821339D02*
X1306063D01*
X1148583Y-1254409D02*
Y-821339D01*
Y-1254409D02*
X1463543D01*
Y-821339D01*
X1310000D02*
X1463543D01*
X1306063Y-825276D02*
X1310000Y-821339D01*
X1424173Y-1254409D02*
Y-821339D01*
X1148583Y235512D02*
X1306063D01*
X1148583Y-197559D02*
Y235512D01*
Y-197559D02*
X1463543D01*
Y235512D01*
X1310000D02*
X1463543D01*
X1306063Y231575D02*
X1310000Y235512D01*
X1424173Y-197559D02*
Y235512D01*
X1224449Y-1819331D02*
Y-1324449D01*
X1460669D01*
Y-1823268D02*
Y-1324449D01*
X1224449Y-1824449D02*
X1460669D01*
X1224449Y-769331D02*
Y-274449D01*
X1460669D01*
Y-773268D02*
Y-274449D01*
X1224449Y-774449D02*
X1460669D01*
X-17284Y1555788D02*
X477598D01*
X-17284D02*
Y1792008D01*
X481535D01*
X482716Y1555788D02*
Y1792008D01*
X-1047284Y1555788D02*
X-552402D01*
X-1047284D02*
Y1792008D01*
X-548465D01*
X-547284Y1555788D02*
Y1792008D01*
X560046Y1554266D02*
Y1604890D01*
X1182093Y1554266D02*
Y1604890D01*
X1089573Y1981153D02*
Y1992964D01*
X652565Y1981153D02*
X1089573D01*
X652565Y1992964D02*
X1089573D01*
X652565Y1981153D02*
Y1992964D01*
X1089573Y1973279D02*
Y1981153D01*
X652565Y1973279D02*
Y1981153D01*
X632880Y1453594D02*
X1109258D01*
X632880Y1965405D02*
X644691D01*
X1097447D02*
X1109258D01*
X937173Y1685054D02*
X951162Y1818158D01*
X1027197D02*
X1041186Y1685054D01*
X1048500Y1926309D02*
X1056886Y1686152D01*
X937728Y1933909D02*
X1040631D01*
X921472Y1686152D02*
X929859Y1926309D01*
X700952Y1685054D02*
X714942Y1818158D01*
X790976D02*
X804966Y1685054D01*
X812279Y1926309D02*
X820666Y1686152D01*
X701508Y1933909D02*
X804410D01*
X685252Y1686152D02*
X693639Y1926309D01*
X613195Y1453594D02*
Y1965405D01*
X632880D01*
X613195Y1453594D02*
X632880D01*
X788928Y1837645D02*
X790976Y1818158D01*
X714942D02*
X716990Y1837645D01*
X1025148D02*
X1027197Y1818158D01*
X951162D02*
X953211Y1837645D01*
X1128943Y1453594D02*
Y1965405D01*
X1109258D02*
X1128943D01*
X1109258Y1453594D02*
X1128943D01*
X785593Y1867129D02*
Y1872688D01*
X720325Y1867129D02*
Y1872688D01*
X956546Y1867129D02*
Y1872688D01*
X1021813Y1867129D02*
Y1872688D01*
X716990Y1837645D02*
X718140Y1848583D01*
X787778D02*
X788928Y1837645D01*
X953211D02*
X954360Y1848583D01*
X1023999D02*
X1025148Y1837645D01*
X718140Y1848583D02*
X719678Y1863216D01*
X720325Y1867129D01*
X785593D02*
X786240Y1863216D01*
X787778Y1848583D01*
X719310Y1859718D02*
X719678Y1865840D01*
X786240D02*
X786608Y1859718D01*
X954360Y1848583D02*
X955898Y1863216D01*
X956546Y1867129D01*
X1021813D02*
X1022461Y1863216D01*
X1023999Y1848583D01*
X955530Y1859718D02*
X955898Y1865840D01*
X1022461D02*
X1022828Y1859718D01*
X719678Y1865840D02*
X720325Y1872688D01*
X785593D02*
X786240Y1865840D01*
X955898D02*
X956546Y1872688D01*
X1021813D02*
X1022461Y1865840D01*
X625006Y1965405D02*
Y1973279D01*
X613195Y1965405D02*
Y1973279D01*
X1128943Y1965405D02*
Y1973279D01*
X1117132Y1965405D02*
Y1973279D01*
X581699Y1981153D02*
X605321D01*
X581699Y1992964D02*
X605321D01*
X581699Y1981153D02*
Y1992964D01*
X1136817D02*
X1160439D01*
Y1981153D02*
Y1992964D01*
X1136817Y1981153D02*
X1160439D01*
X564334Y1607015D02*
X610515Y1617620D01*
X564334Y1552141D02*
X610515Y1541536D01*
X1131624Y1617620D02*
X1177804Y1607015D01*
X1131624Y1541536D02*
X1177804Y1552141D01*
X652565Y1973279D02*
X1089573D01*
X1109258Y1453594D02*
Y1965405D01*
X632880Y1453594D02*
Y1965405D01*
X951162Y1818158D02*
X1027197D01*
X714942D02*
X790976D01*
X716990Y1837645D02*
X788928D01*
X953211D02*
X1025148D01*
X720325Y1867129D02*
X785593D01*
X956546D02*
X1021813D01*
X718140Y1848583D02*
X787778D01*
X954360D02*
X1023999D01*
X719678Y1863216D02*
Y1865840D01*
X786240Y1863216D02*
Y1865840D01*
X955898Y1863216D02*
Y1865840D01*
X1022461Y1863216D02*
Y1865840D01*
X613195Y1973279D02*
X625006D01*
X1117132D02*
X1128943D01*
X610515Y1541536D02*
Y1617620D01*
X1131624Y1541536D02*
Y1617620D01*
X564334Y1552141D02*
Y1607015D01*
X1177804Y1552141D02*
Y1607015D01*
X1227323Y308464D02*
X1449291D01*
X1463150D01*
X1463543Y308071D01*
Y309646D02*
Y615551D01*
X1227323D02*
X1463543D01*
X1227323Y309646D02*
Y615551D01*
X-1851850Y433976D02*
X-1103819D01*
Y-1199882D02*
Y433976D01*
X-1851850Y-1199882D02*
Y433976D01*
Y-1199882D02*
X-1103819D01*
X248793Y-2457549D02*
X248793Y-2457551D01*
X248793Y-2457553D01*
X248793Y-2457555D01*
X248793Y-2457557D01*
X248794Y-2457559D01*
X248794Y-2457562D01*
X248795Y-2457564D01*
X248795Y-2457566D01*
X248796Y-2457568D01*
X248796Y-2457570D01*
X248797Y-2457572D01*
X248797Y-2457574D01*
X248798Y-2457576D01*
X248799Y-2457578D01*
X248799Y-2457580D01*
X248800Y-2457582D01*
X248801Y-2457584D01*
X248802Y-2457586D01*
X248803Y-2457588D01*
X248804Y-2457590D01*
X248805Y-2457592D01*
X248806Y-2457594D01*
X248807Y-2457596D01*
X248808Y-2457598D01*
X248809Y-2457600D01*
X296366Y-2797870D02*
Y-2793933D01*
X297941D02*
X340854D01*
X281799D02*
X297941D01*
X281799Y-2797870D02*
Y-2793933D01*
X295972Y-2797870D02*
Y-2793933D01*
X295956Y-2528314D02*
X295957Y-2528315D01*
X295956Y-2528314D02*
X295956Y-2528314D01*
X295955Y-2528313D02*
X295956Y-2528314D01*
X295955Y-2528313D02*
X295955Y-2528313D01*
X295955Y-2528312D02*
X295955Y-2528313D01*
X295954Y-2528311D02*
X295955Y-2528312D01*
X295954Y-2528311D02*
X295954Y-2528311D01*
X295954Y-2528310D02*
X295954Y-2528311D01*
X295953Y-2528310D02*
X295954Y-2528310D01*
X295953Y-2528309D02*
X295953Y-2528310D01*
X295952Y-2528309D02*
X295953Y-2528309D01*
X295952Y-2528308D02*
X295952Y-2528309D01*
X295951Y-2528308D02*
X295952Y-2528308D01*
X295951Y-2528307D02*
X295951Y-2528308D01*
X295951Y-2528307D02*
X295951Y-2528307D01*
X295950Y-2528306D02*
X295951Y-2528307D01*
X295950Y-2528305D02*
X295950Y-2528306D01*
X295949Y-2528305D02*
X295950Y-2528305D01*
X295949Y-2528304D02*
X295949Y-2528305D01*
X295948Y-2528304D02*
X295949Y-2528304D01*
X295948Y-2528303D02*
X295948Y-2528304D01*
X295947Y-2528303D02*
X295948Y-2528303D01*
X295947Y-2528302D02*
X295947Y-2528303D01*
X295947Y-2528302D02*
X295947Y-2528302D01*
X295946Y-2528301D02*
X295947Y-2528302D01*
X295946Y-2528300D02*
X295946Y-2528301D01*
X295945Y-2528300D02*
X295946Y-2528300D01*
X295945Y-2528299D02*
X295945Y-2528300D01*
X295944Y-2528299D02*
X295945Y-2528299D01*
X295944Y-2528298D02*
X295944Y-2528299D01*
X295943Y-2528298D02*
X295944Y-2528298D01*
X295943Y-2528297D02*
X295943Y-2528298D01*
X295942Y-2528297D02*
X295943Y-2528297D01*
X295942Y-2528296D02*
X295942Y-2528297D01*
X248865Y-2457421D02*
X248867Y-2457419D01*
X248862Y-2457423D02*
X248865Y-2457421D01*
X248860Y-2457425D02*
X248862Y-2457423D01*
X248858Y-2457427D02*
X248860Y-2457425D01*
X248855Y-2457429D02*
X248858Y-2457427D01*
X248853Y-2457431D02*
X248855Y-2457429D01*
X248851Y-2457433D02*
X248853Y-2457431D01*
X248849Y-2457435D02*
X248851Y-2457433D01*
X248846Y-2457437D02*
X248849Y-2457435D01*
X248844Y-2457439D02*
X248846Y-2457437D01*
X248842Y-2457441D02*
X248844Y-2457439D01*
X248840Y-2457443D02*
X248842Y-2457441D01*
X248838Y-2457445D02*
X248840Y-2457443D01*
X248837Y-2457447D02*
X248838Y-2457445D01*
X248835Y-2457449D02*
X248837Y-2457447D01*
X248833Y-2457451D02*
X248835Y-2457449D01*
X248831Y-2457453D02*
X248833Y-2457451D01*
X248829Y-2457455D02*
X248831Y-2457453D01*
X248827Y-2457457D02*
X248829Y-2457455D01*
X248826Y-2457459D02*
X248827Y-2457457D01*
X248824Y-2457461D02*
X248826Y-2457459D01*
X248823Y-2457463D02*
X248824Y-2457461D01*
X248821Y-2457465D02*
X248823Y-2457463D01*
X248820Y-2457468D02*
X248821Y-2457465D01*
X248818Y-2457470D02*
X248820Y-2457468D01*
X248817Y-2457472D02*
X248818Y-2457470D01*
X248815Y-2457474D02*
X248817Y-2457472D01*
X248814Y-2457476D02*
X248815Y-2457474D01*
X248813Y-2457478D02*
X248814Y-2457476D01*
X248811Y-2457480D02*
X248813Y-2457478D01*
X248810Y-2457482D02*
X248811Y-2457480D01*
X248809Y-2457484D02*
X248810Y-2457482D01*
X248808Y-2457486D02*
X248809Y-2457484D01*
X248807Y-2457488D02*
X248808Y-2457486D01*
X248806Y-2457490D02*
X248807Y-2457488D01*
X248805Y-2457492D02*
X248806Y-2457490D01*
X248804Y-2457494D02*
X248805Y-2457492D01*
X248803Y-2457496D02*
X248804Y-2457494D01*
X248802Y-2457498D02*
X248803Y-2457496D01*
X248801Y-2457500D02*
X248802Y-2457498D01*
X248800Y-2457502D02*
X248801Y-2457500D01*
X248799Y-2457504D02*
X248800Y-2457502D01*
X248799Y-2457506D02*
X248799Y-2457504D01*
X248798Y-2457508D02*
X248799Y-2457506D01*
X248797Y-2457510D02*
X248798Y-2457508D01*
X248797Y-2457512D02*
X248797Y-2457510D01*
X248796Y-2457515D02*
X248797Y-2457512D01*
X248796Y-2457517D02*
X248796Y-2457515D01*
X248795Y-2457519D02*
X248796Y-2457517D01*
X248795Y-2457521D02*
X248795Y-2457519D01*
X248794Y-2457523D02*
X248795Y-2457521D01*
X248794Y-2457525D02*
X248794Y-2457523D01*
X248793Y-2457527D02*
X248794Y-2457525D01*
X248793Y-2457529D02*
X248793Y-2457527D01*
X248793Y-2457531D02*
X248793Y-2457529D01*
X248793Y-2457533D02*
X248793Y-2457531D01*
X248793Y-2457535D02*
X248793Y-2457533D01*
X248792Y-2457537D02*
X248793Y-2457535D01*
X248792Y-2457539D02*
Y-2457537D01*
X248792Y-2457541D02*
X248792Y-2457539D01*
X248792Y-2457543D02*
Y-2457541D01*
Y-2457543D02*
X248792Y-2457545D01*
X248792Y-2457547D01*
X248793Y-2457549D01*
X262974Y-2457507D02*
X262975Y-2457505D01*
X262973Y-2457508D02*
X262974Y-2457507D01*
X262973Y-2457510D02*
X262973Y-2457508D01*
X262972Y-2457511D02*
X262973Y-2457510D01*
X262971Y-2457513D02*
X262972Y-2457511D01*
X262971Y-2457514D02*
X262971Y-2457513D01*
X262970Y-2457516D02*
X262971Y-2457514D01*
X262970Y-2457517D02*
X262970Y-2457516D01*
X262969Y-2457519D02*
X262970Y-2457517D01*
X262969Y-2457520D02*
X262969Y-2457519D01*
X262968Y-2457522D02*
X262969Y-2457520D01*
X262968Y-2457523D02*
X262968Y-2457522D01*
X262967Y-2457525D02*
X262968Y-2457523D01*
X262967Y-2457526D02*
X262967Y-2457525D01*
X262967Y-2457528D02*
X262967Y-2457526D01*
X262967Y-2457529D02*
X262967Y-2457528D01*
X262966Y-2457531D02*
X262967Y-2457529D01*
X262966Y-2457532D02*
X262966Y-2457531D01*
X262966Y-2457534D02*
X262966Y-2457532D01*
X262966Y-2457535D02*
X262966Y-2457534D01*
X262966Y-2457537D02*
X262966Y-2457535D01*
X262966Y-2457538D02*
X262966Y-2457537D01*
X262966Y-2457540D02*
Y-2457538D01*
Y-2457541D02*
Y-2457540D01*
Y-2457543D02*
Y-2457541D01*
Y-2457544D02*
Y-2457543D01*
Y-2457546D02*
Y-2457544D01*
Y-2457546D02*
X262966Y-2457547D01*
X262966Y-2457549D01*
X262966Y-2457550D01*
X262966Y-2457552D01*
X262966Y-2457553D01*
X262967Y-2457555D01*
X262967Y-2457556D01*
X262967Y-2457558D01*
X262968Y-2457559D01*
X262968Y-2457561D01*
X262968Y-2457562D01*
X262969Y-2457564D01*
X262969Y-2457565D01*
X262970Y-2457567D01*
X262970Y-2457568D01*
X262971Y-2457570D01*
X262971Y-2457572D01*
X262972Y-2457573D01*
X262973Y-2457575D01*
X262973Y-2457576D01*
X262974Y-2457577D01*
X262975Y-2457579D01*
X262975Y-2457581D01*
X262976Y-2457582D01*
X262977Y-2457584D01*
X262978Y-2457585D01*
X248894Y-2457398D02*
X248897Y-2457396D01*
X248891Y-2457400D02*
X248894Y-2457398D01*
X248888Y-2457402D02*
X248891Y-2457400D01*
X248886Y-2457404D02*
X248888Y-2457402D01*
X248883Y-2457406D02*
X248886Y-2457404D01*
X248880Y-2457408D02*
X248883Y-2457406D01*
X248877Y-2457410D02*
X248880Y-2457408D01*
X248875Y-2457412D02*
X248877Y-2457410D01*
X248872Y-2457414D02*
X248875Y-2457412D01*
X248870Y-2457416D02*
X248872Y-2457414D01*
X248867Y-2457419D02*
X248870Y-2457416D01*
X263015Y-2525686D02*
X263017Y-2525687D01*
X263019Y-2525689D01*
X263021Y-2525691D01*
X263022Y-2525692D01*
X263024Y-2525693D01*
X263026Y-2525695D01*
X263028Y-2525697D01*
X263030Y-2525698D01*
X263032Y-2525700D01*
X263034Y-2525701D01*
X263036Y-2525702D01*
X263038Y-2525704D01*
X263040Y-2525706D01*
X263042Y-2525707D01*
X258083Y-2459347D02*
X258964Y-2461353D01*
X255944Y-2458709D02*
X258083Y-2459347D01*
X255851Y-2458702D02*
X255944Y-2458709D01*
X263040Y-2457436D02*
X263042Y-2457435D01*
X263038Y-2457438D02*
X263040Y-2457436D01*
X263036Y-2457439D02*
X263038Y-2457438D01*
X263034Y-2457441D02*
X263036Y-2457439D01*
X263032Y-2457442D02*
X263034Y-2457441D01*
X263030Y-2457444D02*
X263032Y-2457442D01*
X263028Y-2457445D02*
X263030Y-2457444D01*
X263026Y-2457447D02*
X263028Y-2457445D01*
X263024Y-2457448D02*
X263026Y-2457447D01*
X263022Y-2457450D02*
X263024Y-2457448D01*
X263021Y-2457451D02*
X263022Y-2457450D01*
X263019Y-2457453D02*
X263021Y-2457451D01*
X263017Y-2457454D02*
X263019Y-2457453D01*
X263015Y-2457456D02*
X263017Y-2457454D01*
X263014Y-2457457D02*
X263015Y-2457456D01*
X263012Y-2457459D02*
X263014Y-2457457D01*
X263010Y-2457460D02*
X263012Y-2457459D01*
X263009Y-2457462D02*
X263010Y-2457460D01*
X263007Y-2457463D02*
X263009Y-2457462D01*
X263005Y-2457465D02*
X263007Y-2457463D01*
X263004Y-2457466D02*
X263005Y-2457465D01*
X263002Y-2457468D02*
X263004Y-2457466D01*
X263001Y-2457469D02*
X263002Y-2457468D01*
X262999Y-2457471D02*
X263001Y-2457469D01*
X262998Y-2457472D02*
X262999Y-2457471D01*
X262997Y-2457474D02*
X262998Y-2457472D01*
X262995Y-2457475D02*
X262997Y-2457474D01*
X262994Y-2457477D02*
X262995Y-2457475D01*
X262993Y-2457478D02*
X262994Y-2457477D01*
X262991Y-2457480D02*
X262993Y-2457478D01*
X262990Y-2457481D02*
X262991Y-2457480D01*
X262989Y-2457483D02*
X262990Y-2457481D01*
X262988Y-2457484D02*
X262989Y-2457483D01*
X262987Y-2457486D02*
X262988Y-2457484D01*
X262986Y-2457487D02*
X262987Y-2457486D01*
X262985Y-2457489D02*
X262986Y-2457487D01*
X262983Y-2457490D02*
X262985Y-2457489D01*
X262982Y-2457492D02*
X262983Y-2457490D01*
X262981Y-2457493D02*
X262982Y-2457492D01*
X262980Y-2457495D02*
X262981Y-2457493D01*
X262979Y-2457496D02*
X262980Y-2457495D01*
X262979Y-2457498D02*
X262979Y-2457496D01*
X262978Y-2457499D02*
X262979Y-2457498D01*
X262977Y-2457501D02*
X262978Y-2457499D01*
X262976Y-2457502D02*
X262977Y-2457501D01*
X262975Y-2457504D02*
X262976Y-2457502D01*
X262975Y-2457505D02*
X262975Y-2457504D01*
X262966Y-2525591D02*
X262966Y-2525590D01*
X262966Y-2525593D02*
X262966Y-2525591D01*
X262966Y-2525594D02*
X262966Y-2525593D01*
X262966Y-2525596D02*
X262966Y-2525594D01*
X262966Y-2525597D02*
Y-2525596D01*
Y-2525599D02*
Y-2525597D01*
Y-2525600D02*
Y-2525599D01*
Y-2525602D02*
Y-2525600D01*
Y-2525603D02*
Y-2525602D01*
Y-2525603D02*
X262966Y-2525605D01*
X262966Y-2525606D01*
X262966Y-2525608D01*
X262966Y-2525609D01*
X262966Y-2525611D01*
X262967Y-2525612D01*
X262967Y-2525614D01*
X262967Y-2525615D01*
X262967Y-2525617D01*
X262968Y-2525618D01*
X262968Y-2525620D01*
X262969Y-2525621D01*
X262969Y-2525623D01*
X262970Y-2525624D01*
X262970Y-2525626D01*
X262971Y-2525627D01*
X262971Y-2525629D01*
X262972Y-2525630D01*
X262973Y-2525632D01*
X262973Y-2525633D01*
X262974Y-2525635D01*
X262975Y-2525636D01*
X262975Y-2525638D01*
X262976Y-2525639D01*
X262977Y-2525641D01*
X262978Y-2525642D01*
X262979Y-2525644D01*
X262979Y-2525645D01*
X262980Y-2525647D01*
X262981Y-2525648D01*
X262982Y-2525650D01*
X262983Y-2525651D01*
X262985Y-2525653D01*
X262986Y-2525654D01*
X262987Y-2525656D01*
X262988Y-2525657D01*
X262989Y-2525659D01*
X262990Y-2525660D01*
X262991Y-2525662D01*
X262993Y-2525663D01*
X262994Y-2525665D01*
X262995Y-2525666D01*
X262997Y-2525668D01*
X262998Y-2525669D01*
X262999Y-2525671D01*
X263001Y-2525672D01*
X263002Y-2525674D01*
X263004Y-2525675D01*
X263005Y-2525677D01*
X263007Y-2525678D01*
X263009Y-2525680D01*
X263010Y-2525681D01*
X263012Y-2525683D01*
X263014Y-2525684D01*
X263015Y-2525686D01*
X248810Y-2525660D02*
X248811Y-2525662D01*
X248813Y-2525664D01*
X248814Y-2525666D01*
X248815Y-2525668D01*
X248817Y-2525670D01*
X248818Y-2525672D01*
X248820Y-2525674D01*
X248821Y-2525676D01*
X248823Y-2525678D01*
X248824Y-2525680D01*
X248826Y-2525682D01*
X248827Y-2525684D01*
X248829Y-2525686D01*
X248831Y-2525688D01*
X248833Y-2525691D01*
X248835Y-2525693D01*
X248837Y-2525695D01*
X248838Y-2525697D01*
X248840Y-2525699D01*
X248842Y-2525701D01*
X248844Y-2525703D01*
X248846Y-2525705D01*
X248849Y-2525707D01*
X248851Y-2525709D01*
X248853Y-2525711D01*
X248855Y-2525713D01*
X248858Y-2525715D01*
X248860Y-2525717D01*
X248862Y-2525719D01*
X248865Y-2525721D01*
X248867Y-2525723D01*
X248870Y-2525725D01*
X248872Y-2525727D01*
X248875Y-2525729D01*
X248877Y-2525731D01*
X248880Y-2525733D01*
X248883Y-2525735D01*
X248886Y-2525737D01*
X248888Y-2525740D01*
X248891Y-2525742D01*
X248894Y-2525744D01*
X248897Y-2525746D01*
X262977Y-2525558D02*
X262978Y-2525557D01*
X262976Y-2525560D02*
X262977Y-2525558D01*
X262975Y-2525561D02*
X262976Y-2525560D01*
X262975Y-2525563D02*
X262975Y-2525561D01*
X262974Y-2525564D02*
X262975Y-2525563D01*
X262973Y-2525566D02*
X262974Y-2525564D01*
X262973Y-2525567D02*
X262973Y-2525566D01*
X262972Y-2525569D02*
X262973Y-2525567D01*
X262971Y-2525570D02*
X262972Y-2525569D01*
X262971Y-2525572D02*
X262971Y-2525570D01*
X262970Y-2525573D02*
X262971Y-2525572D01*
X262970Y-2525575D02*
X262970Y-2525573D01*
X262969Y-2525576D02*
X262970Y-2525575D01*
X262969Y-2525578D02*
X262969Y-2525576D01*
X262968Y-2525579D02*
X262969Y-2525578D01*
X262968Y-2525581D02*
X262968Y-2525579D01*
X262968Y-2525582D02*
X262968Y-2525581D01*
X262967Y-2525584D02*
X262968Y-2525582D01*
X262967Y-2525585D02*
X262967Y-2525584D01*
X262967Y-2525587D02*
X262967Y-2525585D01*
X262966Y-2525588D02*
X262967Y-2525587D01*
X262966Y-2525590D02*
X262966Y-2525588D01*
X-616823Y-2187200D02*
Y-2182371D01*
X-617119Y-2166177D02*
X-616823Y-2165732D01*
Y-2160903D01*
X255944Y-2524432D02*
X258360Y-2523554D01*
X258964Y-2521789D01*
X255851Y-2524439D02*
X255944Y-2524432D01*
X248808Y-2525543D02*
X248809Y-2525541D01*
X248807Y-2525545D02*
X248808Y-2525543D01*
X248806Y-2525547D02*
X248807Y-2525545D01*
X248805Y-2525550D02*
X248806Y-2525547D01*
X248804Y-2525552D02*
X248805Y-2525550D01*
X248803Y-2525554D02*
X248804Y-2525552D01*
X248802Y-2525556D02*
X248803Y-2525554D01*
X248801Y-2525558D02*
X248802Y-2525556D01*
X248800Y-2525560D02*
X248801Y-2525558D01*
X248799Y-2525562D02*
X248800Y-2525560D01*
X248799Y-2525564D02*
X248799Y-2525562D01*
X248798Y-2525566D02*
X248799Y-2525564D01*
X248797Y-2525568D02*
X248798Y-2525566D01*
X248797Y-2525570D02*
X248797Y-2525568D01*
X248796Y-2525572D02*
X248797Y-2525570D01*
X248796Y-2525574D02*
X248796Y-2525572D01*
X248795Y-2525576D02*
X248796Y-2525574D01*
X248795Y-2525578D02*
X248795Y-2525576D01*
X248794Y-2525580D02*
X248795Y-2525578D01*
X248794Y-2525582D02*
X248794Y-2525580D01*
X248793Y-2525584D02*
X248794Y-2525582D01*
X248793Y-2525586D02*
X248793Y-2525584D01*
X248793Y-2525588D02*
X248793Y-2525586D01*
X248793Y-2525590D02*
X248793Y-2525588D01*
X248793Y-2525592D02*
X248793Y-2525590D01*
X248792Y-2525594D02*
X248793Y-2525592D01*
X248792Y-2525597D02*
X248792Y-2525594D01*
X248792Y-2525599D02*
X248792Y-2525597D01*
X248792Y-2525601D02*
Y-2525599D01*
Y-2525601D02*
X248792Y-2525603D01*
Y-2525605D02*
Y-2525603D01*
Y-2525605D02*
X248793Y-2525607D01*
X248793Y-2525609D01*
X248793Y-2525611D01*
X248793Y-2525613D01*
X248793Y-2525615D01*
X248794Y-2525617D01*
X248794Y-2525619D01*
X248795Y-2525621D01*
X248795Y-2525623D01*
X248796Y-2525625D01*
X248796Y-2525627D01*
X248797Y-2525629D01*
X248797Y-2525631D01*
X248798Y-2525633D01*
X248799Y-2525635D01*
X248799Y-2525637D01*
X248800Y-2525639D01*
X248801Y-2525641D01*
X248802Y-2525644D01*
X248803Y-2525646D01*
X248804Y-2525648D01*
X248805Y-2525650D01*
X248806Y-2525652D01*
X248807Y-2525654D01*
X248808Y-2525656D01*
X248809Y-2525658D01*
X248810Y-2525660D01*
X-905344Y-2366965D02*
X-893533Y-2378776D01*
X-908162Y-2235924D02*
X-906511Y-2234273D01*
X-905344Y-2233106D01*
X-893533Y-2221295D01*
X-890521Y-1575705D02*
X-887886Y-1575823D01*
X-881980D01*
X-868201D02*
X-865566Y-1575705D01*
X-874106Y-1575823D02*
X-868201D01*
X-881980Y-1562043D02*
X-874106D01*
X-881980Y-1575823D02*
X-874106D01*
X-901542Y-1558106D02*
X-885917D01*
X-881980Y-1575823D02*
Y-1562043D01*
X-874106Y-1575823D02*
Y-1562043D01*
X-870169Y-1558106D02*
X-854545D01*
X-890521Y-1475705D02*
X-887886Y-1475823D01*
X-881980D01*
X-874106Y-1516768D02*
X-868201D01*
X-865566Y-1516886D01*
X-868201Y-1475823D02*
X-865566Y-1475705D01*
X-874106Y-1475823D02*
X-868201D01*
X-890521Y-1516886D02*
X-887886Y-1516768D01*
X-881980D01*
Y-1462043D02*
X-874106D01*
X-881980Y-1475823D02*
X-874106D01*
X-881980Y-1516768D02*
X-874106D01*
X-901542Y-1458106D02*
X-885917D01*
X-881980Y-1475823D02*
Y-1462043D01*
X-874106Y-1475823D02*
Y-1462043D01*
X-870169Y-1458106D02*
X-854545D01*
X-874106Y-1416768D02*
X-868201D01*
X-865566Y-1416886D01*
X-890521D02*
X-887886Y-1416768D01*
X-881980D01*
Y-1430547D02*
X-874106D01*
X-881980Y-1416768D02*
X-874106D01*
Y-1430547D02*
Y-1416768D01*
X-870169Y-1434484D02*
X-854545D01*
X-881980Y-1430547D02*
Y-1416768D01*
X-901542Y-1434484D02*
X-885917D01*
X-815324Y-2365798D02*
X-813673Y-2364147D01*
X-816491Y-2366965D02*
X-815324Y-2365798D01*
X-828302Y-2378776D02*
X-816491Y-2366965D01*
X-815324Y-2234273D02*
X-813673Y-2235924D01*
X-816491Y-2233106D02*
X-815324Y-2234273D01*
X-828302Y-2221295D02*
X-816491Y-2233106D01*
X-742794Y-2462585D02*
X-739989Y-2465390D01*
X-725091Y-2431294D02*
Y-2426020D01*
X-744776Y-2460603D02*
X-742794Y-2462585D01*
X-754618Y-2450761D02*
X-744776Y-2460603D01*
X-742794Y-2373706D02*
X-739989Y-2370902D01*
X-744776Y-2375688D02*
X-742794Y-2373706D01*
X-739989Y-2370902D02*
X-708493Y-2339405D01*
X-754618Y-2385530D02*
X-744776Y-2375688D01*
X-734933Y-2182371D02*
X-734637Y-2181925D01*
X-748581Y-2212704D02*
X-739989Y-2221295D01*
X-734933Y-2187200D02*
Y-2182371D01*
X-754618Y-2206666D02*
X-748581Y-2212704D01*
X-734933Y-2165732D02*
X-734637Y-2166177D01*
X-734933Y-2165732D02*
Y-2160903D01*
X-748581Y-2135398D02*
X-739989Y-2126807D01*
X-754618Y-2141436D02*
X-748581Y-2135398D01*
X-626665Y-2431294D02*
Y-2426020D01*
X-643263Y-2339405D02*
X-611767Y-2370902D01*
X-617119Y-2181925D02*
X-616823Y-2182371D01*
X281799Y-2896295D02*
Y-2880153D01*
X390854Y-2660075D02*
Y-2646295D01*
X646760Y-2660075D02*
Y-2646295D01*
X686130Y-2660075D02*
Y-2646295D01*
X788822Y-2525600D02*
Y-2457542D01*
X764476Y-2487811D02*
Y-2461353D01*
X778649Y-2487811D02*
Y-2461353D01*
X764476Y-2487811D02*
X778649D01*
Y-2495331D02*
Y-2487811D01*
X764476Y-2495331D02*
X778649D01*
X764476D02*
Y-2487811D01*
X778649Y-2521789D02*
Y-2495331D01*
X764476Y-2521789D02*
Y-2495331D01*
X781763Y-2524439D02*
Y-2458702D01*
X777271Y-1940980D02*
X789083Y-1929169D01*
X777271Y-1940980D02*
Y-1911453D01*
X789083Y-1929169D02*
Y-1923264D01*
X794988Y-1929169D02*
X806799Y-1940980D01*
X794988Y-1929169D02*
Y-1923264D01*
X806799Y-1940980D02*
Y-1911453D01*
X789083Y-1929169D02*
X794988D01*
X777271Y-2040980D02*
Y-2011453D01*
X789083Y-2023264D01*
X777271Y-2011453D02*
X806799D01*
X794988Y-2023264D02*
X806799Y-2011453D01*
Y-2040980D02*
Y-2011453D01*
X786693D02*
X791957Y-2010547D01*
X797220Y-2011453D01*
X776208Y-1926295D02*
X777271Y-1931983D01*
X806799Y-1931558D02*
X807705Y-1926295D01*
X889083Y-1929169D02*
Y-1923264D01*
X877271Y-1940980D02*
X889083Y-1929169D01*
X877271Y-1940980D02*
Y-1911453D01*
X906799Y-1940980D02*
Y-1911453D01*
X894988Y-1929169D02*
X906799Y-1940980D01*
X894988Y-1929169D02*
Y-1923264D01*
X889083Y-1929169D02*
X894988D01*
Y-2023264D02*
X906799Y-2011453D01*
Y-2040980D02*
Y-2011453D01*
X877271D02*
X889083Y-2023264D01*
X877271Y-2040980D02*
Y-2011453D01*
X906799D01*
X876208Y-1926295D02*
X877271Y-1931983D01*
X906799Y-1931558D02*
X907705Y-1926295D01*
X886693Y-2011453D02*
X891957Y-2010547D01*
X897220Y-2011453D01*
X1009479Y-1935705D02*
X1012114Y-1935823D01*
X1018020D01*
X1031799D02*
X1034434Y-1935705D01*
X1025894Y-1935823D02*
X1031799D01*
X1018020D02*
X1025894D01*
X1018020D02*
Y-1922043D01*
X1025894Y-1935823D02*
Y-1922043D01*
Y-1776768D02*
X1031799D01*
X1034434Y-1776886D01*
X1009479D02*
X1012114Y-1776768D01*
X1018020D01*
X1025894D01*
Y-1790547D02*
Y-1776768D01*
X1018020Y-1790547D02*
Y-1776768D01*
X-868792Y-2347280D02*
X-853043D01*
X-908162Y-2364147D02*
X-906511Y-2365798D01*
X-874066Y-2347280D02*
X-868792D01*
X-906511Y-2365798D02*
X-905344Y-2366965D01*
X739673Y-2793933D02*
X755815D01*
Y-2797870D02*
Y-2793933D01*
X998458Y-1918106D02*
X1014083D01*
X998458Y-1894484D02*
X1014083D01*
X998458Y-1918106D02*
Y-1894484D01*
Y-1818106D02*
X1014083D01*
X998458Y-1794484D02*
X1014083D01*
X998458Y-1818106D02*
Y-1794484D01*
X-978043Y-2646295D02*
Y1253705D01*
X1121957Y-2646295D02*
Y1253705D01*
X-754618Y-2450761D02*
Y-2385530D01*
X-744776Y-2460603D02*
Y-2375688D01*
X-597138Y-2450761D02*
Y-2385530D01*
X340854Y-2793933D02*
Y-2646295D01*
X281799Y-2793933D02*
Y-2646295D01*
X297941Y-2793933D02*
Y-2646295D01*
X696760Y-2793933D02*
Y-2646295D01*
X739673Y-2793933D02*
Y-2646295D01*
X-939658Y-2332651D02*
Y-2267420D01*
X-853043Y-2721295D02*
Y-2646295D01*
X-868792Y-2252791D02*
X-853043D01*
Y-2347280D02*
Y-2252791D01*
X-868792Y-2347280D02*
Y-2252791D01*
X-874066D02*
X-868792D01*
X-908162Y-2364147D02*
Y-2235924D01*
X-885917Y-1558106D02*
Y-1534484D01*
X-870169Y-1558106D02*
Y-1534484D01*
X-881980Y-1530547D02*
X-874106D01*
Y-1516768D01*
X-870169Y-1534484D02*
X-854545D01*
X-881980Y-1530547D02*
Y-1516768D01*
X-901542Y-1534484D02*
X-885917D01*
X-901542Y-1558106D02*
Y-1534484D01*
X-854545Y-1558106D02*
Y-1534484D01*
X-885917Y-1458106D02*
Y-1434484D01*
X-870169Y-1458106D02*
Y-1434484D01*
X-901542Y-1458106D02*
Y-1434484D01*
X-854545Y-1458106D02*
Y-1434484D01*
X-782177Y-2332651D02*
Y-2267420D01*
X-813673Y-2235924D02*
X-782177Y-2267420D01*
X-813673Y-2364147D02*
X-782177Y-2332651D01*
X-813673Y-2364147D02*
Y-2235924D01*
X-739989Y-2465390D02*
X-708493Y-2496886D01*
X-734933Y-2182371D02*
Y-2165732D01*
X-725091Y-2426020D02*
Y-2410272D01*
Y-2404997D01*
X-754618Y-2206666D02*
Y-2141436D01*
X-739989Y-2221295D02*
X-708493Y-2252791D01*
X-739989Y-2126807D02*
X-708493Y-2095311D01*
X-643263Y-2496886D02*
X-611767Y-2465390D01*
X-616823Y-2182371D02*
Y-2165732D01*
X-626665Y-2426020D02*
Y-2410272D01*
Y-2404997D01*
X-643263Y-2252791D02*
X-611767Y-2221295D01*
X-643263Y-2095311D02*
X-611767Y-2126807D01*
X-597138Y-2206666D02*
Y-2141436D01*
X-498713Y-2721295D02*
Y-2646295D01*
X248792Y-2525600D02*
Y-2457542D01*
X258964Y-2487811D02*
Y-2461353D01*
Y-2495331D02*
Y-2487811D01*
Y-2521789D02*
Y-2495331D01*
X255851Y-2524439D02*
Y-2458702D01*
X281799Y-2880153D02*
Y-2797870D01*
Y-2896295D02*
X299909D01*
X273131Y-2459184D02*
Y-2459184D01*
X273131Y-2459184D02*
X273131Y-2459184D01*
X273131Y-2459184D02*
X273131Y-2459184D01*
X273131Y-2459183D02*
X273131Y-2459184D01*
X273131Y-2459183D02*
Y-2459183D01*
X273131Y-2459183D02*
X273131Y-2459183D01*
X273131Y-2459183D02*
X273131Y-2459183D01*
X273131Y-2459183D02*
X273131Y-2459183D01*
X273131Y-2459182D02*
X273131Y-2459183D01*
X273131Y-2459182D02*
Y-2459182D01*
X273131Y-2459182D02*
X273131Y-2459182D01*
X273130Y-2459182D02*
X273131Y-2459182D01*
X273130Y-2459182D02*
X273130Y-2459182D01*
X273130Y-2459182D02*
X273130Y-2459182D01*
X273130Y-2459182D02*
Y-2459181D01*
X273130Y-2459181D02*
X273130Y-2459181D01*
X273130Y-2459181D02*
X273130Y-2459181D01*
X273130Y-2459181D02*
X273130Y-2459181D01*
X273130Y-2459181D02*
X273130Y-2459181D01*
X273130Y-2459180D02*
X273130Y-2459181D01*
X273130Y-2459180D02*
Y-2459180D01*
X273130Y-2459180D02*
X273130Y-2459180D01*
X273130Y-2459180D02*
X273130Y-2459180D01*
X273130Y-2459180D02*
X273130Y-2459180D01*
X273129Y-2459180D02*
X273130Y-2459180D01*
X273129Y-2459179D02*
X273129Y-2459180D01*
X273129Y-2459179D02*
X273129Y-2459179D01*
X273129Y-2459179D02*
Y-2459179D01*
X273129Y-2459179D02*
X273129Y-2459179D01*
X273129Y-2459179D02*
X273129Y-2459179D01*
X273129Y-2459178D02*
X273129Y-2459179D01*
X273129Y-2459178D02*
X273129Y-2459178D01*
X273129Y-2459178D02*
X273129Y-2459178D01*
X273129Y-2459178D02*
X273129Y-2459178D01*
X273128Y-2459178D02*
X273129Y-2459178D01*
X273128Y-2459177D02*
X273128Y-2459178D01*
X273128Y-2459177D02*
X273128Y-2459177D01*
X273128Y-2459177D02*
Y-2459177D01*
X273128Y-2459177D02*
X273128Y-2459177D01*
X273128Y-2459177D02*
X273128Y-2459177D01*
X273128Y-2459177D02*
X273128Y-2459177D01*
X273128Y-2459177D02*
X273128Y-2459177D01*
X273128Y-2459176D02*
X273128Y-2459177D01*
X273128Y-2459176D02*
X273128Y-2459176D01*
X273128Y-2459176D02*
X273128Y-2459176D01*
X273127Y-2459176D02*
X273128Y-2459176D01*
X273127Y-2459176D02*
X273127Y-2459176D01*
X273127Y-2459175D02*
X273127Y-2459176D01*
X273127Y-2459175D02*
X273127Y-2459175D01*
X273127Y-2459175D02*
X273127Y-2459175D01*
X273127Y-2459175D02*
X273127Y-2459175D01*
X273127Y-2459175D02*
X273127Y-2459175D01*
X273127Y-2459175D02*
X273127Y-2459175D01*
X273127Y-2459174D02*
X273127Y-2459175D01*
X273127Y-2459174D02*
X273127Y-2459174D01*
X273127Y-2459174D02*
X273127Y-2459174D01*
X273126Y-2459174D02*
X273127Y-2459174D01*
X273126Y-2459174D02*
X273126Y-2459174D01*
X273126Y-2459173D02*
X273126Y-2459174D01*
X273126Y-2459173D02*
X273126Y-2459173D01*
X273126Y-2459173D02*
X273126Y-2459173D01*
X273126Y-2459173D02*
X273126Y-2459173D01*
X255944Y-2458709D02*
X271327D01*
X646760Y-2660075D02*
X686130D01*
X273132Y-2523955D02*
X273133Y-2523955D01*
Y-2523955D01*
X273133Y-2523954D01*
X273133Y-2523954D01*
Y-2523954D01*
X273133Y-2523954D01*
X273133Y-2523954D01*
Y-2523954D01*
X273133Y-2523953D01*
X273133Y-2523953D01*
Y-2523953D01*
X273133Y-2523953D01*
X273133Y-2523953D01*
Y-2523952D01*
X273134Y-2523952D01*
Y-2523952D01*
X273134Y-2523952D01*
X273134Y-2523952D01*
Y-2523952D01*
X273134Y-2523951D01*
Y-2523951D01*
X273134Y-2523951D01*
X273134Y-2523951D01*
X255944Y-2524432D02*
X271327D01*
X272232Y-2459026D02*
X273138Y-2461353D01*
X271327Y-2458709D02*
X272232Y-2459026D01*
X273134Y-2459191D02*
X273134Y-2459191D01*
X273134Y-2459191D02*
X273134Y-2459191D01*
X273134Y-2459191D02*
Y-2459190D01*
X273134Y-2459190D02*
X273134Y-2459190D01*
X273134Y-2459190D02*
Y-2459190D01*
X273134Y-2459190D02*
X273134Y-2459190D01*
X273134Y-2459190D02*
X273134Y-2459190D01*
X273134Y-2459190D02*
Y-2459189D01*
X273133Y-2459189D02*
X273134Y-2459189D01*
X273133Y-2459189D02*
Y-2459189D01*
X273133Y-2459189D02*
X273133Y-2459189D01*
X273133Y-2459189D02*
X273133Y-2459189D01*
X273133Y-2459189D02*
Y-2459189D01*
X273133Y-2459188D02*
X273133Y-2459189D01*
X273133Y-2459188D02*
X273133Y-2459188D01*
X273133Y-2459188D02*
Y-2459188D01*
X273133Y-2459188D02*
X273133Y-2459188D01*
X273133Y-2459188D02*
X273133Y-2459188D01*
X273133Y-2459188D02*
Y-2459188D01*
X273133Y-2459187D02*
X273133Y-2459188D01*
X273133Y-2459187D02*
X273133Y-2459187D01*
X273133Y-2459187D02*
Y-2459187D01*
X273132Y-2459187D02*
X273133Y-2459187D01*
X273132Y-2459187D02*
X273132Y-2459187D01*
X273132Y-2459187D02*
Y-2459186D01*
X273132Y-2459186D02*
X273132Y-2459186D01*
X273132Y-2459186D02*
X273132Y-2459186D01*
X273132Y-2459186D02*
Y-2459186D01*
X273132Y-2459186D02*
X273132Y-2459186D01*
X273132Y-2459186D02*
X273132Y-2459186D01*
X273132Y-2459185D02*
X273132Y-2459186D01*
X273132Y-2459185D02*
Y-2459185D01*
X273132Y-2459185D02*
X273132Y-2459185D01*
X273132Y-2459185D02*
X273132Y-2459185D01*
X273132Y-2459185D02*
Y-2459185D01*
X273132Y-2459184D02*
X273132Y-2459185D01*
X273132Y-2459184D02*
X273132Y-2459184D01*
X273131Y-2459184D02*
X273132Y-2459184D01*
X273127Y-2523966D02*
X273127Y-2523966D01*
X273127Y-2523966D01*
X273127Y-2523966D01*
X273128Y-2523966D01*
X273128Y-2523966D01*
X273128Y-2523965D01*
X273128Y-2523965D01*
X273128Y-2523965D01*
X273128Y-2523965D01*
X273128Y-2523965D01*
X273128Y-2523965D01*
Y-2523964D01*
X273128Y-2523964D01*
X273128Y-2523964D01*
X273129Y-2523964D01*
X273129Y-2523964D01*
X273129Y-2523963D01*
X273129Y-2523963D01*
X273129Y-2523963D01*
X273129Y-2523963D01*
X273129Y-2523963D01*
Y-2523963D01*
X273129Y-2523962D01*
X273129Y-2523962D01*
X273130Y-2523962D01*
X273130Y-2523962D01*
X273130Y-2523962D01*
X273130Y-2523961D01*
Y-2523961D01*
X273130Y-2523961D01*
X273130Y-2523961D01*
X273130Y-2523961D01*
X273130Y-2523961D01*
X273130Y-2523960D01*
Y-2523960D01*
X273130Y-2523960D01*
X273130Y-2523960D01*
X273131Y-2523960D01*
X273131Y-2523959D01*
Y-2523959D01*
X273131Y-2523959D01*
X273131Y-2523959D01*
X273131Y-2523959D01*
X273131Y-2523959D01*
Y-2523958D01*
X273131Y-2523958D01*
X273131Y-2523958D01*
X273131Y-2523958D01*
Y-2523958D01*
X273132Y-2523957D01*
X273132Y-2523957D01*
X273132Y-2523957D01*
Y-2523957D01*
X273132Y-2523957D01*
X273132Y-2523957D01*
Y-2523956D01*
X273132Y-2523956D01*
X273132Y-2523956D01*
X273132Y-2523956D01*
Y-2523956D01*
X273132Y-2523956D01*
X273132Y-2523955D01*
Y-2523955D01*
X273132Y-2523955D01*
X-905344Y-2366965D02*
X-816491D01*
X-893533Y-2221295D02*
X-828302D01*
X-905344Y-2233106D02*
X-816491D01*
X-978043Y1253705D02*
X-878043D01*
X351484Y-2660075D02*
X390854D01*
X611957Y1253705D02*
X1121957D01*
X-606980Y-2460603D02*
Y-2375688D01*
X279806Y-2527009D02*
Y-2456132D01*
X755815Y-2793933D02*
Y-2646295D01*
X757808Y-2527009D02*
Y-2456132D01*
X-939658Y-2332651D02*
X-908162Y-2364147D01*
X-939658Y-2267420D02*
X-908162Y-2235924D01*
X-708493Y-2496886D02*
X-643263D01*
X-725091Y-2410272D02*
X-626665D01*
X-853043Y-2252791D02*
X-847769D01*
X-708493D02*
X-643263D01*
X-708493Y-2095311D02*
X-643263D01*
X-878043Y1253705D02*
X-778043Y1353705D01*
X351484Y-2660075D02*
Y-2646295D01*
X273138Y-2487811D02*
Y-2461353D01*
X258964Y-2487811D02*
X273138D01*
X258964Y-2495331D02*
X273138D01*
Y-2487811D01*
Y-2521789D02*
Y-2495331D01*
X511957Y1353705D02*
X611957Y1253705D01*
X755815Y-2880153D02*
Y-2797870D01*
X737705Y-2896295D02*
X755815D01*
Y-2880153D01*
X-725091Y-2426020D02*
X-626665D01*
X-611767Y-2465390D02*
X-608962Y-2462585D01*
X-606980Y-2460603D01*
X-597138Y-2450761D01*
X-739989Y-2465390D02*
X-611767D01*
Y-2370902D02*
X-608962Y-2373706D01*
X-853043Y-2347280D02*
X-847769D01*
X-608962Y-2373706D02*
X-606980Y-2375688D01*
X-708493Y-2339405D02*
X-643263D01*
X-606980Y-2375688D02*
X-597138Y-2385530D01*
X-739989Y-2370902D02*
X-611767D01*
X-734637Y-2181925D02*
X-617119D01*
X-611767Y-2221295D02*
X-603176Y-2212704D01*
X-597138Y-2206666D01*
X-739989Y-2221295D02*
X-611767D01*
X-734637Y-2166177D02*
X-617119D01*
X-611767Y-2126807D02*
X-603176Y-2135398D01*
X-597138Y-2141436D01*
X-849106Y-2151693D02*
Y-2150429D01*
X-846806D01*
X-739989Y-2126807D02*
X-611767D01*
X272232Y-2524116D02*
X273138Y-2521789D01*
X271327Y-2524432D02*
X272232Y-2524116D01*
X273126Y-2523969D02*
X273126Y-2523969D01*
X273126Y-2523968D01*
X273126Y-2523968D01*
X273126Y-2523968D01*
X273126Y-2523968D01*
X273127Y-2523968D01*
X273127Y-2523968D01*
X273127Y-2523967D01*
X273127Y-2523967D01*
X273127Y-2523967D01*
X273127Y-2523967D01*
X273127Y-2523967D01*
X273127Y-2523966D01*
X299909Y-2896295D02*
X737705D01*
X281799Y-2880153D02*
X755815D01*
X281799Y-2797870D02*
X755815D01*
X-853043Y-2721295D02*
X-498713D01*
X-978043Y-2646295D02*
X1121957D01*
X-778043Y1353705D02*
X511957D01*
X-893533Y-2378776D02*
X-828302D01*
X971260Y-1053307D02*
X1071260D01*
X-878740Y-793307D02*
X-828740D01*
Y-893307D02*
Y-793307D01*
X-928740Y-893307D02*
X-828740D01*
X-928740Y-1393307D02*
Y-893307D01*
Y-1393307D02*
X-828740D01*
Y-893307D01*
X-928740D02*
Y-793307D01*
X-878740D01*
X-30709Y-187795D02*
Y12205D01*
X269291D01*
X169291Y-187795D02*
Y-87795D01*
X269291D01*
X-30709Y-187795D02*
X244291D01*
X269291Y-162795D01*
Y12205D01*
X971260Y806693D02*
X1071260D01*
X971260Y6693D02*
Y806693D01*
Y6693D02*
X1071260D01*
Y806693D01*
X971260Y706693D02*
X1071260D01*
X-928740Y-693307D02*
X-828740D01*
Y106693D01*
X-928740D02*
X-828740D01*
X-928740Y-693307D02*
Y106693D01*
Y-593307D02*
X-828740D01*
X-928740Y206693D02*
X-828740D01*
Y1006693D01*
X-928740D02*
X-828740D01*
X-928740Y206693D02*
Y1006693D01*
Y306693D02*
X-828740D01*
X-723511Y969393D02*
X-703740Y949622D01*
Y206693D02*
Y949622D01*
Y206693D02*
X-678740Y181693D01*
X-703740Y156693D02*
X-678740Y181693D01*
X-703740Y-618307D02*
Y156693D01*
X-728740Y-643307D02*
X-703740Y-618307D01*
X-728740Y-793307D02*
X-703740Y-818307D01*
Y-993307D02*
Y-818307D01*
Y-993307D02*
X-678740Y-1018307D01*
X-703740Y-1043307D02*
X-678740Y-1018307D01*
X-703740Y-1218307D02*
Y-1043307D01*
X-728740Y-1243307D02*
X-703740Y-1218307D01*
X771260Y-1543307D02*
X796260Y-1568307D01*
X771260Y-1543307D02*
Y-918307D01*
X746260Y-893307D02*
X771260Y-918307D01*
X746260Y-893307D02*
X771260Y-868307D01*
Y-168307D01*
X796260Y-143307D01*
X846260Y-268307D02*
X871260Y-293307D01*
X846260Y-268307D02*
Y231693D01*
X821260Y256693D02*
X846260Y231693D01*
X821260Y256693D02*
X846260Y281693D01*
Y756693D01*
X871260Y781693D01*
X894988Y-1823264D02*
X906799Y-1811453D01*
Y-1840980D02*
Y-1811453D01*
X894988Y-1829169D02*
X906799Y-1840980D01*
X894988Y-1829169D02*
Y-1823264D01*
X877271Y-1811453D02*
X889083Y-1823264D01*
X877271Y-1811453D02*
X906799D01*
X889083Y-1823264D02*
X894988D01*
X889083Y-1829169D02*
Y-1823264D01*
X877271Y-1840980D02*
X889083Y-1829169D01*
X877271Y-1840980D02*
Y-1811453D01*
X889083Y-1829169D02*
X894988D01*
X877271Y-1840980D02*
X906799D01*
X886269D02*
X891957Y-1842043D01*
X876208Y-1826295D02*
X877271Y-1831983D01*
X876208Y-1826295D02*
X877271Y-1820608D01*
X886693Y-1811453D02*
X891957Y-1810547D01*
X897220Y-1811453D01*
X906799Y-1821032D02*
X907705Y-1826295D01*
X906799Y-1831558D02*
X907705Y-1826295D01*
X891957Y-1842043D02*
X897644Y-1840980D01*
X1025894Y-1876768D02*
X1031799D01*
X1034434Y-1876886D01*
X1009479D02*
X1012114Y-1876768D01*
X1018020D01*
X1014083Y-1918106D02*
Y-1894484D01*
X1029831Y-1918106D02*
Y-1894484D01*
X1018020Y-1890547D02*
X1025894D01*
X1018020Y-1876768D02*
X1025894D01*
X1018020Y-1922043D02*
X1025894D01*
Y-1890547D02*
Y-1876768D01*
X1029831Y-1894484D02*
X1045455D01*
X1018020Y-1890547D02*
Y-1876768D01*
X1029831Y-1918106D02*
X1045455D01*
Y-1894484D01*
X1009479Y-1835705D02*
X1012114Y-1835823D01*
X1018020D01*
X1031799D02*
X1034434Y-1835705D01*
X1025894Y-1835823D02*
X1031799D01*
X1014083Y-1818106D02*
Y-1794484D01*
X1029831Y-1818106D02*
Y-1794484D01*
X1018020Y-1790547D02*
X1025894D01*
X1018020Y-1822043D02*
X1025894D01*
X1018020Y-1835823D02*
X1025894D01*
X1029831Y-1794484D02*
X1045455D01*
X1018020Y-1835823D02*
Y-1822043D01*
X1025894Y-1835823D02*
Y-1822043D01*
X1029831Y-1818106D02*
X1045455D01*
Y-1794484D01*
X-728740Y1206693D02*
X1046260D01*
X1071260Y1181693D01*
Y1006693D02*
Y1181693D01*
X971260Y1106693D02*
X1071260D01*
X971260D02*
Y1206693D01*
X-728740Y1006693D02*
X1071260D01*
X-728740D02*
Y1206693D01*
X971260Y-93307D02*
X1071260D01*
X971260Y-893307D02*
Y-93307D01*
Y-893307D02*
X1071260D01*
Y-93307D01*
X971260Y-193307D02*
X1071260D01*
X971260Y-953307D02*
X1071260D01*
X971260Y-1753307D02*
Y-953307D01*
Y-1753307D02*
X1071260D01*
Y-953307D01*
X794988Y-2029169D02*
Y-2023264D01*
X789083Y-2029169D02*
X794988D01*
X777271Y-2040980D02*
X806799D01*
X786269D02*
X791957Y-2042043D01*
X776208Y-2026295D02*
X777271Y-2031983D01*
X776208Y-2026295D02*
X777271Y-2020608D01*
X806799Y-2021032D02*
X807705Y-2026295D01*
X806799Y-2031558D02*
X807705Y-2026295D01*
X791957Y-2042043D02*
X797644Y-2040980D01*
X777271Y-1940980D02*
X806799D01*
X786269D02*
X791957Y-1942043D01*
X797644Y-1940980D01*
X777271Y-1911453D02*
X789083Y-1923264D01*
X777271Y-1911453D02*
X806799D01*
X794988Y-1923264D02*
X806799Y-1911453D01*
X789083Y-1923264D02*
X794988D01*
X776208Y-1926295D02*
X777271Y-1920608D01*
X786693Y-1911453D02*
X791957Y-1910547D01*
X797220Y-1911453D01*
X806799Y-1921032D02*
X807705Y-1926295D01*
X777271Y-1811453D02*
X789083Y-1823264D01*
X777271Y-1811453D02*
X806799D01*
X794988Y-1823264D02*
X806799Y-1811453D01*
X789083Y-1823264D02*
X794988D01*
X777271Y-1840980D02*
X789083Y-1829169D01*
X777271Y-1840980D02*
Y-1811453D01*
X789083Y-1829169D02*
Y-1823264D01*
X794988Y-1829169D02*
X806799Y-1840980D01*
X794988Y-1829169D02*
Y-1823264D01*
X806799Y-1840980D02*
Y-1811453D01*
X789083Y-1829169D02*
X794988D01*
X777271Y-1840980D02*
X806799D01*
X786269D02*
X791957Y-1842043D01*
X776208Y-1826295D02*
X777271Y-1831983D01*
X776208Y-1826295D02*
X777271Y-1820608D01*
X786693Y-1811453D02*
X791957Y-1810547D01*
X797220Y-1811453D01*
X806799Y-1821032D02*
X807705Y-1826295D01*
X806799Y-1831558D02*
X807705Y-1826295D01*
X791957Y-1842043D02*
X797644Y-1840980D01*
X894988Y-2029169D02*
X906799Y-2040980D01*
X894988Y-2029169D02*
Y-2023264D01*
X889083Y-2029169D02*
Y-2023264D01*
X877271Y-2040980D02*
X889083Y-2029169D01*
Y-2023264D02*
X894988D01*
X889083Y-2029169D02*
X894988D01*
X877271Y-2040980D02*
X906799D01*
X886269D02*
X891957Y-2042043D01*
X876208Y-2026295D02*
X877271Y-2031983D01*
X876208Y-2026295D02*
X877271Y-2020608D01*
X906799Y-2021032D02*
X907705Y-2026295D01*
X906799Y-2031558D02*
X907705Y-2026295D01*
X891957Y-2042043D02*
X897644Y-2040980D01*
X877271Y-1940980D02*
X906799D01*
X886269D02*
X891957Y-1942043D01*
X897644Y-1940980D01*
X877271Y-1911453D02*
X889083Y-1923264D01*
X894988D02*
X906799Y-1911453D01*
X877271D02*
X906799D01*
X889083Y-1923264D02*
X894988D01*
X876208Y-1926295D02*
X877271Y-1920608D01*
X886693Y-1911453D02*
X891957Y-1910547D01*
X897220Y-1911453D01*
X906799Y-1921032D02*
X907705Y-1926295D01*
X774646Y-2457522D02*
X774646Y-2457523D01*
X774645Y-2457520D02*
X774646Y-2457522D01*
X774645Y-2457519D02*
X774645Y-2457520D01*
X774644Y-2457517D02*
X774645Y-2457519D01*
X774644Y-2457516D02*
X774644Y-2457517D01*
X774643Y-2457514D02*
X774644Y-2457516D01*
X774643Y-2457513D02*
X774643Y-2457514D01*
X774642Y-2457511D02*
X774643Y-2457513D01*
X774641Y-2457510D02*
X774642Y-2457511D01*
X774641Y-2457508D02*
X774641Y-2457510D01*
X774640Y-2457507D02*
X774641Y-2457508D01*
X774639Y-2457505D02*
X774640Y-2457507D01*
X774639Y-2457504D02*
X774639Y-2457505D01*
X774638Y-2457502D02*
X774639Y-2457504D01*
X774637Y-2457501D02*
X774638Y-2457502D01*
X774636Y-2457499D02*
X774637Y-2457501D01*
X774635Y-2457498D02*
X774636Y-2457499D01*
X774634Y-2457496D02*
X774635Y-2457498D01*
X774634Y-2457495D02*
X774634Y-2457496D01*
X774633Y-2457493D02*
X774634Y-2457495D01*
X774631Y-2457492D02*
X774633Y-2457493D01*
X774630Y-2457490D02*
X774631Y-2457492D01*
X774630Y-2457489D02*
X774630Y-2457490D01*
X774628Y-2457487D02*
X774630Y-2457489D01*
X774627Y-2457486D02*
X774628Y-2457487D01*
X774626Y-2457484D02*
X774627Y-2457486D01*
X774625Y-2457483D02*
X774626Y-2457484D01*
X774624Y-2457481D02*
X774625Y-2457483D01*
X774622Y-2457480D02*
X774624Y-2457481D01*
X774621Y-2457478D02*
X774622Y-2457480D01*
X774620Y-2457477D02*
X774621Y-2457478D01*
X774619Y-2457475D02*
X774620Y-2457477D01*
X774617Y-2457474D02*
X774619Y-2457475D01*
X774616Y-2457472D02*
X774617Y-2457474D01*
X774615Y-2457471D02*
X774616Y-2457472D01*
X774613Y-2457469D02*
X774615Y-2457471D01*
X774612Y-2457468D02*
X774613Y-2457469D01*
X774610Y-2457466D02*
X774612Y-2457468D01*
X774609Y-2457465D02*
X774610Y-2457466D01*
X774607Y-2457463D02*
X774609Y-2457465D01*
X774605Y-2457462D02*
X774607Y-2457463D01*
X774604Y-2457460D02*
X774605Y-2457462D01*
X774602Y-2457459D02*
X774604Y-2457460D01*
X774600Y-2457457D02*
X774602Y-2457459D01*
X774599Y-2457456D02*
X774600Y-2457457D01*
X774597Y-2457454D02*
X774599Y-2457456D01*
X774595Y-2457453D02*
X774597Y-2457454D01*
X774593Y-2457451D02*
X774595Y-2457453D01*
X774591Y-2457450D02*
X774593Y-2457451D01*
X774590Y-2457448D02*
X774591Y-2457450D01*
X774588Y-2457447D02*
X774590Y-2457448D01*
X774586Y-2457445D02*
X774588Y-2457447D01*
X774584Y-2457444D02*
X774586Y-2457445D01*
X774582Y-2457442D02*
X774584Y-2457444D01*
X774580Y-2457441D02*
X774582Y-2457442D01*
X774578Y-2457439D02*
X774580Y-2457441D01*
X774576Y-2457438D02*
X774578Y-2457439D01*
X774574Y-2457436D02*
X774576Y-2457438D01*
X774572Y-2457435D02*
X774574Y-2457436D01*
X766287Y-2458709D02*
X781670D01*
X777271Y-2040980D02*
X789083Y-2029169D01*
Y-2023264D01*
X794988D01*
Y-2029169D02*
X806799Y-2040980D01*
X788771Y-2457441D02*
X788774Y-2457443D01*
X788769Y-2457439D02*
X788771Y-2457441D01*
X788767Y-2457437D02*
X788769Y-2457439D01*
X788765Y-2457435D02*
X788767Y-2457437D01*
X788763Y-2457433D02*
X788765Y-2457435D01*
X788761Y-2457431D02*
X788763Y-2457433D01*
X788759Y-2457429D02*
X788761Y-2457431D01*
X788756Y-2457427D02*
X788759Y-2457429D01*
X788754Y-2457425D02*
X788756Y-2457427D01*
X788752Y-2457423D02*
X788754Y-2457425D01*
X788749Y-2457421D02*
X788752Y-2457423D01*
X788747Y-2457419D02*
X788749Y-2457421D01*
X788744Y-2457416D02*
X788747Y-2457419D01*
X788742Y-2457414D02*
X788744Y-2457416D01*
X788739Y-2457412D02*
X788742Y-2457414D01*
X788737Y-2457410D02*
X788739Y-2457412D01*
X788734Y-2457408D02*
X788737Y-2457410D01*
X788731Y-2457406D02*
X788734Y-2457408D01*
X788729Y-2457404D02*
X788731Y-2457406D01*
X788726Y-2457402D02*
X788729Y-2457404D01*
X788723Y-2457400D02*
X788726Y-2457402D01*
X788720Y-2457398D02*
X788723Y-2457400D01*
X788717Y-2457396D02*
X788720Y-2457398D01*
X774636Y-2457585D02*
X774637Y-2457584D01*
X774638Y-2457582D01*
X774639Y-2457581D01*
X774639Y-2457579D01*
X774640Y-2457577D01*
X774641Y-2457576D01*
X774641Y-2457575D01*
X774642Y-2457573D01*
X774643Y-2457572D01*
X774643Y-2457570D01*
X774644Y-2457568D01*
X774644Y-2457567D01*
X774645Y-2457565D01*
X774645Y-2457564D01*
X774646Y-2457562D01*
X774646Y-2457561D01*
X774646Y-2457559D01*
X774647Y-2457558D01*
X774647Y-2457556D01*
X774647Y-2457555D01*
X774648Y-2457553D01*
X774648Y-2457552D01*
X774648Y-2457550D01*
X774648Y-2457549D01*
X774648Y-2457547D01*
X774648Y-2457546D01*
Y-2457544D01*
X774648Y-2457543D01*
Y-2457541D01*
Y-2457540D01*
X774648Y-2457538D02*
X774648Y-2457540D01*
X774648Y-2457537D02*
X774648Y-2457538D01*
X774648Y-2457535D02*
X774648Y-2457537D01*
X774648Y-2457534D02*
X774648Y-2457535D01*
X774648Y-2457532D02*
X774648Y-2457534D01*
X774648Y-2457531D02*
X774648Y-2457532D01*
X774647Y-2457529D02*
X774648Y-2457531D01*
X774647Y-2457528D02*
X774647Y-2457529D01*
X774647Y-2457526D02*
X774647Y-2457528D01*
X774646Y-2457525D02*
X774647Y-2457526D01*
X774646Y-2457523D02*
X774646Y-2457525D01*
X788817Y-2457574D02*
X788817Y-2457572D01*
X788818Y-2457570D01*
X788818Y-2457568D01*
X788819Y-2457566D01*
X788819Y-2457564D01*
X788820Y-2457562D01*
X788820Y-2457559D01*
X788821Y-2457557D01*
X788821Y-2457555D01*
X788821Y-2457553D01*
X788821Y-2457551D01*
X788821Y-2457549D01*
X788822Y-2457547D01*
X788822Y-2457545D01*
Y-2457543D01*
Y-2457541D01*
Y-2457539D01*
X788822Y-2457537D02*
X788822Y-2457539D01*
X788821Y-2457535D02*
X788822Y-2457537D01*
X788821Y-2457533D02*
X788821Y-2457535D01*
X788821Y-2457531D02*
X788821Y-2457533D01*
X788821Y-2457529D02*
X788821Y-2457531D01*
X788821Y-2457527D02*
X788821Y-2457529D01*
X788820Y-2457525D02*
X788821Y-2457527D01*
X788820Y-2457523D02*
X788820Y-2457525D01*
X788819Y-2457521D02*
X788820Y-2457523D01*
X788819Y-2457519D02*
X788819Y-2457521D01*
X788818Y-2457517D02*
X788819Y-2457519D01*
X788818Y-2457515D02*
X788818Y-2457517D01*
X788817Y-2457512D02*
X788818Y-2457515D01*
X788817Y-2457510D02*
X788817Y-2457512D01*
X788816Y-2457508D02*
X788817Y-2457510D01*
X788815Y-2457506D02*
X788816Y-2457508D01*
X788815Y-2457504D02*
X788815Y-2457506D01*
X788814Y-2457502D02*
X788815Y-2457504D01*
X788813Y-2457500D02*
X788814Y-2457502D01*
X788812Y-2457498D02*
X788813Y-2457500D01*
X788811Y-2457496D02*
X788812Y-2457498D01*
X788810Y-2457494D02*
X788811Y-2457496D01*
X788809Y-2457492D02*
X788810Y-2457494D01*
X788808Y-2457490D02*
X788809Y-2457492D01*
X788807Y-2457488D02*
X788808Y-2457490D01*
X788806Y-2457486D02*
X788807Y-2457488D01*
X788805Y-2457484D02*
X788806Y-2457486D01*
X788804Y-2457482D02*
X788805Y-2457484D01*
X788803Y-2457480D02*
X788804Y-2457482D01*
X788801Y-2457478D02*
X788803Y-2457480D01*
X788800Y-2457476D02*
X788801Y-2457478D01*
X788799Y-2457474D02*
X788800Y-2457476D01*
X788797Y-2457472D02*
X788799Y-2457474D01*
X788796Y-2457470D02*
X788797Y-2457472D01*
X788794Y-2457468D02*
X788796Y-2457470D01*
X788793Y-2457465D02*
X788794Y-2457468D01*
X788791Y-2457463D02*
X788793Y-2457465D01*
X788790Y-2457461D02*
X788791Y-2457463D01*
X788788Y-2457459D02*
X788790Y-2457461D01*
X788786Y-2457457D02*
X788788Y-2457459D01*
X788785Y-2457455D02*
X788786Y-2457457D01*
X788783Y-2457453D02*
X788785Y-2457455D01*
X788781Y-2457451D02*
X788783Y-2457453D01*
X788779Y-2457449D02*
X788781Y-2457451D01*
X788777Y-2457447D02*
X788779Y-2457449D01*
X788775Y-2457445D02*
X788777Y-2457447D01*
X788774Y-2457443D02*
X788775Y-2457445D01*
X764483Y-2459182D02*
Y-2459182D01*
X764483Y-2459182D02*
X764483Y-2459182D01*
X764483Y-2459182D02*
X764483Y-2459182D01*
X764483Y-2459183D02*
X764483Y-2459182D01*
X764483Y-2459183D02*
X764483Y-2459183D01*
X764483Y-2459183D02*
Y-2459183D01*
X764483Y-2459183D02*
X764483Y-2459183D01*
X764483Y-2459183D02*
X764483Y-2459183D01*
X764483Y-2459184D02*
X764483Y-2459183D01*
X764483Y-2459184D02*
Y-2459184D01*
X764483Y-2459184D02*
X764483Y-2459184D01*
X764482Y-2459184D02*
X764483Y-2459184D01*
X764482Y-2459184D02*
X764482Y-2459184D01*
X764482Y-2459184D02*
Y-2459184D01*
X764482Y-2459185D02*
X764482Y-2459184D01*
X764482Y-2459185D02*
X764482Y-2459185D01*
X764482Y-2459185D02*
X764482Y-2459185D01*
X764482Y-2459185D02*
Y-2459185D01*
X764482Y-2459185D02*
X764482Y-2459185D01*
X764482Y-2459186D02*
X764482Y-2459185D01*
X764482Y-2459186D02*
X764482Y-2459186D01*
X764482Y-2459186D02*
Y-2459186D01*
X764482Y-2459186D02*
X764482Y-2459186D01*
X764482Y-2459186D02*
X764482Y-2459186D01*
X764482Y-2459186D02*
Y-2459186D01*
X764481Y-2459187D02*
X764482Y-2459186D01*
X764481Y-2459187D02*
X764481Y-2459187D01*
X764481Y-2459187D02*
Y-2459187D01*
X764481Y-2459187D02*
X764481Y-2459187D01*
X764481Y-2459187D02*
X764481Y-2459187D01*
X764481Y-2459188D02*
Y-2459187D01*
X764481Y-2459188D02*
X764481Y-2459188D01*
X764481Y-2459188D02*
X764481Y-2459188D01*
X764481Y-2459188D02*
Y-2459188D01*
X764481Y-2459188D02*
X764481Y-2459188D01*
X764481Y-2459188D02*
X764481Y-2459188D01*
X764481Y-2459189D02*
Y-2459188D01*
X764481Y-2459189D02*
X764481Y-2459189D01*
X764481Y-2459189D02*
X764481Y-2459189D01*
X764481Y-2459189D02*
Y-2459189D01*
X764481Y-2459189D02*
X764481Y-2459189D01*
X764481Y-2459189D02*
Y-2459189D01*
X764480Y-2459190D02*
X764481Y-2459189D01*
X764480Y-2459190D02*
X764480Y-2459190D01*
X764480Y-2459190D02*
Y-2459190D01*
X764480Y-2459190D02*
X764480Y-2459190D01*
X764480Y-2459190D02*
X764480Y-2459190D01*
X764480Y-2459191D02*
Y-2459190D01*
X764480Y-2459191D02*
X764480Y-2459191D01*
X764480Y-2459191D02*
Y-2459191D01*
X781670Y-2458709D02*
X781763Y-2458702D01*
X788805Y-2457600D02*
X788806Y-2457598D01*
X788807Y-2457596D01*
X788808Y-2457594D01*
X788809Y-2457592D01*
X788810Y-2457590D01*
X788811Y-2457588D01*
X788812Y-2457586D01*
X788813Y-2457584D01*
X788814Y-2457582D01*
X788815Y-2457580D01*
X788815Y-2457578D01*
X788816Y-2457576D01*
X788817Y-2457574D01*
X788813Y-2525558D02*
X788814Y-2525560D01*
X788812Y-2525556D02*
X788813Y-2525558D01*
X788811Y-2525554D02*
X788812Y-2525556D01*
X788810Y-2525552D02*
X788811Y-2525554D01*
X788809Y-2525550D02*
X788810Y-2525552D01*
X788808Y-2525547D02*
X788809Y-2525550D01*
X788807Y-2525545D02*
X788808Y-2525547D01*
X788806Y-2525543D02*
X788807Y-2525545D01*
X788805Y-2525541D02*
X788806Y-2525543D01*
X766287Y-2524432D02*
X781670D01*
X764616Y-2460153D02*
X766287Y-2458709D01*
X764476Y-2461353D02*
X764616Y-2460153D01*
X779254Y-2459588D02*
X781670Y-2458709D01*
X778649Y-2461353D02*
X779254Y-2459588D01*
X764488Y-2459173D02*
X764488Y-2459173D01*
X764488Y-2459173D02*
X764488Y-2459173D01*
X764488Y-2459173D02*
X764488Y-2459173D01*
X764488Y-2459174D02*
X764488Y-2459173D01*
X764487Y-2459174D02*
X764488Y-2459174D01*
X764487Y-2459174D02*
X764487Y-2459174D01*
X764487Y-2459174D02*
X764487Y-2459174D01*
X764487Y-2459174D02*
X764487Y-2459174D01*
X764487Y-2459175D02*
X764487Y-2459174D01*
X764487Y-2459175D02*
X764487Y-2459175D01*
X764487Y-2459175D02*
X764487Y-2459175D01*
X764487Y-2459175D02*
X764487Y-2459175D01*
X764487Y-2459175D02*
X764487Y-2459175D01*
X764487Y-2459175D02*
X764487Y-2459175D01*
X764486Y-2459176D02*
X764487Y-2459175D01*
X764486Y-2459176D02*
X764486Y-2459176D01*
X764486Y-2459176D02*
X764486Y-2459176D01*
X764486Y-2459176D02*
X764486Y-2459176D01*
X764486Y-2459176D02*
X764486Y-2459176D01*
X764486Y-2459177D02*
Y-2459176D01*
X764486Y-2459177D02*
X764486Y-2459177D01*
X764486Y-2459177D02*
X764486Y-2459177D01*
X764486Y-2459177D02*
X764486Y-2459177D01*
X764486Y-2459177D02*
X764486Y-2459177D01*
X764486Y-2459177D02*
X764486Y-2459177D01*
X764486Y-2459177D02*
X764486Y-2459177D01*
X764485Y-2459178D02*
X764486Y-2459177D01*
X764485Y-2459178D02*
X764485Y-2459178D01*
X764485Y-2459178D02*
X764485Y-2459178D01*
X764485Y-2459178D02*
X764485Y-2459178D01*
X764485Y-2459178D02*
X764485Y-2459178D01*
X764485Y-2459179D02*
Y-2459178D01*
X764485Y-2459179D02*
X764485Y-2459179D01*
X764485Y-2459179D02*
X764485Y-2459179D01*
X764485Y-2459179D02*
X764485Y-2459179D01*
X764485Y-2459179D02*
X764485Y-2459179D01*
X764485Y-2459180D02*
X764485Y-2459179D01*
X764484Y-2459180D02*
X764485Y-2459180D01*
X764484Y-2459180D02*
X764484Y-2459180D01*
X764484Y-2459180D02*
Y-2459180D01*
X764484Y-2459180D02*
X764484Y-2459180D01*
X764484Y-2459180D02*
X764484Y-2459180D01*
X764484Y-2459181D02*
X764484Y-2459180D01*
X764484Y-2459181D02*
X764484Y-2459181D01*
X764484Y-2459181D02*
X764484Y-2459181D01*
X764484Y-2459181D02*
Y-2459181D01*
X764484Y-2459181D02*
X764484Y-2459181D01*
X764484Y-2459182D02*
X764484Y-2459181D01*
X764484Y-2459182D02*
X764484Y-2459182D01*
X764483Y-2459182D02*
X764484Y-2459182D01*
X788781Y-2525691D02*
X788783Y-2525688D01*
X788785Y-2525686D01*
X788786Y-2525684D01*
X788788Y-2525682D01*
X788790Y-2525680D01*
X788791Y-2525678D01*
X788793Y-2525676D01*
X788794Y-2525674D01*
X788796Y-2525672D01*
X788797Y-2525670D01*
X788799Y-2525668D01*
X788800Y-2525666D01*
X788801Y-2525664D01*
X788803Y-2525662D01*
X788804Y-2525660D01*
X788805Y-2525658D01*
X788806Y-2525656D01*
X788807Y-2525654D01*
X788808Y-2525652D01*
X788809Y-2525650D01*
X788810Y-2525648D01*
X788811Y-2525646D01*
X788812Y-2525644D01*
X788813Y-2525641D01*
X788814Y-2525639D01*
X788815Y-2525637D01*
X788815Y-2525635D01*
X788816Y-2525633D01*
X788817Y-2525631D01*
X788817Y-2525629D01*
X788818Y-2525627D01*
X788818Y-2525625D01*
X788819Y-2525623D01*
X788819Y-2525621D01*
X788820Y-2525619D01*
X788820Y-2525617D01*
X788821Y-2525615D01*
X788821Y-2525613D01*
X788821Y-2525611D01*
X788821Y-2525609D01*
X788821Y-2525607D01*
X788822Y-2525605D01*
X788822Y-2525603D01*
Y-2525601D01*
Y-2525599D01*
Y-2525597D01*
X788822Y-2525594D02*
X788822Y-2525597D01*
X788821Y-2525592D02*
X788822Y-2525594D01*
X788821Y-2525590D02*
X788821Y-2525592D01*
X788821Y-2525588D02*
X788821Y-2525590D01*
X788821Y-2525586D02*
X788821Y-2525588D01*
X788821Y-2525584D02*
X788821Y-2525586D01*
X788820Y-2525582D02*
X788821Y-2525584D01*
X788820Y-2525580D02*
X788820Y-2525582D01*
X788819Y-2525578D02*
X788820Y-2525580D01*
X788819Y-2525576D02*
X788819Y-2525578D01*
X788818Y-2525574D02*
X788819Y-2525576D01*
X788818Y-2525572D02*
X788818Y-2525574D01*
X788817Y-2525570D02*
X788818Y-2525572D01*
X788817Y-2525568D02*
X788817Y-2525570D01*
X788816Y-2525566D02*
X788817Y-2525568D01*
X788815Y-2525564D02*
X788816Y-2525566D01*
X788815Y-2525562D02*
X788815Y-2525564D01*
X788814Y-2525560D02*
X788815Y-2525562D01*
X774647Y-2525612D02*
X774648Y-2525611D01*
X774648Y-2525609D01*
X774648Y-2525608D01*
X774648Y-2525606D01*
X774648Y-2525605D01*
X774648Y-2525603D01*
X774648Y-2525602D01*
Y-2525600D01*
Y-2525599D01*
X774648Y-2525597D02*
X774648Y-2525599D01*
X774648Y-2525597D02*
Y-2525596D01*
X774648Y-2525594D02*
X774648Y-2525596D01*
X774648Y-2525593D02*
X774648Y-2525594D01*
X774648Y-2525591D02*
X774648Y-2525593D01*
X774648Y-2525590D02*
X774648Y-2525591D01*
X774648Y-2525588D02*
X774648Y-2525590D01*
X774647Y-2525587D02*
X774648Y-2525588D01*
X774647Y-2525585D02*
X774647Y-2525587D01*
X774647Y-2525584D02*
X774647Y-2525585D01*
X774646Y-2525582D02*
X774647Y-2525584D01*
X774646Y-2525581D02*
X774646Y-2525582D01*
X774646Y-2525579D02*
X774646Y-2525581D01*
X774645Y-2525578D02*
X774646Y-2525579D01*
X774645Y-2525576D02*
X774645Y-2525578D01*
X774644Y-2525575D02*
X774645Y-2525576D01*
X774644Y-2525573D02*
X774644Y-2525575D01*
X774643Y-2525572D02*
X774644Y-2525573D01*
X774643Y-2525570D02*
X774643Y-2525572D01*
X774642Y-2525569D02*
X774643Y-2525570D01*
X774641Y-2525567D02*
X774642Y-2525569D01*
X774641Y-2525566D02*
X774641Y-2525567D01*
X774640Y-2525564D02*
X774641Y-2525566D01*
X774639Y-2525563D02*
X774640Y-2525564D01*
X774639Y-2525561D02*
X774639Y-2525563D01*
X774638Y-2525560D02*
X774639Y-2525561D01*
X774637Y-2525558D02*
X774638Y-2525560D01*
X774636Y-2525557D02*
X774637Y-2525558D01*
X788717Y-2525746D02*
X788720Y-2525744D01*
X788723Y-2525742D01*
X788726Y-2525740D01*
X788729Y-2525737D01*
X788731Y-2525735D01*
X788734Y-2525733D01*
X788737Y-2525731D01*
X788739Y-2525729D01*
X788742Y-2525727D01*
X788744Y-2525725D01*
X788747Y-2525723D01*
X788749Y-2525721D01*
X788752Y-2525719D01*
X788754Y-2525717D01*
X788756Y-2525715D01*
X788759Y-2525713D01*
X788761Y-2525711D01*
X788763Y-2525709D01*
X788765Y-2525707D01*
X788767Y-2525705D01*
X788769Y-2525703D01*
X788771Y-2525701D01*
X788774Y-2525699D01*
X788775Y-2525697D01*
X788777Y-2525695D01*
X788779Y-2525693D01*
X788781Y-2525691D01*
X781670Y-2524432D02*
X781763Y-2524439D01*
X774572Y-2525707D02*
X774574Y-2525706D01*
X774576Y-2525704D01*
X774578Y-2525702D01*
X774580Y-2525701D01*
X774582Y-2525700D01*
X774584Y-2525698D01*
X774586Y-2525697D01*
X774588Y-2525695D01*
X774590Y-2525693D01*
X774591Y-2525692D01*
X774593Y-2525691D01*
X774595Y-2525689D01*
X774597Y-2525687D01*
X774599Y-2525686D01*
X774600Y-2525684D01*
X774602Y-2525683D01*
X774604Y-2525681D01*
X774605Y-2525680D01*
X774607Y-2525678D01*
X774609Y-2525677D01*
X774610Y-2525675D01*
X774612Y-2525674D01*
X774613Y-2525672D01*
X774615Y-2525671D01*
X774616Y-2525669D01*
X774617Y-2525668D01*
X774619Y-2525666D01*
X774620Y-2525665D01*
X774621Y-2525663D01*
X774622Y-2525662D01*
X774624Y-2525660D01*
X774625Y-2525659D01*
X774626Y-2525657D01*
X774627Y-2525656D01*
X774628Y-2525654D01*
X774630Y-2525653D01*
X774630Y-2525651D01*
X774631Y-2525650D01*
X774633Y-2525648D01*
X774634Y-2525647D01*
X774634Y-2525645D01*
X774635Y-2525644D01*
X774636Y-2525642D01*
X774637Y-2525641D01*
X774638Y-2525639D01*
X774639Y-2525638D01*
X774639Y-2525636D01*
X774640Y-2525635D01*
X774641Y-2525633D01*
X774641Y-2525632D01*
X774642Y-2525630D01*
X774643Y-2525629D01*
X774643Y-2525627D01*
X774644Y-2525626D01*
X774644Y-2525624D01*
X774645Y-2525623D01*
X774645Y-2525621D01*
X774646Y-2525620D01*
X774646Y-2525618D01*
X774646Y-2525617D01*
X774647Y-2525615D01*
X774647Y-2525614D01*
X774647Y-2525612D01*
X764482Y-2523957D02*
Y-2523957D01*
Y-2523957D02*
X764482Y-2523958D01*
X764483Y-2523958D01*
X764483Y-2523958D01*
Y-2523958D02*
Y-2523958D01*
Y-2523958D02*
X764483Y-2523958D01*
X764483Y-2523959D01*
X764483Y-2523959D01*
Y-2523959D02*
Y-2523959D01*
Y-2523959D02*
X764483Y-2523959D01*
X764483Y-2523959D01*
X764483Y-2523959D01*
X764483Y-2523960D01*
Y-2523960D02*
Y-2523960D01*
Y-2523960D02*
X764484Y-2523960D01*
X764484Y-2523960D01*
X764484Y-2523960D01*
X764484Y-2523961D01*
Y-2523961D02*
Y-2523961D01*
Y-2523961D02*
X764484Y-2523961D01*
X764484Y-2523961D01*
X764484Y-2523961D01*
X764484Y-2523961D01*
X764484Y-2523962D01*
Y-2523962D02*
Y-2523962D01*
Y-2523962D02*
X764484Y-2523962D01*
X764485Y-2523962D01*
X764485Y-2523962D01*
X764485Y-2523963D01*
X764485Y-2523963D01*
X764485Y-2523963D01*
X764485Y-2523963D01*
Y-2523963D02*
Y-2523963D01*
Y-2523963D02*
X764485Y-2523963D01*
X764485Y-2523964D01*
X764485Y-2523964D01*
X764485Y-2523964D01*
X764486Y-2523964D01*
X764486Y-2523964D01*
X764486Y-2523965D01*
X764486Y-2523965D01*
X764486Y-2523965D01*
X764486Y-2523965D01*
X764486Y-2523965D01*
Y-2523965D02*
Y-2523965D01*
Y-2523965D02*
X764486Y-2523966D01*
X764486Y-2523966D01*
X764486Y-2523966D01*
X764486Y-2523966D01*
X764487Y-2523966D01*
X764487Y-2523966D01*
X764487Y-2523967D01*
X764487Y-2523967D01*
X764487Y-2523967D01*
X764487Y-2523967D01*
X764487Y-2523967D01*
X764487Y-2523968D01*
X764487Y-2523968D01*
X764487Y-2523968D01*
X764488Y-2523968D01*
X764488Y-2523968D01*
X764488Y-2523968D01*
X764488Y-2523969D01*
X764488Y-2523969D01*
X741698Y-2454869D02*
X741698Y-2454869D01*
X741699Y-2454870D01*
X741700Y-2454871D01*
X741700Y-2454871D01*
X741701Y-2454872D01*
X741702Y-2454872D01*
X741702Y-2454873D01*
X741703Y-2454873D01*
X741704Y-2454874D01*
X741705Y-2454874D01*
X741705Y-2454875D01*
X741706Y-2454876D01*
X741707Y-2454876D01*
X741708Y-2454877D01*
X741708Y-2454877D01*
X741709Y-2454878D01*
X741710Y-2454878D01*
X741711Y-2454879D01*
X741712Y-2454880D01*
X741712Y-2454880D01*
X741713Y-2454881D01*
X741714Y-2454881D01*
X741715Y-2454882D01*
X741715Y-2454882D01*
X764476Y-2521789D02*
X765382Y-2524116D01*
X766287Y-2524432D01*
X778649Y-2521789D02*
X779531Y-2523795D01*
X781670Y-2524432D01*
X764480Y-2523951D02*
Y-2523951D01*
Y-2523951D02*
X764480Y-2523951D01*
Y-2523951D02*
Y-2523951D01*
Y-2523951D02*
X764480Y-2523952D01*
X764480Y-2523952D01*
Y-2523952D02*
Y-2523952D01*
Y-2523952D02*
X764480Y-2523952D01*
X764481Y-2523952D01*
Y-2523952D02*
Y-2523952D01*
Y-2523952D02*
X764481Y-2523953D01*
Y-2523953D02*
Y-2523953D01*
Y-2523953D02*
X764481Y-2523953D01*
X764481Y-2523953D01*
Y-2523953D02*
Y-2523953D01*
Y-2523953D02*
X764481Y-2523954D01*
X764481Y-2523954D01*
Y-2523954D02*
Y-2523954D01*
Y-2523954D02*
X764481Y-2523954D01*
X764481Y-2523954D01*
Y-2523954D02*
Y-2523954D01*
Y-2523954D02*
X764481Y-2523955D01*
X764481Y-2523955D01*
Y-2523955D02*
Y-2523955D01*
Y-2523955D02*
X764481Y-2523955D01*
X764482Y-2523955D01*
Y-2523956D02*
Y-2523955D01*
Y-2523956D02*
X764482Y-2523956D01*
X764482Y-2523956D01*
Y-2523956D02*
Y-2523956D01*
Y-2523956D02*
X764482Y-2523956D01*
X764482Y-2523956D01*
X764482Y-2523957D01*
Y-2523957D02*
Y-2523957D01*
Y-2523957D02*
X764482Y-2523957D01*
X764482Y-2523957D01*
X764482Y-2523957D01*
X741662Y-2454834D02*
X741663Y-2454834D01*
X741663Y-2454835D01*
X741663Y-2454835D01*
X741664Y-2454836D01*
X741664Y-2454836D01*
X741665Y-2454837D01*
X741665Y-2454837D01*
X741666Y-2454838D01*
X741666Y-2454838D01*
X741667Y-2454839D01*
X741667Y-2454840D01*
X741667Y-2454840D01*
X741668Y-2454841D01*
X741668Y-2454841D01*
X741669Y-2454842D01*
X741669Y-2454842D01*
X741670Y-2454843D01*
X741670Y-2454843D01*
X741671Y-2454844D01*
X741671Y-2454845D01*
X741672Y-2454845D01*
X741672Y-2454846D01*
X741673Y-2454846D01*
X741673Y-2454847D01*
X741674Y-2454847D01*
X741674Y-2454848D01*
X741675Y-2454849D01*
X741676Y-2454849D01*
X741676Y-2454850D01*
X741677Y-2454850D01*
X741677Y-2454851D01*
X741678Y-2454851D01*
X741678Y-2454852D01*
X741679Y-2454852D01*
X741679Y-2454853D01*
X741680Y-2454853D01*
X741681Y-2454854D01*
X741681Y-2454855D01*
X741682Y-2454855D01*
X741682Y-2454856D01*
X741683Y-2454856D01*
X741683Y-2454857D01*
X741684Y-2454857D01*
X741685Y-2454858D01*
X741685Y-2454858D01*
X741686Y-2454859D01*
X741687Y-2454860D01*
X741687Y-2454860D01*
X741688Y-2454861D01*
X741688Y-2454861D01*
X741689Y-2454862D01*
X741690Y-2454862D01*
X741690Y-2454863D01*
X741691Y-2454863D01*
X741692Y-2454864D01*
X741692Y-2454865D01*
X741693Y-2454865D01*
X741693Y-2454866D01*
X741694Y-2454866D01*
X741695Y-2454867D01*
X741696Y-2454867D01*
X741696Y-2454868D01*
X741697Y-2454868D01*
X741698Y-2454869D01*
X741682Y-2528287D02*
X741682Y-2528286D01*
X741681Y-2528287D02*
X741682Y-2528287D01*
X741681Y-2528288D02*
X741681Y-2528287D01*
X741680Y-2528288D02*
X741681Y-2528288D01*
X741679Y-2528289D02*
X741680Y-2528288D01*
X741679Y-2528289D02*
X741679Y-2528289D01*
X741678Y-2528290D02*
X741679Y-2528289D01*
X741678Y-2528291D02*
X741678Y-2528290D01*
X741677Y-2528291D02*
X741678Y-2528291D01*
X741677Y-2528292D02*
X741677Y-2528291D01*
X741676Y-2528292D02*
X741677Y-2528292D01*
X741676Y-2528293D02*
X741676Y-2528292D01*
X741675Y-2528293D02*
X741676Y-2528293D01*
X741674Y-2528294D02*
X741675Y-2528293D01*
X741674Y-2528294D02*
X741674Y-2528294D01*
X741673Y-2528295D02*
X741674Y-2528294D01*
X741673Y-2528296D02*
X741673Y-2528295D01*
X741672Y-2528296D02*
X741673Y-2528296D01*
X741672Y-2528297D02*
X741672Y-2528296D01*
X741671Y-2528297D02*
X741672Y-2528297D01*
X741671Y-2528298D02*
X741671Y-2528297D01*
X741670Y-2528298D02*
X741671Y-2528298D01*
X741670Y-2528299D02*
X741670Y-2528298D01*
X741669Y-2528299D02*
X741670Y-2528299D01*
X741669Y-2528300D02*
X741669Y-2528299D01*
X741668Y-2528300D02*
X741669Y-2528300D01*
X741668Y-2528301D02*
X741668Y-2528300D01*
X741667Y-2528302D02*
X741668Y-2528301D01*
X741667Y-2528302D02*
X741667Y-2528302D01*
X741667Y-2528303D02*
X741667Y-2528302D01*
X741666Y-2528303D02*
X741667Y-2528303D01*
X741666Y-2528304D02*
X741666Y-2528303D01*
X741665Y-2528304D02*
X741666Y-2528304D01*
X741665Y-2528305D02*
X741665Y-2528304D01*
X741664Y-2528305D02*
X741665Y-2528305D01*
X741664Y-2528306D02*
X741664Y-2528305D01*
X741663Y-2528307D02*
X741664Y-2528306D01*
X741663Y-2528307D02*
X741663Y-2528307D01*
X741663Y-2528308D02*
X741663Y-2528307D01*
X741662Y-2528308D02*
X741663Y-2528308D01*
X741662Y-2528309D02*
X741662Y-2528308D01*
X741661Y-2528309D02*
X741662Y-2528309D01*
X741661Y-2528310D02*
X741661Y-2528309D01*
X741660Y-2528310D02*
X741661Y-2528310D01*
X741660Y-2528311D02*
X741660Y-2528310D01*
X741660Y-2528311D02*
X741660Y-2528311D01*
X741659Y-2528312D02*
X741660Y-2528311D01*
X741659Y-2528313D02*
X741659Y-2528312D01*
X741659Y-2528313D02*
X741659Y-2528313D01*
X741658Y-2528314D02*
X741659Y-2528313D01*
X741658Y-2528314D02*
X741658Y-2528314D01*
X741657Y-2528315D02*
X741658Y-2528314D01*
X741657Y-2454827D02*
X741658Y-2454827D01*
X741658Y-2454828D01*
X741659Y-2454829D01*
X741659Y-2454829D01*
X741659Y-2454830D01*
X741660Y-2454830D01*
X741660Y-2454831D01*
X741660Y-2454831D01*
X741661Y-2454832D01*
X741661Y-2454832D01*
X741662Y-2454833D01*
X741662Y-2454834D01*
X457783Y-2378972D02*
X481405D01*
Y-2312043D02*
Y-2300232D01*
X457783Y-2312043D02*
X481405D01*
X457783D02*
Y-2300232D01*
X481405D01*
X579831Y-2390784D02*
Y-2378972D01*
X556208Y-2390784D02*
X579831D01*
X556208D02*
Y-2378972D01*
X579831D01*
Y-2312043D02*
Y-2300232D01*
X556208Y-2312043D02*
X579831D01*
X556208D02*
Y-2300232D01*
X579831D01*
X741248Y-2797870D02*
Y-2793933D01*
X696760D02*
X739673D01*
X741642Y-2797870D02*
Y-2793933D01*
X741715Y-2528260D02*
X741715Y-2528260D01*
X741714Y-2528261D02*
X741715Y-2528260D01*
X741713Y-2528261D02*
X741714Y-2528261D01*
X741712Y-2528262D02*
X741713Y-2528261D01*
X741712Y-2528262D02*
X741712Y-2528262D01*
X741711Y-2528263D02*
X741712Y-2528262D01*
X741710Y-2528263D02*
X741711Y-2528263D01*
X741709Y-2528264D02*
X741710Y-2528263D01*
X741708Y-2528265D02*
X741709Y-2528264D01*
X741708Y-2528265D02*
X741708Y-2528265D01*
X741707Y-2528266D02*
X741708Y-2528265D01*
X741706Y-2528266D02*
X741707Y-2528266D01*
X741705Y-2528267D02*
X741706Y-2528266D01*
X741705Y-2528267D02*
X741705Y-2528267D01*
X741704Y-2528268D02*
X741705Y-2528267D01*
X741703Y-2528268D02*
X741704Y-2528268D01*
X741702Y-2528269D02*
X741703Y-2528268D01*
X741702Y-2528269D02*
X741702Y-2528269D01*
X741701Y-2528270D02*
X741702Y-2528269D01*
X741700Y-2528271D02*
X741701Y-2528270D01*
X741700Y-2528271D02*
X741700Y-2528271D01*
X741699Y-2528272D02*
X741700Y-2528271D01*
X741698Y-2528272D02*
X741699Y-2528272D01*
X741698Y-2528273D02*
X741698Y-2528272D01*
X741697Y-2528273D02*
X741698Y-2528273D01*
X741696Y-2528274D02*
X741697Y-2528273D01*
X741696Y-2528274D02*
X741696Y-2528274D01*
X741695Y-2528275D02*
X741696Y-2528274D01*
X741694Y-2528276D02*
X741695Y-2528275D01*
X741693Y-2528276D02*
X741694Y-2528276D01*
X741693Y-2528277D02*
X741693Y-2528276D01*
X741692Y-2528277D02*
X741693Y-2528277D01*
X741692Y-2528278D02*
X741692Y-2528277D01*
X741691Y-2528278D02*
X741692Y-2528278D01*
X741690Y-2528279D02*
X741691Y-2528278D01*
X741690Y-2528279D02*
X741690Y-2528279D01*
X741689Y-2528280D02*
X741690Y-2528279D01*
X741688Y-2528280D02*
X741689Y-2528280D01*
X741688Y-2528281D02*
X741688Y-2528280D01*
X741687Y-2528282D02*
X741688Y-2528281D01*
X741687Y-2528282D02*
X741687Y-2528282D01*
X741686Y-2528283D02*
X741687Y-2528282D01*
X741685Y-2528283D02*
X741686Y-2528283D01*
X741685Y-2528284D02*
X741685Y-2528283D01*
X741684Y-2528284D02*
X741685Y-2528284D01*
X741683Y-2528285D02*
X741684Y-2528284D01*
X741683Y-2528285D02*
X741683Y-2528285D01*
X741682Y-2528286D02*
X741683Y-2528285D01*
X295926Y-2454861D02*
X295927Y-2454860D01*
X295928Y-2454860D01*
X295928Y-2454859D01*
X295929Y-2454858D01*
X295929Y-2454858D01*
X295930Y-2454857D01*
X295930Y-2454857D01*
X295931Y-2454856D01*
X295932Y-2454856D01*
X295932Y-2454855D01*
X295933Y-2454855D01*
X295933Y-2454854D01*
X295934Y-2454853D01*
X295935Y-2454853D01*
X295935Y-2454852D01*
X295936Y-2454852D01*
X295936Y-2454851D01*
X295937Y-2454851D01*
X295937Y-2454850D01*
X295938Y-2454850D01*
X295938Y-2454849D01*
X295939Y-2454849D01*
X295940Y-2454848D01*
X295940Y-2454847D01*
X295941Y-2454847D01*
X295941Y-2454846D01*
X295942Y-2454846D01*
X295942Y-2454845D01*
X295943Y-2454845D01*
X295943Y-2454844D01*
X295944Y-2454843D01*
X295944Y-2454843D01*
X295945Y-2454842D01*
X295945Y-2454842D01*
X295946Y-2454841D01*
X295946Y-2454841D01*
X295947Y-2454840D01*
X295947Y-2454840D01*
X295947Y-2454839D01*
X295948Y-2454838D01*
X295948Y-2454838D01*
X295949Y-2454837D01*
X295949Y-2454837D01*
X295950Y-2454836D01*
X295950Y-2454836D01*
X295951Y-2454835D01*
X295951Y-2454835D01*
X295951Y-2454834D01*
X295952Y-2454834D01*
X295952Y-2454833D01*
X295953Y-2454832D01*
X295953Y-2454832D01*
X295954Y-2454831D01*
X295954Y-2454831D01*
X295954Y-2454830D01*
X295955Y-2454830D01*
X295955Y-2454829D01*
X295955Y-2454829D01*
X295956Y-2454828D01*
X295956Y-2454827D01*
X295957Y-2454827D01*
X481405Y-2390784D02*
Y-2378972D01*
X457783Y-2390784D02*
X481405D01*
X457783D02*
Y-2378972D01*
X295916Y-2528273D02*
X295917Y-2528273D01*
X295916Y-2528272D02*
X295916Y-2528273D01*
X295915Y-2528272D02*
X295916Y-2528272D01*
X295914Y-2528271D02*
X295915Y-2528272D01*
X295914Y-2528271D02*
X295914Y-2528271D01*
X295913Y-2528270D02*
X295914Y-2528271D01*
X295912Y-2528269D02*
X295913Y-2528270D01*
X295911Y-2528269D02*
X295912Y-2528269D01*
X295911Y-2528268D02*
X295911Y-2528269D01*
X295910Y-2528268D02*
X295911Y-2528268D01*
X295909Y-2528267D02*
X295910Y-2528268D01*
X295909Y-2528267D02*
X295909Y-2528267D01*
X295908Y-2528266D02*
X295909Y-2528267D01*
X295907Y-2528266D02*
X295908Y-2528266D01*
X295906Y-2528265D02*
X295907Y-2528266D01*
X295906Y-2528265D02*
X295906Y-2528265D01*
X295905Y-2528264D02*
X295906Y-2528265D01*
X295904Y-2528263D02*
X295905Y-2528264D01*
X295903Y-2528263D02*
X295904Y-2528263D01*
X295902Y-2528262D02*
X295903Y-2528263D01*
X295902Y-2528262D02*
X295902Y-2528262D01*
X295901Y-2528261D02*
X295902Y-2528262D01*
X295900Y-2528261D02*
X295901Y-2528261D01*
X295899Y-2528260D02*
X295900Y-2528261D01*
X295899Y-2528260D02*
X295899Y-2528260D01*
X295899Y-2454882D02*
X295899Y-2454882D01*
X295900Y-2454881D01*
X295901Y-2454881D01*
X295902Y-2454880D01*
X295902Y-2454880D01*
X295903Y-2454879D01*
X295904Y-2454878D01*
X295905Y-2454878D01*
X295906Y-2454877D01*
X295906Y-2454877D01*
X295907Y-2454876D01*
X295908Y-2454876D01*
X295909Y-2454875D01*
X295909Y-2454874D01*
X295910Y-2454874D01*
X295911Y-2454873D01*
X295911Y-2454873D01*
X295912Y-2454872D01*
X295913Y-2454872D01*
X295914Y-2454871D01*
X295914Y-2454871D01*
X295915Y-2454870D01*
X295916Y-2454869D01*
X295916Y-2454869D01*
X295917Y-2454868D01*
X295918Y-2454868D01*
X295918Y-2454867D01*
X295919Y-2454867D01*
X295920Y-2454866D01*
X295920Y-2454866D01*
X295921Y-2454865D01*
X295922Y-2454865D01*
X295922Y-2454864D01*
X295923Y-2454863D01*
X295924Y-2454863D01*
X295924Y-2454862D01*
X295925Y-2454862D01*
X295926Y-2454861D01*
X295926Y-2454861D01*
X295941Y-2528296D02*
X295942Y-2528296D01*
X295941Y-2528295D02*
X295941Y-2528296D01*
X295940Y-2528294D02*
X295941Y-2528295D01*
X295940Y-2528294D02*
X295940Y-2528294D01*
X295939Y-2528293D02*
X295940Y-2528294D01*
X295938Y-2528293D02*
X295939Y-2528293D01*
X295938Y-2528292D02*
X295938Y-2528293D01*
X295937Y-2528292D02*
X295938Y-2528292D01*
X295937Y-2528291D02*
X295937Y-2528292D01*
X295936Y-2528291D02*
X295937Y-2528291D01*
X295936Y-2528290D02*
X295936Y-2528291D01*
X295935Y-2528289D02*
X295936Y-2528290D01*
X295935Y-2528289D02*
X295935Y-2528289D01*
X295934Y-2528288D02*
X295935Y-2528289D01*
X295933Y-2528288D02*
X295934Y-2528288D01*
X295933Y-2528287D02*
X295933Y-2528288D01*
X295932Y-2528287D02*
X295933Y-2528287D01*
X295932Y-2528286D02*
X295932Y-2528287D01*
X295931Y-2528285D02*
X295932Y-2528286D01*
X295930Y-2528285D02*
X295931Y-2528285D01*
X295930Y-2528284D02*
X295930Y-2528285D01*
X295929Y-2528284D02*
X295930Y-2528284D01*
X295929Y-2528283D02*
X295929Y-2528284D01*
X295928Y-2528283D02*
X295929Y-2528283D01*
X295928Y-2528282D02*
X295928Y-2528283D01*
X295927Y-2528282D02*
X295928Y-2528282D01*
X295926Y-2528281D02*
X295927Y-2528282D01*
X295926Y-2528280D02*
X295926Y-2528281D01*
X295925Y-2528280D02*
X295926Y-2528280D01*
X295924Y-2528279D02*
X295925Y-2528280D01*
X295924Y-2528279D02*
X295924Y-2528279D01*
X295923Y-2528278D02*
X295924Y-2528279D01*
X295922Y-2528278D02*
X295923Y-2528278D01*
X295922Y-2528277D02*
X295922Y-2528278D01*
X295921Y-2528277D02*
X295922Y-2528277D01*
X295920Y-2528276D02*
X295921Y-2528277D01*
X295920Y-2528276D02*
X295920Y-2528276D01*
X295919Y-2528275D02*
X295920Y-2528276D01*
X295918Y-2528274D02*
X295919Y-2528275D01*
X295918Y-2528274D02*
X295918Y-2528274D01*
X295917Y-2528273D02*
X295918Y-2528274D01*
X-1767668Y-1117205D02*
Y-1077218D01*
X-1787661Y-1097211D02*
X-1747674D01*
X-1797658Y-1057224D02*
X-1757671D01*
X-1737677Y-1037231D01*
X-1757671Y-1017237D01*
X-1797658D01*
Y-997244D02*
Y-977250D01*
Y-987247D01*
X-1737677D01*
Y-997244D01*
Y-977250D01*
Y-947260D02*
X-1797658D01*
X-1737677Y-907273D01*
X-1797658D01*
X-1181362Y-1061470D02*
X-1191359Y-1071466D01*
Y-1091460D01*
X-1181362Y-1101457D01*
X-1141375D01*
X-1131378Y-1091460D01*
Y-1071466D01*
X-1141375Y-1061470D01*
X-1161368D01*
Y-1081463D01*
X-1131378Y-1041476D02*
X-1191359D01*
X-1131378Y-1001489D01*
X-1191359D01*
Y-981495D02*
X-1131378D01*
Y-951505D01*
X-1141375Y-941508D01*
X-1181362D01*
X-1191359Y-951505D01*
Y-981495D01*
X-1197110Y111759D02*
X-1207107Y101762D01*
Y81769D01*
X-1197110Y71772D01*
X-1157123D01*
X-1147126Y81769D01*
Y101762D01*
X-1157123Y111759D01*
X-1177116D01*
Y91765D01*
X-1147126Y131752D02*
X-1207107D01*
X-1147126Y171739D01*
X-1207107D01*
Y191733D02*
X-1147126D01*
Y221723D01*
X-1157123Y231720D01*
X-1197110D01*
X-1207107Y221723D01*
Y191733D01*
X-1783416Y56024D02*
Y96011D01*
X-1803409Y76017D02*
X-1763422D01*
X-1813406Y116004D02*
X-1773419D01*
X-1753425Y135998D01*
X-1773419Y155991D01*
X-1813406D01*
Y205975D02*
Y185982D01*
X-1803409Y175985D01*
X-1763422D01*
X-1753425Y185982D01*
Y205975D01*
X-1763422Y215972D01*
X-1803409D01*
X-1813406Y205975D01*
Y235965D02*
X-1763422D01*
X-1753425Y245962D01*
Y265956D01*
X-1763422Y275953D01*
X-1813406D01*
Y295946D02*
Y335933D01*
Y315940D01*
X-1753425D01*
X-1579189Y-1216413D02*
Y-1276394D01*
X-1549199D01*
X-1539202Y-1266397D01*
Y-1226410D01*
X-1549199Y-1216413D01*
X-1579189D01*
X-1519208Y-1226410D02*
X-1509212Y-1216413D01*
X-1489218D01*
X-1479221Y-1226410D01*
Y-1236407D01*
X-1489218Y-1246403D01*
X-1499215D01*
X-1489218D01*
X-1479221Y-1256400D01*
Y-1266397D01*
X-1489218Y-1276394D01*
X-1509212D01*
X-1519208Y-1266397D01*
X1155811Y1674587D02*
Y1624603D01*
X1165808Y1614606D01*
X1185801D01*
X1195798Y1624603D01*
Y1674587D01*
X1215792Y1664590D02*
X1225788Y1674587D01*
X1245782D01*
X1255779Y1664590D01*
Y1654593D01*
X1245782Y1644597D01*
X1235785D01*
X1245782D01*
X1255779Y1634600D01*
Y1624603D01*
X1245782Y1614606D01*
X1225788D01*
X1215792Y1624603D01*
X-1881189Y539587D02*
Y489603D01*
X-1871192Y479606D01*
X-1851199D01*
X-1841202Y489603D01*
Y539587D01*
X-1821208Y479606D02*
X-1801215D01*
X-1811212D01*
Y539587D01*
X-1821208Y529590D01*
X-1103189Y1164606D02*
Y1224587D01*
X-1073199D01*
X-1063202Y1214590D01*
Y1194597D01*
X-1073199Y1184600D01*
X-1103189D01*
X-1083196D02*
X-1063202Y1164606D01*
X-1043208Y1214590D02*
X-1033212Y1224587D01*
X-1013218D01*
X-1003221Y1214590D01*
Y1204593D01*
X-1013218Y1194597D01*
X-1023215D01*
X-1013218D01*
X-1003221Y1184600D01*
Y1174603D01*
X-1013218Y1164606D01*
X-1033212D01*
X-1043208Y1174603D01*
X-1223189Y1169606D02*
Y1229587D01*
X-1193199D01*
X-1183202Y1219590D01*
Y1199597D01*
X-1193199Y1189600D01*
X-1223189D01*
X-1203196D02*
X-1183202Y1169606D01*
X-1123221D02*
X-1163208D01*
X-1123221Y1209593D01*
Y1219590D01*
X-1133218Y1229587D01*
X-1153212D01*
X-1163208Y1219590D01*
X-1595189Y620606D02*
Y680587D01*
X-1565199D01*
X-1555202Y670590D01*
Y650597D01*
X-1565199Y640600D01*
X-1595189D01*
X-1575196D02*
X-1555202Y620606D01*
X-1535208D02*
X-1515215D01*
X-1525212D01*
Y680587D01*
X-1535208Y670590D01*
X-1880202Y781603D02*
Y821590D01*
X-1890199Y831587D01*
X-1910192D01*
X-1920189Y821590D01*
Y781603D01*
X-1910192Y771606D01*
X-1890199D01*
X-1900196Y791600D02*
X-1880202Y771606D01*
X-1890199D02*
X-1880202Y781603D01*
X-1860208Y771606D02*
X-1840215D01*
X-1850212D01*
Y831587D01*
X-1860208Y821590D01*
X-1746189Y1322587D02*
Y1262606D01*
X-1706202D01*
X-1646221Y1312590D02*
X-1656218Y1322587D01*
X-1676212D01*
X-1686208Y1312590D01*
Y1302593D01*
X-1676212Y1292597D01*
X-1656218D01*
X-1646221Y1282600D01*
Y1272603D01*
X-1656218Y1262606D01*
X-1676212D01*
X-1686208Y1272603D01*
X-1626228Y1262606D02*
X-1606234D01*
X-1616231D01*
Y1322587D01*
X-1626228Y1312590D01*
X1272798Y710587D02*
X1252804D01*
X1262801D01*
Y660603D01*
X1252804Y650606D01*
X1242808D01*
X1232811Y660603D01*
X1292792Y650606D02*
X1312785D01*
X1302788D01*
Y710587D01*
X1292792Y700590D01*
X1342775D02*
X1352772Y710587D01*
X1372766D01*
X1382763Y700590D01*
Y690593D01*
X1372766Y680597D01*
X1362769D01*
X1372766D01*
X1382763Y670600D01*
Y660603D01*
X1372766Y650606D01*
X1352772D01*
X1342775Y660603D01*
X590798Y2087587D02*
X570804D01*
X580801D01*
Y2037603D01*
X570804Y2027606D01*
X560808D01*
X550811Y2037603D01*
X610792Y2027606D02*
X630785D01*
X620788D01*
Y2087587D01*
X610792Y2077590D01*
X660775Y2027606D02*
X680769D01*
X670772D01*
Y2087587D01*
X660775Y2077590D01*
X-1002202Y1889587D02*
X-1022196D01*
X-1012199D01*
Y1839603D01*
X-1022196Y1829606D01*
X-1032192D01*
X-1042189Y1839603D01*
X-982208Y1829606D02*
X-962215D01*
X-972212D01*
Y1889587D01*
X-982208Y1879590D01*
X-932225D02*
X-922228Y1889587D01*
X-902234D01*
X-892237Y1879590D01*
Y1839603D01*
X-902234Y1829606D01*
X-922228D01*
X-932225Y1839603D01*
Y1879590D01*
X1193798Y330587D02*
X1173804D01*
X1183801D01*
Y280603D01*
X1173804Y270606D01*
X1163808D01*
X1153811Y280603D01*
X1213792Y320590D02*
X1223788Y330587D01*
X1243782D01*
X1253779Y320590D01*
Y310593D01*
X1243782Y300597D01*
X1253779Y290600D01*
Y280603D01*
X1243782Y270606D01*
X1223788D01*
X1213792Y280603D01*
Y290600D01*
X1223788Y300597D01*
X1213792Y310593D01*
Y320590D01*
X1223788Y300597D02*
X1243782D01*
X27798Y1889587D02*
X7804D01*
X17801D01*
Y1839603D01*
X7804Y1829606D01*
X-2192D01*
X-12189Y1839603D01*
X47792Y1889587D02*
X87779D01*
Y1879590D01*
X47792Y1839603D01*
Y1829606D01*
X1193798Y-726413D02*
X1173804D01*
X1183801D01*
Y-776397D01*
X1173804Y-786394D01*
X1163808D01*
X1153811Y-776397D01*
X1253779Y-726413D02*
X1233785Y-736410D01*
X1213792Y-756403D01*
Y-776397D01*
X1223788Y-786394D01*
X1243782D01*
X1253779Y-776397D01*
Y-766400D01*
X1243782Y-756403D01*
X1213792D01*
X1269798Y-179413D02*
X1249804D01*
X1259801D01*
Y-229397D01*
X1249804Y-239394D01*
X1239808D01*
X1229811Y-229397D01*
X1329779Y-179413D02*
X1289792D01*
Y-209403D01*
X1309785Y-199407D01*
X1319782D01*
X1329779Y-209403D01*
Y-229397D01*
X1319782Y-239394D01*
X1299788D01*
X1289792Y-229397D01*
X-470202Y1889587D02*
X-490195D01*
X-480199D01*
Y1839603D01*
X-490195Y1829606D01*
X-500192D01*
X-510189Y1839603D01*
X-420218Y1829606D02*
Y1889587D01*
X-450208Y1859597D01*
X-410221D01*
X1269798Y-1229413D02*
X1249804D01*
X1259801D01*
Y-1279397D01*
X1249804Y-1289394D01*
X1239808D01*
X1229811Y-1279397D01*
X1289792Y-1239410D02*
X1299788Y-1229413D01*
X1319782D01*
X1329779Y-1239410D01*
Y-1249407D01*
X1319782Y-1259403D01*
X1309785D01*
X1319782D01*
X1329779Y-1269400D01*
Y-1279397D01*
X1319782Y-1289394D01*
X1299788D01*
X1289792Y-1279397D01*
X-1495202Y1889587D02*
X-1515196D01*
X-1505199D01*
Y1839603D01*
X-1515196Y1829606D01*
X-1525192D01*
X-1535189Y1839603D01*
X-1435221Y1829606D02*
X-1475208D01*
X-1435221Y1869593D01*
Y1879590D01*
X-1445218Y1889587D01*
X-1465212D01*
X-1475208Y1879590D01*
X-1885202Y-1187413D02*
X-1905196D01*
X-1895199D01*
Y-1237397D01*
X-1905196Y-1247394D01*
X-1915192D01*
X-1925189Y-1237397D01*
X-1865208Y-1247394D02*
X-1845215D01*
X-1855212D01*
Y-1187413D01*
X-1865208Y-1197410D01*
X-1144189Y1550587D02*
Y1490606D01*
X-1114199D01*
X-1104202Y1500603D01*
Y1540590D01*
X-1114199Y1550587D01*
X-1144189D01*
X-1044221Y1490606D02*
X-1084208D01*
X-1044221Y1530593D01*
Y1540590D01*
X-1054218Y1550587D01*
X-1074212D01*
X-1084208Y1540590D01*
X-1309189Y1555587D02*
Y1495606D01*
X-1279199D01*
X-1269202Y1505603D01*
Y1545590D01*
X-1279199Y1555587D01*
X-1309189D01*
X-1249208Y1495606D02*
X-1229215D01*
X-1239212D01*
Y1555587D01*
X-1249208Y1545590D01*
X-1854202Y1564590D02*
X-1864199Y1574587D01*
X-1884192D01*
X-1894189Y1564590D01*
Y1524603D01*
X-1884192Y1514606D01*
X-1864199D01*
X-1854202Y1524603D01*
X-1794221Y1514606D02*
X-1834208D01*
X-1794221Y1554593D01*
Y1564590D01*
X-1804218Y1574587D01*
X-1824212D01*
X-1834208Y1564590D01*
X-1409202Y-1244410D02*
X-1419199Y-1234413D01*
X-1439192D01*
X-1449189Y-1244410D01*
Y-1284397D01*
X-1439192Y-1294394D01*
X-1419199D01*
X-1409202Y-1284397D01*
X-1389208Y-1294394D02*
X-1369215D01*
X-1379212D01*
Y-1234413D01*
X-1389208Y-1244410D01*
D39*
X-1311063Y1324331D02*
X-1216575D01*
Y1458189D01*
X-1146063Y1319331D02*
X-1051575D01*
Y1453189D01*
D40*
X-1249291Y539370D02*
X-1209291D01*
X-1529291D02*
X-1489291D01*
Y499370D02*
X-1249291D01*
Y579370D01*
X-1489291D02*
X-1249291D01*
X-1489291Y499370D02*
Y579370D01*
X-1181575Y1024331D02*
Y1064331D01*
Y744331D02*
Y784331D01*
X-1141575D02*
Y1024331D01*
X-1221575D02*
X-1141575D01*
X-1221575Y784331D02*
Y1024331D01*
Y784331D02*
X-1141575D01*
X-1061575Y1019331D02*
Y1059331D01*
Y739331D02*
Y779331D01*
X-1021575D02*
Y1019331D01*
X-1101575D02*
X-1021575D01*
X-1101575Y779331D02*
Y1019331D01*
Y779331D02*
X-1021575D01*
X-1583189Y-1415394D02*
X-1483189D01*
X-1583189Y-1675394D02*
Y-1415394D01*
Y-1675394D02*
X-1483189D01*
Y-1415394D01*
X-1583189Y-1625394D02*
X-1483189D01*
X-1533189Y-1415394D02*
Y-1385394D01*
Y-1705394D02*
Y-1675394D01*
D41*
X-978740Y-2643307D02*
X1121260D01*
Y1156693D01*
X1021260Y1256693D02*
X1121260Y1156693D01*
X621260Y1256693D02*
X1021260D01*
X521260Y1356693D02*
X621260Y1256693D01*
X-828740Y1356693D02*
X521260D01*
X-928740Y1256693D02*
X-828740Y1356693D01*
X-978740Y1256693D02*
X-928740D01*
X-978740Y-2643307D02*
Y1256693D01*
X941260Y-1703307D02*
X931835Y-1693882D01*
X922410D01*
Y-1703307D01*
X931835Y-1712732D01*
X924766Y-1705663D01*
X934191Y-1696238D01*
X927122Y-1717445D02*
X912985Y-1703307D01*
X905916Y-1710376D01*
Y-1715088D01*
X910628Y-1719801D01*
X915341D01*
X922410Y-1712732D01*
X917697Y-1717445D02*
Y-1726870D01*
X889422D02*
X898847Y-1717445D01*
X912985Y-1731582D01*
X903560Y-1741007D01*
X905916Y-1724513D02*
X901203Y-1729226D01*
X875285Y-1741007D02*
X884710Y-1731582D01*
X891778Y-1738651D01*
X887066Y-1743363D01*
X891778Y-1738651D01*
X898847Y-1745720D01*
X920053Y-1600951D02*
Y-1596238D01*
X924766Y-1591526D01*
X929479Y-1591526D01*
X938904Y-1600951D01*
Y-1605663D01*
X934191Y-1610376D01*
X929479Y-1610376D01*
X924766Y-1605663D01*
X929479Y-1600951D01*
X927122Y-1617445D02*
X912985Y-1603307D01*
X917697Y-1626870D01*
X903560Y-1612732D01*
X898847Y-1617445D02*
X912985Y-1631582D01*
X905916Y-1638651D01*
X901203Y-1638651D01*
X891778Y-1629226D01*
Y-1624513D01*
X898847Y-1617445D01*
X941260Y-1503307D02*
X927122Y-1489170D01*
X920053Y-1496238D01*
Y-1500951D01*
X924766Y-1505663D01*
X929479Y-1505663D01*
X936547Y-1498595D01*
X912985Y-1503307D02*
X927122Y-1517445D01*
X917697D01*
Y-1526870D01*
X903560Y-1512732D01*
X912985Y-1531582D02*
X898847Y-1517445D01*
Y-1526870D01*
X889422D01*
X903560Y-1541007D01*
X898847Y-1545720D02*
X894135Y-1550432D01*
X896491Y-1548076D01*
X882353Y-1533938D01*
X887066Y-1533938D01*
X875284Y-1545720D02*
X870572Y-1545720D01*
X865860Y-1550432D01*
Y-1555145D01*
X868216Y-1557501D01*
X872928D01*
X875284Y-1555145D01*
X872928Y-1557501D01*
Y-1562214D01*
X875284Y-1564570D01*
X879997D01*
X884710Y-1559857D01*
Y-1555145D01*
X941260Y-1403307D02*
X927122Y-1389170D01*
X920053Y-1396238D01*
Y-1400951D01*
X924766Y-1405663D01*
X929479Y-1405663D01*
X936547Y-1398595D01*
X912985Y-1403307D02*
X927122Y-1417445D01*
X917697D01*
Y-1426870D01*
X903560Y-1412732D01*
X912985Y-1431582D02*
X898847Y-1417445D01*
Y-1426870D01*
X889422D01*
X903560Y-1441007D01*
X898847Y-1445720D02*
X894135Y-1450432D01*
X896491Y-1448076D01*
X882353Y-1433938D01*
X887066Y-1433938D01*
X877641Y-1466926D02*
X887066Y-1457501D01*
X868216D01*
X865860Y-1455145D01*
Y-1450432D01*
X870572Y-1445720D01*
X875284Y-1445720D01*
X941260Y-1303307D02*
X927122Y-1289170D01*
X920053Y-1296238D01*
Y-1300951D01*
X924766Y-1305663D01*
X929479Y-1305663D01*
X936547Y-1298595D01*
X912985Y-1303307D02*
X927122Y-1317445D01*
X917697D01*
Y-1326870D01*
X903560Y-1312732D01*
X912985Y-1331582D02*
X898847Y-1317445D01*
Y-1326870D01*
X889422D01*
X903560Y-1341007D01*
X898847Y-1345720D02*
X894135Y-1350432D01*
X896491Y-1348076D01*
X882353Y-1333938D01*
X887066Y-1333938D01*
Y-1357501D02*
X882353Y-1362214D01*
X884710Y-1359857D01*
X870572Y-1345720D01*
X875284Y-1345720D01*
X941260Y-1203307D02*
X927122Y-1189170D01*
X920053Y-1196238D01*
Y-1200951D01*
X924766Y-1205663D01*
X929479Y-1205663D01*
X936547Y-1198595D01*
X912985Y-1203307D02*
X927122Y-1217445D01*
X917697D01*
Y-1226870D01*
X903560Y-1212732D01*
X912985Y-1231582D02*
X898847Y-1217445D01*
Y-1226870D01*
X889422D01*
X903560Y-1241007D01*
X898847Y-1245720D02*
X894135Y-1250432D01*
X896491Y-1248076D01*
X882353Y-1233938D01*
X887066Y-1233938D01*
X875284Y-1245720D02*
X870572Y-1245720D01*
X865860Y-1250432D01*
Y-1255145D01*
X875284Y-1264570D01*
X879997D01*
X884710Y-1259857D01*
Y-1255145D01*
X875284Y-1245720D01*
X941260Y-1103307D02*
X927122Y-1089170D01*
X920053Y-1096238D01*
Y-1100951D01*
X924766Y-1105663D01*
X929479Y-1105663D01*
X936547Y-1098595D01*
X912985Y-1103307D02*
X927122Y-1117445D01*
X917697D01*
Y-1126870D01*
X903560Y-1112732D01*
X912985Y-1131582D02*
X898847Y-1117445D01*
Y-1126870D01*
X889422D01*
X903560Y-1141007D01*
X896491Y-1143363D02*
Y-1148076D01*
X891778Y-1152789D01*
X887066D01*
X877641Y-1143363D01*
Y-1138651D01*
X882353Y-1133938D01*
X887066Y-1133938D01*
X889422Y-1136295D01*
X889422Y-1141007D01*
X882353Y-1148076D01*
X941260Y-1003307D02*
X927122Y-989170D01*
X920053Y-996238D01*
Y-1000951D01*
X924766Y-1005663D01*
X929479Y-1005663D01*
X936547Y-998595D01*
X912985Y-1003307D02*
X927122Y-1017445D01*
X917697D01*
Y-1026870D01*
X903560Y-1012732D01*
X912985Y-1031582D02*
X898847Y-1017445D01*
Y-1026870D01*
X889422D01*
X903560Y-1041007D01*
X887066Y-1033938D02*
X882353Y-1033938D01*
X877641Y-1038651D01*
Y-1043363D01*
X879997Y-1045720D01*
X884710D01*
Y-1050432D01*
X887066Y-1052789D01*
X891778D01*
X896491Y-1048076D01*
Y-1043363D01*
X894135Y-1041007D01*
X889422D01*
X889422Y-1036295D01*
X887066Y-1033938D01*
X889422Y-1041007D02*
X884710Y-1045720D01*
X939189Y-843307D02*
X925051Y-829170D01*
X917982Y-836238D01*
Y-840951D01*
X922695Y-845663D01*
X927407Y-845663D01*
X934476Y-838595D01*
X910914Y-843307D02*
X925051Y-857445D01*
X915626D01*
Y-866870D01*
X901489Y-852732D01*
X910914Y-871582D02*
X896776Y-857445D01*
Y-866870D01*
X887351D01*
X901489Y-881007D01*
X882639Y-871582D02*
X873213Y-881007D01*
X875570Y-883363D01*
X894420D01*
X896776Y-885720D01*
X939189Y-743307D02*
X925051Y-729170D01*
X917982Y-736238D01*
Y-740951D01*
X922695Y-745663D01*
X927407Y-745663D01*
X934476Y-738595D01*
X910914Y-743307D02*
X925051Y-757445D01*
X915626D01*
Y-766870D01*
X901489Y-752732D01*
X910914Y-771582D02*
X896776Y-757445D01*
Y-766870D01*
X887351D01*
X901489Y-781007D01*
X873213D02*
X880282Y-778651D01*
X889707D01*
X894420Y-783363D01*
Y-788076D01*
X889707Y-792788D01*
X884995D01*
X882639Y-790432D01*
Y-785720D01*
X889707Y-778651D01*
X939189Y-643307D02*
X925051Y-629170D01*
X917982Y-636238D01*
Y-640951D01*
X922695Y-645663D01*
X927407Y-645663D01*
X934476Y-638595D01*
X910914Y-643307D02*
X925051Y-657445D01*
X915626D01*
Y-666870D01*
X901489Y-652732D01*
X910914Y-671582D02*
X896776Y-657445D01*
Y-666870D01*
X887351D01*
X901489Y-681007D01*
X873213D02*
X882639Y-671582D01*
X889707Y-678651D01*
X882639Y-681007D01*
X880282Y-683364D01*
Y-688076D01*
X884995Y-692788D01*
X889707D01*
X894420Y-688076D01*
Y-683363D01*
X939189Y-543307D02*
X925051Y-529170D01*
X917982Y-536238D01*
Y-540951D01*
X922695Y-545663D01*
X927407Y-545663D01*
X934476Y-538595D01*
X910914Y-543307D02*
X925051Y-557445D01*
X915626D01*
Y-566870D01*
X901489Y-552732D01*
X910914Y-571582D02*
X896776Y-557445D01*
Y-566870D01*
X887351D01*
X901489Y-581007D01*
X889707Y-592788D02*
X875570Y-578651D01*
X889707Y-578651D01*
X880282Y-588076D01*
X939189Y-443307D02*
X925051Y-429170D01*
X917982Y-436238D01*
Y-440951D01*
X922695Y-445663D01*
X927407Y-445663D01*
X934476Y-438595D01*
X910914Y-443307D02*
X925051Y-457445D01*
X915626D01*
Y-466870D01*
X901489Y-452732D01*
X910914Y-471582D02*
X896776Y-457445D01*
Y-466870D01*
X887351D01*
X901489Y-481007D01*
X884995Y-473938D02*
X880282Y-473938D01*
X875570Y-478651D01*
Y-483363D01*
X877926Y-485720D01*
X882639D01*
X884995Y-483363D01*
X882639Y-485720D01*
Y-490432D01*
X884995Y-492788D01*
X889707D01*
X894420Y-488076D01*
Y-483363D01*
X946260Y-343307D02*
X932122Y-329170D01*
X925053Y-336238D01*
Y-340951D01*
X929766Y-345663D01*
X934479Y-345663D01*
X941547Y-338595D01*
X917985Y-343307D02*
X932122Y-357445D01*
X922697D01*
Y-366870D01*
X908560Y-352732D01*
X917985Y-371582D02*
X903847Y-357445D01*
Y-366870D01*
X894422D01*
X908560Y-381007D01*
X894422Y-395145D02*
X903847Y-385720D01*
X884997D01*
X882641Y-383363D01*
Y-378651D01*
X887353Y-373938D01*
X892066Y-373938D01*
X932122Y-229170D02*
X922697Y-238595D01*
X927410Y-233882D01*
X941547Y-248020D01*
X917985Y-243307D02*
X922697Y-266870D01*
X908560Y-252732D02*
X932122Y-257445D01*
X906203Y-259801D02*
X901491D01*
X896778Y-264513D01*
Y-269226D01*
X906203Y-278651D01*
X910916Y-278651D01*
X915628Y-273938D01*
Y-269226D01*
X906203Y-259801D01*
X932122Y70830D02*
X922697Y61405D01*
X927410Y66118D01*
X941547Y51980D01*
X917985Y56693D02*
X922697Y33130D01*
X908560Y47268D02*
X932122Y42555D01*
X906203Y40199D02*
X901491D01*
X896778Y35487D01*
Y30774D01*
X899135Y28418D01*
X903847D01*
X906203Y30774D01*
X903847Y28418D01*
X903847Y23705D01*
X906203Y21349D01*
X910916Y21349D01*
X915628Y26061D01*
Y30774D01*
X946260Y156693D02*
X932122Y170830D01*
X925053Y163762D01*
Y159049D01*
X929766Y154337D01*
X934479Y154337D01*
X941547Y161405D01*
X936835Y156693D02*
Y147268D01*
X917985Y156693D02*
X922697Y133130D01*
X908560Y147268D02*
X932122Y142555D01*
X906203Y140199D02*
X901491D01*
X896778Y135487D01*
Y130774D01*
X899135Y128418D01*
X903847D01*
X906203Y130774D01*
X903847Y128418D01*
X903847Y123705D01*
X906203Y121349D01*
X910916Y121349D01*
X915628Y126061D01*
Y130774D01*
X932122Y270830D02*
X922697Y261405D01*
X927410Y266118D01*
X941547Y251980D01*
X917985Y256693D02*
X922697Y233130D01*
X908560Y247268D02*
X932122Y242555D01*
X908560Y218993D02*
X917985Y228418D01*
X899135D01*
X896778Y230774D01*
Y235487D01*
X901491Y240199D01*
X906203D01*
X946260Y356693D02*
X932122Y370830D01*
X925053Y363762D01*
Y359049D01*
X929766Y354337D01*
X934479Y354337D01*
X941547Y361405D01*
X936835Y356693D02*
Y347268D01*
X917985Y356693D02*
X922697Y333130D01*
X908560Y347268D02*
X932122Y342555D01*
X908560Y318993D02*
X917985Y328418D01*
X899135D01*
X896778Y330774D01*
Y335487D01*
X901491Y340199D01*
X906203D01*
X932122Y470830D02*
X922697Y461405D01*
X927410Y466118D01*
X941547Y451980D01*
X917985Y456693D02*
X922697Y433130D01*
X908560Y447268D02*
X932122Y442555D01*
X917985Y428418D02*
X913272Y423705D01*
X915628Y426062D01*
X901491Y440199D01*
X906203D01*
X946260Y556693D02*
X932122Y570830D01*
X925053Y563762D01*
Y559049D01*
X929766Y554337D01*
X934479Y554337D01*
X941547Y561405D01*
X936835Y556693D02*
Y547268D01*
X917985Y556693D02*
X922697Y533130D01*
X908560Y547268D02*
X932122Y542555D01*
X917985Y528418D02*
X913272Y523705D01*
X915628Y526062D01*
X901491Y540199D01*
X906203D01*
X925053Y659049D02*
Y663762D01*
X929766Y668474D01*
X934479Y668474D01*
X936835Y666118D01*
X936835Y661405D01*
X932122Y656693D01*
X932122Y651980D01*
X934479Y649624D01*
X939191Y649624D01*
X943904Y654337D01*
Y659049D01*
X917985Y656693D02*
X932122Y642555D01*
X925053Y635487D01*
X920341D01*
X910916Y644912D01*
Y649624D01*
X917985Y656693D01*
Y628418D02*
X908560Y637843D01*
X899135D01*
Y628418D01*
X908560Y618993D01*
X901491Y626062D01*
X910916Y635487D01*
X-682534Y1229337D02*
Y1224624D01*
X-687246Y1219912D01*
X-691959Y1219912D01*
X-701384Y1229337D01*
Y1234049D01*
X-696671Y1238762D01*
X-691959Y1238762D01*
X-687246Y1234049D01*
X-691959Y1229337D01*
X-689603Y1245830D02*
X-675465Y1231693D01*
X-680178Y1255255D01*
X-666040Y1241118D01*
X-661328Y1245830D02*
X-675465Y1259968D01*
X-668396Y1267037D01*
X-663684Y1267037D01*
X-654259Y1257612D01*
Y1252899D01*
X-661328Y1245830D01*
X-580178Y1226980D02*
X-589603Y1217555D01*
X-596671Y1224624D01*
X-589603Y1226980D01*
X-587246Y1229337D01*
Y1234049D01*
X-591959Y1238762D01*
X-596671Y1238762D01*
X-601384Y1234049D01*
Y1229337D01*
X-577821Y1234049D02*
X-573109Y1234049D01*
X-568396Y1238762D01*
Y1243474D01*
X-570753Y1245830D01*
X-575465D01*
X-577821Y1243474D01*
X-575465Y1245830D01*
Y1250543D01*
X-577821Y1252899D01*
X-582534D01*
X-587246Y1248187D01*
Y1243474D01*
X-480178Y1226980D02*
X-489603Y1217555D01*
X-496671Y1224624D01*
X-489603Y1226980D01*
X-487246Y1229337D01*
Y1234049D01*
X-491959Y1238762D01*
X-496671Y1238762D01*
X-501384Y1234049D01*
Y1229337D01*
X-489603Y1245830D02*
X-484890Y1250543D01*
X-487246Y1248187D01*
X-473109Y1234049D01*
X-477821Y1234049D01*
X-396671Y1238762D02*
X-382534Y1224624D01*
X-396671Y1224624D01*
X-387246Y1234049D01*
Y1243474D02*
Y1248187D01*
X-382534Y1252899D01*
X-377821D01*
X-368396Y1243474D01*
Y1238762D01*
X-373109Y1234049D01*
X-377821Y1234049D01*
X-380178Y1236405D01*
Y1241118D01*
X-373109Y1248187D01*
X-296671Y1238762D02*
X-282534Y1224624D01*
X-296671Y1224624D01*
X-287246Y1234049D01*
X-275465Y1231693D02*
X-266040Y1241118D01*
X-268396Y1243474D01*
X-287246D01*
X-289603Y1245830D01*
X-196671Y1238762D02*
X-182534Y1224624D01*
X-196671Y1224624D01*
X-187246Y1234049D01*
X-166040Y1241118D02*
X-175465Y1231693D01*
X-182534Y1238762D01*
X-175465Y1241118D01*
X-173109Y1243474D01*
Y1248187D01*
X-177821Y1252899D01*
X-182534D01*
X-187246Y1248187D01*
Y1243474D01*
X-96671Y1238762D02*
X-82534Y1224624D01*
X-96671Y1224624D01*
X-87246Y1234049D01*
X-77821D02*
X-73109Y1234049D01*
X-68396Y1238762D01*
Y1243474D01*
X-70753Y1245830D01*
X-75465D01*
X-77821Y1243474D01*
X-75465Y1245830D01*
Y1250543D01*
X-77821Y1252899D01*
X-82534D01*
X-87246Y1248187D01*
Y1243474D01*
X3329Y1238762D02*
X17466Y1224624D01*
X3329Y1224624D01*
X12754Y1234049D01*
X10397Y1245830D02*
X15110Y1250543D01*
X12754Y1248187D01*
X26891Y1234049D01*
X22179Y1234049D01*
X108041Y1219912D02*
X112754Y1219912D01*
X117466Y1224624D01*
Y1229337D01*
X115110Y1231693D01*
X110397D01*
X108041Y1229337D01*
X110397Y1231693D01*
X110397Y1236405D01*
X108041Y1238762D01*
X103329Y1238762D01*
X98616Y1234049D01*
Y1229337D01*
X112754Y1243474D02*
Y1248187D01*
X117466Y1252899D01*
X122179D01*
X131604Y1243474D01*
Y1238762D01*
X126891Y1234049D01*
X122179Y1234049D01*
X119822Y1236405D01*
Y1241118D01*
X126891Y1248187D01*
X208041Y1219912D02*
X212754Y1219912D01*
X217466Y1224624D01*
Y1229337D01*
X215110Y1231693D01*
X210397D01*
X208041Y1229337D01*
X210397Y1231693D01*
X210397Y1236405D01*
X208041Y1238762D01*
X203329Y1238762D01*
X198616Y1234049D01*
Y1229337D01*
X224535Y1231693D02*
X233960Y1241118D01*
X231604Y1243474D01*
X212754D01*
X210397Y1245830D01*
X308041Y1219912D02*
X312754Y1219912D01*
X317466Y1224624D01*
Y1229337D01*
X315110Y1231693D01*
X310397D01*
X308041Y1229337D01*
X310397Y1231693D01*
X310397Y1236405D01*
X308041Y1238762D01*
X303329Y1238762D01*
X298616Y1234049D01*
Y1229337D01*
X333960Y1241118D02*
X324535Y1231693D01*
X317466Y1238762D01*
X324535Y1241118D01*
X326891Y1243474D01*
Y1248187D01*
X322179Y1252899D01*
X317466D01*
X312754Y1248187D01*
Y1243474D01*
X408041Y1219912D02*
X412754Y1219912D01*
X417466Y1224624D01*
Y1229337D01*
X415110Y1231693D01*
X410397D01*
X408041Y1229337D01*
X410397Y1231693D01*
X410397Y1236405D01*
X408041Y1238762D01*
X403329Y1238762D01*
X398616Y1234049D01*
Y1229337D01*
X422179Y1234049D02*
X426891Y1234049D01*
X431604Y1238762D01*
Y1243474D01*
X429247Y1245830D01*
X424535D01*
X422179Y1243474D01*
X424535Y1245830D01*
Y1250543D01*
X422179Y1252899D01*
X417466D01*
X412754Y1248187D01*
Y1243474D01*
X508041Y1219912D02*
X512754Y1219912D01*
X517466Y1224624D01*
Y1229337D01*
X515110Y1231693D01*
X510397D01*
X508041Y1229337D01*
X510397Y1231693D01*
X510397Y1236405D01*
X508041Y1238762D01*
X503329Y1238762D01*
X498616Y1234049D01*
Y1229337D01*
X510397Y1245830D02*
X515110Y1250543D01*
X512754Y1248187D01*
X526891Y1234049D01*
X522179Y1234049D01*
X605685Y1241118D02*
X596260Y1231693D01*
X615110D01*
X617466Y1229337D01*
Y1224624D01*
X612754Y1219912D01*
X608041Y1219912D01*
X612754Y1243474D02*
Y1248187D01*
X617466Y1252899D01*
X622179D01*
X631604Y1243474D01*
Y1238762D01*
X626891Y1234049D01*
X622179Y1234049D01*
X619822Y1236405D01*
Y1241118D01*
X626891Y1248187D01*
X705685Y1241118D02*
X696260Y1231693D01*
X715110D01*
X717466Y1229337D01*
Y1224624D01*
X712754Y1219912D01*
X708041Y1219912D01*
X724535Y1231693D02*
X733960Y1241118D01*
X731604Y1243474D01*
X712754D01*
X710397Y1245830D01*
X805685Y1241118D02*
X796260Y1231693D01*
X815110D01*
X817466Y1229337D01*
Y1224624D01*
X812754Y1219912D01*
X808041Y1219912D01*
X833960Y1241118D02*
X824535Y1231693D01*
X817466Y1238762D01*
X824535Y1241118D01*
X826891Y1243474D01*
Y1248187D01*
X822179Y1252899D01*
X817466D01*
X812754Y1248187D01*
Y1243474D01*
X905685Y1241118D02*
X896260Y1231693D01*
X915110D01*
X917466Y1229337D01*
Y1224624D01*
X912754Y1219912D01*
X908041Y1219912D01*
X922179Y1234049D02*
X926891Y1234049D01*
X931604Y1238762D01*
Y1243474D01*
X929247Y1245830D01*
X924535D01*
X922179Y1243474D01*
X924535Y1245830D01*
Y1250543D01*
X922179Y1252899D01*
X917466D01*
X912754Y1248187D01*
Y1243474D01*
X1019822Y1226980D02*
X1010397Y1217555D01*
X1003329Y1224624D01*
X1010397Y1226980D01*
X1012754Y1229337D01*
Y1234049D01*
X1008041Y1238762D01*
X1003329Y1238762D01*
X998616Y1234049D01*
Y1229337D01*
X1024535Y1231693D02*
X1015110Y1241118D01*
Y1250543D01*
X1024535D01*
X1033960Y1241118D01*
X-474028Y955255D02*
X-464603Y945830D01*
X-471671Y938762D01*
X-474028Y945830D01*
X-476384Y948187D01*
X-481096D01*
X-485809Y943474D01*
X-485809Y938762D01*
X-481096Y934049D01*
X-476384D01*
X-481096Y957612D02*
X-481096Y962324D01*
X-485809Y967037D01*
X-490521D01*
X-499947Y957612D01*
Y952899D01*
X-495234Y948187D01*
X-490521D01*
X-481096Y957612D01*
X-676384Y952899D02*
X-671672D01*
X-666959Y948187D01*
X-666959Y943474D01*
X-676384Y934049D01*
X-681096D01*
X-685809Y938762D01*
X-685809Y943474D01*
X-681096Y948187D01*
X-676384Y943474D01*
X-692878Y945830D02*
X-678740Y959968D01*
X-702303Y955255D01*
X-688165Y969393D01*
X-692878Y974106D02*
X-707015Y959968D01*
X-714084Y967037D01*
X-714084Y971749D01*
X-704659Y981174D01*
X-699947D01*
X-692878Y974106D01*
X-574028Y955255D02*
X-564603Y945830D01*
X-571671Y938762D01*
X-574028Y945830D01*
X-576384Y948187D01*
X-581096D01*
X-585809Y943474D01*
X-585809Y938762D01*
X-581096Y934049D01*
X-576384D01*
X-602303Y955255D02*
X-592878Y945830D01*
Y964681D01*
X-590521Y967037D01*
X-585809D01*
X-581096Y962324D01*
X-581096Y957612D01*
X-385809Y938762D02*
X-371671Y952899D01*
X-371671Y938762D01*
X-381096Y948187D01*
Y957612D02*
X-381096Y962324D01*
X-385809Y967037D01*
X-390521D01*
X-392878Y964681D01*
Y959968D01*
X-397590D01*
X-399947Y957612D01*
Y952899D01*
X-395234Y948187D01*
X-390521D01*
X-388165Y950543D01*
Y955255D01*
X-383453D01*
X-381096Y957612D01*
X-388165Y955255D02*
X-392878Y959968D01*
X-285809Y938762D02*
X-271671Y952899D01*
X-271671Y938762D01*
X-281096Y948187D01*
X-288165Y969393D02*
X-285809Y962324D01*
Y952899D01*
X-290521Y948187D01*
X-295234D01*
X-299947Y952899D01*
Y957612D01*
X-297590Y959968D01*
X-292878D01*
X-285809Y952899D01*
X-185809Y938762D02*
X-171672Y952899D01*
X-171671Y938762D01*
X-181096Y948187D01*
X-199946Y952899D02*
X-185809Y967037D01*
X-185809Y952899D01*
X-195234Y962324D01*
X-85809Y938762D02*
X-71671Y952899D01*
X-71671Y938762D01*
X-81096Y948187D01*
X-102303Y955255D02*
X-92878Y945830D01*
Y964681D01*
X-90521Y967037D01*
X-85809D01*
X-81097Y962324D01*
X-81096Y957612D01*
X14191Y938762D02*
X28328Y952899D01*
X28329Y938762D01*
X18904Y948187D01*
Y957612D02*
X18904Y962324D01*
X14191Y967037D01*
X9479D01*
X54Y957612D01*
Y952899D01*
X4766Y948187D01*
X9479D01*
X18904Y957612D01*
X133041Y943474D02*
X133041Y948187D01*
X128328Y952899D01*
X123616D01*
X121260Y950543D01*
Y945831D01*
X123616Y943474D01*
X121260Y945831D01*
X116547Y945830D01*
X114191Y943474D01*
X114191Y938762D01*
X118903Y934049D01*
X123616D01*
X118904Y957612D02*
X118903Y962324D01*
X114191Y967037D01*
X109479D01*
X107122Y964681D01*
Y959968D01*
X102410D01*
X100053Y957612D01*
Y952899D01*
X104766Y948187D01*
X109479D01*
X111835Y950543D01*
Y955255D01*
X116547D01*
X118904Y957612D01*
X111835Y955255D02*
X107122Y959968D01*
X233041Y943474D02*
X233041Y948187D01*
X228328Y952899D01*
X223616D01*
X221260Y950543D01*
Y945831D01*
X223616Y943474D01*
X221260Y945831D01*
X216547Y945830D01*
X214191Y943474D01*
X214191Y938762D01*
X218904Y934049D01*
X223616D01*
X211835Y969393D02*
X214191Y962324D01*
Y952899D01*
X209479Y948187D01*
X204766D01*
X200054Y952899D01*
Y957612D01*
X202410Y959968D01*
X207122D01*
X214191Y952899D01*
X333041Y943474D02*
X333041Y948187D01*
X328329Y952899D01*
X323616D01*
X321260Y950543D01*
Y945831D01*
X323616Y943474D01*
X321260Y945831D01*
X316547Y945830D01*
X314191Y943474D01*
X314191Y938762D01*
X318904Y934049D01*
X323616D01*
X300053Y952899D02*
X314191Y967037D01*
X314191Y952899D01*
X304766Y962324D01*
X433041Y943474D02*
X433041Y948187D01*
X428329Y952899D01*
X423616D01*
X421260Y950543D01*
Y945831D01*
X423616Y943474D01*
X421260Y945831D01*
X416547Y945830D01*
X414191Y943474D01*
X414191Y938762D01*
X418904Y934049D01*
X423616D01*
X397697Y955255D02*
X407122Y945830D01*
Y964681D01*
X409479Y967037D01*
X414191D01*
X418904Y962324D01*
X418904Y957612D01*
X533041Y943474D02*
X533041Y948187D01*
X528328Y952899D01*
X523616D01*
X521260Y950543D01*
Y945831D01*
X523616Y943474D01*
X521260Y945831D01*
X516547Y945830D01*
X514191Y943474D01*
X514191Y938762D01*
X518904Y934049D01*
X523616D01*
X518904Y957612D02*
X518904Y962324D01*
X514191Y967037D01*
X509479D01*
X500053Y957612D01*
Y952899D01*
X504766Y948187D01*
X509479D01*
X518904Y957612D01*
X611835Y941118D02*
X621260Y931693D01*
Y950543D01*
X623616Y952899D01*
X628328D01*
X633041Y948187D01*
X633041Y943474D01*
X618904Y957612D02*
X618904Y962324D01*
X614191Y967037D01*
X609479D01*
X607122Y964681D01*
Y959968D01*
X602410D01*
X600053Y957612D01*
Y952899D01*
X604766Y948187D01*
X609479D01*
X611835Y950543D01*
Y955255D01*
X616547D01*
X618904Y957612D01*
X611835Y955255D02*
X607122Y959968D01*
X711835Y941118D02*
X721260Y931693D01*
Y950543D01*
X723616Y952899D01*
X728328D01*
X733041Y948187D01*
X733041Y943474D01*
X711835Y969393D02*
X714191Y962324D01*
Y952899D01*
X709479Y948187D01*
X704766D01*
X700053Y952899D01*
Y957612D01*
X702410Y959968D01*
X707122D01*
X714191Y952899D01*
X811835Y941118D02*
X821260Y931693D01*
Y950543D01*
X823616Y952899D01*
X828328D01*
X833041Y948187D01*
X833041Y943474D01*
X800053Y952899D02*
X814191Y967037D01*
X814191Y952899D01*
X804766Y962324D01*
X911835Y941118D02*
X921260Y931693D01*
Y950543D01*
X923616Y952899D01*
X928328D01*
X933041Y948187D01*
X933041Y943474D01*
X897697Y955255D02*
X907122Y945830D01*
Y964681D01*
X909479Y967037D01*
X914191D01*
X918904Y962324D01*
X918904Y957612D01*
X1025972Y955255D02*
X1035397Y945830D01*
X1028329Y938762D01*
X1025972Y945830D01*
X1023616Y948187D01*
X1018904D01*
X1014191Y943474D01*
X1014191Y938762D01*
X1018904Y934049D01*
X1023616D01*
X1021260Y959968D02*
X1011835Y950543D01*
X1002410D01*
Y959968D01*
X1011835Y969393D01*
X925053Y759049D02*
Y763762D01*
X929766Y768474D01*
X934479Y768474D01*
X936835Y766118D01*
X936835Y761405D01*
X932122Y756693D01*
X932122Y751980D01*
X934479Y749624D01*
X939191Y749624D01*
X943904Y754337D01*
Y759049D01*
X910916Y744912D02*
Y749624D01*
X915628Y754337D01*
X920341Y754337D01*
X929766Y744912D01*
Y740199D01*
X925053Y735487D01*
X920341D01*
X903847Y742555D02*
X917985Y728418D01*
X908560Y718993D01*
X946260Y-143307D02*
X932122Y-129170D01*
X925053Y-136238D01*
Y-140951D01*
X929766Y-145663D01*
X934479Y-145663D01*
X941547Y-138595D01*
X936835Y-143307D02*
Y-152732D01*
X917985Y-143307D02*
X922697Y-166870D01*
X908560Y-152732D02*
X932122Y-157445D01*
X906203Y-159801D02*
X901491D01*
X896778Y-164513D01*
Y-169226D01*
X906203Y-178651D01*
X910916Y-178651D01*
X915628Y-173939D01*
Y-169226D01*
X906203Y-159801D01*
X-803740Y956693D02*
X-794315Y947268D01*
X-784890D01*
Y956693D01*
X-794315Y966118D01*
X-787246Y959049D01*
X-796671Y949624D01*
X-775465Y956693D02*
X-789603Y970830D01*
X-782534Y977899D01*
X-777821D01*
X-768396Y968474D01*
Y963762D01*
X-775465Y956693D01*
Y984968D02*
X-770753Y989681D01*
X-773109Y987324D01*
X-758971Y973187D01*
X-763684D01*
X-740121Y992037D02*
X-749546Y982612D01*
X-756615Y989681D01*
X-749546Y992037D01*
X-747190Y994393D01*
Y999106D01*
X-751903Y1003818D01*
X-756615Y1003818D01*
X-761327Y999106D01*
Y994393D01*
X-803740Y856693D02*
X-794315Y847268D01*
X-784890D01*
Y856693D01*
X-794315Y866118D01*
X-787246Y859049D01*
X-796671Y849624D01*
X-775465Y856693D02*
X-789603Y870830D01*
X-782534Y877899D01*
X-777821D01*
X-768396Y868474D01*
Y863762D01*
X-775465Y856693D01*
Y884968D02*
X-770753Y889681D01*
X-773109Y887324D01*
X-758971Y873187D01*
X-763684D01*
X-756615Y903818D02*
X-742477Y889681D01*
X-756615Y889681D01*
X-747190Y899106D01*
X-803740Y756693D02*
X-794315Y747268D01*
X-784890D01*
Y756693D01*
X-794315Y766118D01*
X-787246Y759049D01*
X-796671Y749624D01*
X-775465Y756693D02*
X-789603Y770830D01*
X-782534Y777899D01*
X-777821D01*
X-768396Y768474D01*
Y763762D01*
X-775465Y756693D01*
Y784968D02*
X-770753Y789681D01*
X-773109Y787324D01*
X-758971Y773187D01*
X-763684D01*
X-751903Y784968D02*
X-747190D01*
X-742477Y789681D01*
Y794393D01*
X-744834Y796749D01*
X-749546D01*
X-751903Y794393D01*
X-749546Y796749D01*
X-749546Y801462D01*
X-751903Y803818D01*
X-756615Y803818D01*
X-761327Y799106D01*
Y794393D01*
X-803740Y656693D02*
X-794315Y647268D01*
X-784890D01*
Y656693D01*
X-794315Y666118D01*
X-787246Y659049D01*
X-796671Y649624D01*
X-775465Y656693D02*
X-789603Y670830D01*
X-782534Y677899D01*
X-777821D01*
X-768396Y668474D01*
Y663762D01*
X-775465Y656693D01*
Y684968D02*
X-770753Y689681D01*
X-773109Y687324D01*
X-758971Y673187D01*
X-763684D01*
X-754259Y706174D02*
X-763684Y696749D01*
X-744834D01*
X-742477Y694393D01*
Y689681D01*
X-747190Y684968D01*
X-751903D01*
X-803740Y556693D02*
X-794315Y547268D01*
X-784890D01*
Y556693D01*
X-794315Y566118D01*
X-787246Y559049D01*
X-796671Y549624D01*
X-775465Y556693D02*
X-789603Y570830D01*
X-782534Y577899D01*
X-777821D01*
X-768396Y568474D01*
Y563762D01*
X-775465Y556693D01*
Y584968D02*
X-770753Y589681D01*
X-773109Y587324D01*
X-758971Y573187D01*
X-763684D01*
Y596749D02*
X-758971Y601462D01*
X-761327Y599106D01*
X-747190Y584968D01*
X-751903D01*
X-803740Y456693D02*
X-794315Y447268D01*
X-784890D01*
Y456693D01*
X-794315Y466118D01*
X-787246Y459049D01*
X-796671Y449624D01*
X-775465Y456693D02*
X-789603Y470830D01*
X-782534Y477899D01*
X-777821D01*
X-768396Y468474D01*
Y463762D01*
X-775465Y456693D01*
Y484968D02*
X-770753Y489680D01*
X-773109Y487324D01*
X-758971Y473187D01*
X-763684D01*
X-751903Y484968D02*
X-747190D01*
X-742477Y489681D01*
Y494393D01*
X-751903Y503818D01*
X-756615Y503818D01*
X-761327Y499106D01*
Y494393D01*
X-751903Y484968D01*
X-803740Y356693D02*
X-794315Y347268D01*
X-784890D01*
Y356693D01*
X-794315Y366118D01*
X-787246Y359049D01*
X-796671Y349624D01*
X-775465Y356693D02*
X-789603Y370830D01*
X-782534Y377899D01*
X-777821D01*
X-768396Y368474D01*
Y363762D01*
X-775465Y356693D01*
X-773109Y382612D02*
Y387324D01*
X-768396Y392037D01*
X-763684Y392037D01*
X-754259Y382612D01*
Y377899D01*
X-758971Y373187D01*
X-763684D01*
X-766040Y375543D01*
X-766040Y380255D01*
X-758971Y387324D01*
X-803740Y256693D02*
X-794315Y247268D01*
X-784890D01*
Y256693D01*
X-794315Y266118D01*
X-787246Y259049D01*
X-796671Y249624D01*
X-775465Y256693D02*
X-789603Y270830D01*
X-782534Y277899D01*
X-777821D01*
X-768396Y268474D01*
Y263762D01*
X-775465Y256693D01*
X-763684Y273187D02*
X-758971D01*
X-754259Y277899D01*
Y282612D01*
X-756615Y284968D01*
X-761327D01*
X-761328Y289680D01*
X-763684Y292037D01*
X-768396Y292037D01*
X-773109Y287324D01*
Y282612D01*
X-770753Y280255D01*
X-766040D01*
X-766040Y275543D01*
X-763684Y273187D01*
X-766040Y280255D02*
X-761327Y284968D01*
X-803740Y56693D02*
X-794315Y47268D01*
X-784890D01*
Y56693D01*
X-794315Y66118D01*
X-787246Y59049D01*
X-796671Y49624D01*
X-775465Y56693D02*
X-789603Y70830D01*
X-782534Y77899D01*
X-777821D01*
X-768396Y68474D01*
Y63762D01*
X-775465Y56693D01*
X-761328Y70830D02*
X-751903Y80255D01*
X-754259Y82612D01*
X-773109D01*
X-775465Y84968D01*
X-803740Y-43307D02*
X-794315Y-52732D01*
X-784890D01*
Y-43307D01*
X-794315Y-33882D01*
X-787246Y-40951D01*
X-796671Y-50376D01*
X-775465Y-43307D02*
X-789603Y-29170D01*
X-782534Y-22101D01*
X-777821D01*
X-768396Y-31526D01*
Y-36238D01*
X-775465Y-43307D01*
X-751903Y-19744D02*
X-758971Y-22101D01*
X-768396D01*
X-773109Y-17388D01*
Y-12676D01*
X-768396Y-7963D01*
X-763684Y-7963D01*
X-761328Y-10319D01*
X-761327Y-15032D01*
X-768396Y-22101D01*
X-803740Y-143307D02*
X-794315Y-152732D01*
X-784890D01*
Y-143307D01*
X-794315Y-133882D01*
X-787246Y-140951D01*
X-796671Y-150376D01*
X-775465Y-143307D02*
X-789603Y-129170D01*
X-782534Y-122101D01*
X-777821D01*
X-768396Y-131526D01*
Y-136238D01*
X-775465Y-143307D01*
X-751903Y-119745D02*
X-761328Y-129170D01*
X-768396Y-122101D01*
X-761328Y-119745D01*
X-758971Y-117388D01*
Y-112676D01*
X-763684Y-107963D01*
X-768396Y-107963D01*
X-773109Y-112676D01*
Y-117388D01*
X-803740Y-243307D02*
X-794315Y-252732D01*
X-784890D01*
Y-243307D01*
X-794315Y-233882D01*
X-787246Y-240951D01*
X-796671Y-250376D01*
X-775465Y-243307D02*
X-789603Y-229170D01*
X-782534Y-222101D01*
X-777821D01*
X-768396Y-231526D01*
Y-236238D01*
X-775465Y-243307D01*
X-768396Y-207963D02*
X-754259Y-222101D01*
X-768396D01*
X-758971Y-212676D01*
X-803740Y-343307D02*
X-794315Y-352732D01*
X-784890D01*
Y-343307D01*
X-794315Y-333882D01*
X-787246Y-340951D01*
X-796671Y-350376D01*
X-775465Y-343307D02*
X-789603Y-329170D01*
X-782534Y-322101D01*
X-777821D01*
X-768396Y-331526D01*
Y-336238D01*
X-775465Y-343307D01*
X-763684Y-326813D02*
X-758971D01*
X-754259Y-322101D01*
Y-317388D01*
X-756615Y-315032D01*
X-761327D01*
X-763684Y-317388D01*
X-761327Y-315032D01*
X-761328Y-310320D01*
X-763684Y-307963D01*
X-768396Y-307963D01*
X-773109Y-312676D01*
Y-317388D01*
X-803740Y-443307D02*
X-794315Y-452732D01*
X-784890D01*
Y-443307D01*
X-794315Y-433882D01*
X-787246Y-440951D01*
X-796671Y-450376D01*
X-775465Y-443307D02*
X-789603Y-429170D01*
X-782534Y-422101D01*
X-777821D01*
X-768396Y-431526D01*
Y-436238D01*
X-775465Y-443307D01*
X-766040Y-405607D02*
X-775465Y-415032D01*
X-756615D01*
X-754259Y-417388D01*
Y-422101D01*
X-758971Y-426813D01*
X-763684D01*
X-803740Y-543307D02*
X-794315Y-552732D01*
X-784890D01*
Y-543307D01*
X-794315Y-533882D01*
X-787246Y-540951D01*
X-796671Y-550376D01*
X-775465Y-543307D02*
X-789603Y-529170D01*
X-782534Y-522101D01*
X-777821D01*
X-768396Y-531526D01*
Y-536238D01*
X-775465Y-543307D01*
Y-515032D02*
X-770753Y-510320D01*
X-773109Y-512676D01*
X-758971Y-526813D01*
X-763684D01*
X-803740Y-643307D02*
X-794315Y-652732D01*
X-784890D01*
Y-643307D01*
X-794315Y-633882D01*
X-787246Y-640951D01*
X-796671Y-650376D01*
X-775465Y-643307D02*
X-789603Y-629170D01*
X-782534Y-622101D01*
X-777821D01*
X-768396Y-631526D01*
Y-636238D01*
X-775465Y-643307D01*
X-763684Y-626813D02*
X-758971D01*
X-754259Y-622101D01*
Y-617388D01*
X-763684Y-607963D01*
X-768396Y-607963D01*
X-773109Y-612676D01*
Y-617388D01*
X-763684Y-626813D01*
X-789603Y-857445D02*
X-799028Y-848020D01*
Y-838595D01*
X-789603D01*
X-780178Y-848020D01*
X-789603Y-829170D02*
X-784890Y-824457D01*
X-787246Y-826813D01*
X-777821Y-836238D01*
X-780178Y-838595D01*
X-777821Y-817388D02*
X-768396Y-826813D01*
X-761327Y-819745D01*
Y-815032D01*
X-768396Y-807963D01*
X-782534Y-945663D02*
Y-950376D01*
X-787246Y-955088D01*
X-791959Y-955088D01*
X-801384Y-945663D01*
Y-940951D01*
X-796671Y-936238D01*
X-791959Y-936238D01*
X-787246Y-940951D01*
X-791959Y-945663D01*
X-789603Y-929170D02*
X-775465Y-943307D01*
X-780178Y-919745D01*
X-766040Y-933882D01*
X-761328Y-929170D02*
X-775465Y-915032D01*
X-768396Y-907963D01*
X-763684Y-907963D01*
X-754259Y-917388D01*
Y-922101D01*
X-761328Y-929170D01*
X-782534Y-1045663D02*
Y-1050376D01*
X-787246Y-1055088D01*
X-791959Y-1055088D01*
X-801384Y-1045663D01*
Y-1040951D01*
X-796671Y-1036238D01*
X-791959Y-1036238D01*
X-787246Y-1040951D01*
X-791959Y-1045663D01*
X-789603Y-1029170D02*
X-775465Y-1043307D01*
X-780178Y-1019745D01*
X-766040Y-1033882D01*
X-761328Y-1029170D02*
X-775465Y-1015032D01*
X-768396Y-1007963D01*
X-763684Y-1007963D01*
X-754259Y-1017388D01*
Y-1022101D01*
X-761328Y-1029170D01*
X-780178Y-1148020D02*
X-789603Y-1157445D01*
X-796671Y-1150376D01*
X-789603Y-1148020D01*
X-787246Y-1145663D01*
Y-1140951D01*
X-791959Y-1136238D01*
X-796671Y-1136238D01*
X-801384Y-1140951D01*
Y-1145663D01*
X-780178Y-1138595D02*
X-784890Y-1124457D01*
X-770753Y-1129170D01*
X-791959Y-1255088D02*
X-787246Y-1255088D01*
X-782534Y-1250376D01*
Y-1245663D01*
X-784890Y-1243307D01*
X-789603D01*
X-791959Y-1245663D01*
X-789603Y-1243307D01*
X-789603Y-1238595D01*
X-791959Y-1236238D01*
X-796671Y-1236238D01*
X-801384Y-1240951D01*
Y-1245663D01*
X-780178Y-1238595D02*
X-784890Y-1224457D01*
X-770753Y-1229170D01*
X-763684Y-1226813D02*
X-758971D01*
X-754259Y-1222101D01*
Y-1217388D01*
X-756615Y-1215032D01*
X-761327D01*
X-763684Y-1217388D01*
X-761327Y-1215032D01*
X-761328Y-1210320D01*
X-763684Y-1207963D01*
X-768396Y-1207963D01*
X-773109Y-1212676D01*
Y-1217388D01*
X-803740Y-1343307D02*
X-789603Y-1357445D01*
X-782534Y-1350376D01*
Y-1345663D01*
X-787246Y-1340951D01*
X-791959Y-1340951D01*
X-799028Y-1348020D01*
X-794315Y-1343307D02*
Y-1333882D01*
X-766040D02*
X-775465Y-1343307D01*
X-789603Y-1329170D01*
X-780178Y-1319745D01*
X-782534Y-1336238D02*
X-777821Y-1331526D01*
X-754259Y-1317388D02*
Y-1322101D01*
X-758971Y-1326813D01*
X-763684D01*
X-766040Y-1324457D01*
X-766040Y-1319745D01*
X-761327Y-1315032D01*
X-761328Y-1310320D01*
X-763684Y-1307963D01*
X-768396Y-1307963D01*
X-773109Y-1312676D01*
Y-1317388D01*
X-737765Y-1305607D02*
X-747190Y-1315032D01*
X-761328Y-1300895D01*
X-751903Y-1291469D01*
X-754259Y-1307963D02*
X-749546Y-1303251D01*
X-733053Y-1300895D02*
X-723628Y-1291469D01*
X-728340Y-1296182D01*
X-742477Y-1282044D01*
D42*
X1248073Y-1577204D02*
D03*
Y-527204D02*
D03*
D43*
X235471Y1579411D02*
D03*
X-794529D02*
D03*
D44*
X1250947Y461222D02*
D03*
%TF.MD5,6ce74d2313e74fccc8757d7365a11398*%
M02*
