%TF.GenerationSoftware,Altium Limited,DefaultClient, ()*%
G04 Layer_Physical_Order=1*
G04 Layer_Color=255*
G04 Board_Origin=43131890|30803937*
%FSLAX26Y26*%
%MOIN*%
%TF.SameCoordinates,2895FA92-BEAC-45F1-90CC-3B462E10EB07*%
%TF.FilePolarity,Positive*%
%TF.FileFunction,Copper,L1,Top,Signal*%
%TF.Part,Single*%
G01*
G75*
%TA.AperFunction,Conductor*%
%ADD10C,0.039370*%
%ADD11C,0.023622*%
%TA.AperFunction,ComponentPad*%
%ADD12O,0.090551X0.070866*%
%ADD13R,0.090551X0.070866*%
%TA.AperFunction,ViaPad*%
%ADD14C,0.039370*%
%TA.AperFunction,ComponentPad*%
%ADD15C,0.066929*%
%ADD16R,0.066929X0.066929*%
%ADD17R,0.066929X0.066929*%
%ADD18R,0.157480X0.118110*%
%ADD19O,0.157480X0.118110*%
%ADD20R,0.118110X0.157480*%
%ADD21O,0.118110X0.157480*%
%ADD22R,0.090551X0.066929*%
%ADD23O,0.090551X0.066929*%
%ADD24R,0.066929X0.090551*%
%ADD25O,0.066929X0.090551*%
%ADD26C,0.137795*%
%ADD27O,0.059055X0.090551*%
%ADD28O,0.090551X0.070866*%
%ADD29R,0.090551X0.070866*%
%ADD30C,0.078740*%
%ADD31R,0.078740X0.078740*%
%ADD32C,0.070866*%
%ADD33C,0.062992*%
%ADD34O,0.070866X0.074803*%
%ADD35R,0.070866X0.070866*%
%TA.AperFunction,ViaPad*%
%ADD36C,0.062992*%
D10*
X1505906Y175197D02*
Y383858D01*
X1503937Y173228D02*
X1505906Y175197D01*
Y383858D02*
X1507874Y385827D01*
X-1696850Y-137795D02*
X-1688976Y-145669D01*
Y-350394D02*
Y-145669D01*
X1716535Y185039D02*
X1728346Y173228D01*
Y-98425D02*
Y173228D01*
D11*
X1795276Y657480D02*
X1799213Y653543D01*
X1795276Y657480D02*
Y1389764D01*
X1295276Y1507874D02*
X1661417D01*
X1318898Y1318898D02*
X1468504D01*
X1314961Y1314961D02*
X1318898Y1318898D01*
D12*
X1909449Y1419685D02*
D03*
X1209449D02*
D03*
Y719685D02*
D03*
Y819685D02*
D03*
Y919685D02*
D03*
Y1019685D02*
D03*
Y1119685D02*
D03*
Y1219685D02*
D03*
Y1319685D02*
D03*
X1909449D02*
D03*
Y1219685D02*
D03*
Y1119685D02*
D03*
Y1019685D02*
D03*
Y919685D02*
D03*
Y819685D02*
D03*
D13*
Y719685D02*
D03*
D14*
X-885827Y-1732284D02*
D03*
X1870079D02*
D03*
Y1732284D02*
D03*
X-1870079D02*
D03*
D15*
X-1158189Y-1525394D02*
D03*
X-1603150Y1283465D02*
D03*
X-1216575Y1374331D02*
D03*
X-1051575Y1369331D02*
D03*
D16*
X-1358189Y-1525394D02*
D03*
X-1803150Y1283465D02*
D03*
D17*
X-1216575Y1274331D02*
D03*
X-1051575Y1269331D02*
D03*
D18*
X-1773189Y-1597244D02*
D03*
X1306063Y-939449D02*
D03*
Y117401D02*
D03*
D19*
X-1773189Y-1400394D02*
D03*
X1306063Y-1136299D02*
D03*
Y-79449D02*
D03*
D20*
X-1422284Y1637402D02*
D03*
X-200433D02*
D03*
D21*
X-1225433D02*
D03*
X-397284D02*
D03*
D22*
X1342559Y-1374449D02*
D03*
Y-324449D02*
D03*
D23*
Y-1474449D02*
D03*
Y-1574449D02*
D03*
Y-1674449D02*
D03*
Y-1774449D02*
D03*
Y-424449D02*
D03*
Y-524449D02*
D03*
Y-624449D02*
D03*
Y-724449D02*
D03*
D24*
X32717Y1673898D02*
D03*
X-997284D02*
D03*
D25*
X132716D02*
D03*
X232716D02*
D03*
X332716D02*
D03*
X432716D02*
D03*
X-897284D02*
D03*
X-797284D02*
D03*
X-697284D02*
D03*
X-597284D02*
D03*
D26*
X614173Y1582677D02*
D03*
X1131890D02*
D03*
D27*
X830709Y1476378D02*
D03*
X909449D02*
D03*
X1007874D02*
D03*
X732283D02*
D03*
D28*
X1345433Y365551D02*
D03*
Y465551D02*
D03*
X-878740Y456693D02*
D03*
Y356693D02*
D03*
Y956693D02*
D03*
Y856693D02*
D03*
Y756693D02*
D03*
Y656693D02*
D03*
Y556693D02*
D03*
Y-443307D02*
D03*
Y-543307D02*
D03*
Y56693D02*
D03*
Y-43307D02*
D03*
Y-143307D02*
D03*
Y-243307D02*
D03*
Y-343307D02*
D03*
X1021260Y556693D02*
D03*
Y656693D02*
D03*
Y56693D02*
D03*
Y156693D02*
D03*
Y256693D02*
D03*
Y356693D02*
D03*
Y456693D02*
D03*
X-878740Y-943307D02*
D03*
Y-1043307D02*
D03*
Y-1143307D02*
D03*
Y-1243307D02*
D03*
Y-1343307D02*
D03*
X1021260Y-1203307D02*
D03*
Y-1103307D02*
D03*
Y-1703307D02*
D03*
Y-1603307D02*
D03*
Y-1503307D02*
D03*
Y-1403307D02*
D03*
Y-1303307D02*
D03*
Y-343307D02*
D03*
Y-243307D02*
D03*
Y-843307D02*
D03*
Y-743307D02*
D03*
Y-643307D02*
D03*
Y-543307D02*
D03*
Y-443307D02*
D03*
D29*
X1345433Y565551D02*
D03*
X-878740Y256693D02*
D03*
Y-643307D02*
D03*
X1021260Y756693D02*
D03*
X-878740Y-843307D02*
D03*
X1021260Y-1003307D02*
D03*
D30*
X-1515748Y704724D02*
D03*
D31*
Y1019685D02*
D03*
D32*
X-1807087Y702362D02*
D03*
Y502362D02*
D03*
Y602362D02*
D03*
X-1812480Y-1160512D02*
D03*
Y394606D02*
D03*
X-1143189Y-1160512D02*
D03*
Y394606D02*
D03*
X-1533189Y-1745394D02*
D03*
D33*
X-1169291Y539370D02*
D03*
X-1569291D02*
D03*
X-1181575Y1104331D02*
D03*
Y704331D02*
D03*
X-1061575Y1099331D02*
D03*
Y699331D02*
D03*
D34*
X1021260Y1156693D02*
D03*
Y1056693D02*
D03*
X921260Y1156693D02*
D03*
Y1056693D02*
D03*
X821260Y1156693D02*
D03*
Y1056693D02*
D03*
X721260Y1156693D02*
D03*
Y1056693D02*
D03*
X621260Y1156693D02*
D03*
Y1056693D02*
D03*
X521260Y1156693D02*
D03*
Y1056693D02*
D03*
X421260Y1156693D02*
D03*
Y1056693D02*
D03*
X321260Y1156693D02*
D03*
Y1056693D02*
D03*
X221260Y1156693D02*
D03*
Y1056693D02*
D03*
X121260D02*
D03*
Y1156693D02*
D03*
X21260D02*
D03*
Y1056693D02*
D03*
X-78740Y1156693D02*
D03*
Y1056693D02*
D03*
X-178740Y1156693D02*
D03*
Y1056693D02*
D03*
X-278740Y1156693D02*
D03*
Y1056693D02*
D03*
X-378740Y1156693D02*
D03*
Y1056693D02*
D03*
X-478740Y1156693D02*
D03*
Y1056693D02*
D03*
X-578740Y1156693D02*
D03*
Y1056693D02*
D03*
X-678740Y1156693D02*
D03*
Y1056693D02*
D03*
D35*
X-1533189Y-1345394D02*
D03*
D36*
X1503937Y173228D02*
D03*
X-1696850Y-137795D02*
D03*
X-1688976Y-350394D02*
D03*
X1507874Y385827D02*
D03*
X1716535Y185039D02*
D03*
X1728346Y-98425D02*
D03*
X1799213Y653543D02*
D03*
X1795276Y1389764D02*
D03*
X1661417Y1507874D02*
D03*
X1295276D02*
D03*
X1468504Y1318898D02*
D03*
X1314961Y1314961D02*
D03*
%TF.MD5,1cfd83fdc25757b6457cd4935ef50c60*%
M02*
